<svg width="40" height="40" xmlns="http://www.w3.org/2000/svg">
 <!-- Created with Method Draw - http://github.com/duopixel/Method-Draw/ -->

 <g>
  <title>background</title>
  <rect x="-1" y="-1" width="5.555553" height="5.555553" id="canvas_background" fill="none"/>
  <g id="canvasGrid" display="none">
   <rect id="svg_4" width="100%" height="100%" x="0" y="0" stroke-width="0" fill="url(#gridpattern)"/>
  </g>
 </g>
 <g>
  <title>Layer 1</title>
  <path fill="none" stroke="#000" stroke-width="2.5" id="svg_2" d="m5.36585,6c0.09756,0.09756 0.19639,0.11319 0.29269,0.09756c0.30453,-0.04942 0.58536,-0.09756 1.07317,-0.09756c0.4878,0 1.26829,0 1.75609,0c0.48781,0 1.17074,0 1.95123,0c0.58536,0 1.17073,0 1.36585,0c0.29268,0 0.68293,0 1.26829,0c0.58537,0 1.17073,0 1.36585,0c0.29269,0 0.48781,0 1.2683,0c0.58536,0 1.17073,-0.09756 1.65853,-0.09756c0.87805,0 1.17074,0 1.56098,0c0.87805,0 1.36585,0 1.7561,0c0.19512,0 0.4878,0 0.97561,0c0.58536,0 1.46341,0 2.04878,0c0.78048,0 0.87805,0 0.97561,0c0.09756,0 0.36033,-0.04476 0.4878,-0.09756c0.27041,-0.11201 0.78049,0 1.07317,0c0.29269,0 0.47596,-0.04814 0.78049,-0.09756c0.0963,-0.01563 0.19512,0 0.68293,0c0.68292,0 0.97561,0 1.26829,0l0.09756,0l0.09756,-0.09756"/>
  <path fill="none" stroke="#000" stroke-width="2.5" id="svg_3" d="m5.07317,10c0.09756,0.09756 0.17793,0.05012 0.39025,0c0.1899,-0.04483 0.58609,-0.08564 0.68292,-0.09756c0.39924,-0.04915 0.56167,-0.19385 1.17073,-0.29268c0.38521,-0.06251 0.87805,0 1.36586,0c0.58536,0 1.07317,0 1.7561,0c0.68292,0 1.17073,0 1.75609,0c0.48781,0 0.78049,0 1.17073,0c0.29269,0 0.68293,0 1.2683,0c0.68292,0 1.26829,0 1.95122,0c0.78049,0 1.36585,0 1.65853,0c0.29269,0 0.58537,0 1.17074,0c0.58536,0 1.36585,0 1.85365,0c0.39025,0 0.97561,0 1.56098,0c0.29268,0 0.58537,0 0.87805,0c0.19512,0 0.68293,0 1.85366,0c0.68292,0 1.46341,0.09756 1.7561,0.09756c0.29268,0 0.39024,0 0.4878,0c0.39024,0 0.87805,0 1.36585,0l0.48781,0l0.09756,0l0.19512,0"/>
  <path stroke="#000" fill="none" stroke-width="2.5" id="svg_9" d="m5.36585,13.60976c0.04988,0.09756 0.10041,0.11319 0.149646,0.09756c0.155699,-0.04942 0.299281,-0.09756 0.548688,-0.09756c0.249401,0 0.648448,0 0.897849,0c0.249406,0 0.598573,0 0.997615,0c0.299287,0 0.598573,0 0.698334,0c0.149641,0 0.349162,0 0.648448,0c0.299287,0 0.598568,0 0.698328,0c0.149646,0 0.249406,0 0.648453,0c0.299281,0 0.598568,-0.09756 0.847969,-0.09756c0.448927,0 0.598568,0 0.798094,0c0.448927,0 0.698328,0 0.897855,0c0.09976,0 0.249401,0 0.498807,0c0.299281,0 0.748209,0 1.047495,0c0.399042,0 0.448927,0 0.498807,0c0.04988,0 0.184229,-0.04476 0.249401,-0.09756c0.138255,-0.11201 0.399047,0 0.548688,0c0.149641,0 0.243348,-0.04814 0.399047,-0.09756c0.049236,-0.01563 0.09976,0 0.349167,0c0.349162,0 0.498807,0 0.648448,0l0.04988,0l0.04988,-0.09756"/>
  <path stroke="#000" fill="none" stroke-width="2.5" id="svg_10" d="m5.07317,17.60976c0.036815,0.09756 0.067143,0.05012 0.147259,0c0.071664,-0.04483 0.221168,-0.08564 0.257707,-0.09756c0.150655,-0.04915 0.211949,-0.19385 0.441781,-0.29268c0.145361,-0.06251 0.331337,0 0.515415,0c0.220889,0 0.404966,0 0.66267,0c0.257707,0 0.441785,0 0.662674,0c0.184078,0 0.294522,0 0.441781,0c0.110448,0 0.257707,0 0.4786,0c0.257704,0 0.478596,0 0.736303,0c0.294518,0 0.515411,0 0.625855,0c0.110444,0 0.220892,0 0.441781,0c0.220892,0 0.515415,0 0.699488,0c0.147263,0 0.368152,0 0.589044,0c0.110444,0 0.220889,0 0.331337,0c0.07363,0 0.257704,0 0.699488,0c0.257704,0 0.552226,0.09756 0.66267,0.09756c0.110448,0 0.147263,0 0.184078,0c0.147259,0 0.331337,0 0.515411,0l0.184078,0l0.036815,0l0.07363,0"/>
  <path fill="none" stroke-width="2.5" id="svg_11" d="m5.46341,21.80488c0.02159,0.09756 0.04346,0.11319 0.06478,0.09756c0.06739,-0.04942 0.12954,-0.09756 0.2375,-0.09756c0.10796,0 0.28069,0 0.38864,0c0.10796,0 0.2591,0 0.43183,0c0.12955,0 0.2591,0 0.30228,0c0.06478,0 0.15114,0 0.28069,0c0.12955,0 0.2591,0 0.30228,0c0.06478,0 0.10796,0 0.28069,0c0.12954,0 0.25909,-0.09756 0.36705,-0.09756c0.19432,0 0.2591,0 0.34546,0c0.19433,0 0.30228,0 0.38865,0c0.04318,0 0.10795,0 0.21591,0c0.12955,0 0.32387,0 0.45342,0c0.17273,0 0.19432,0 0.21591,0c0.0216,0 0.07975,-0.04476 0.10796,-0.09756c0.05985,-0.11201 0.17273,0 0.23751,0c0.06477,0 0.10533,-0.04814 0.17273,-0.09756c0.02131,-0.01563 0.04318,0 0.15114,0c0.15114,0 0.21591,0 0.28068,0l0.0216,0l0.02159,-0.09756" stroke="#000"/>
  <path fill="none" stroke-width="2.5" id="svg_12" d="m5.26829,25.80488c0.02487,0.09756 0.04536,0.05012 0.09947,0c0.04841,-0.04483 0.1494,-0.08564 0.17408,-0.09756c0.10177,-0.04915 0.14318,-0.19385 0.29843,-0.29268c0.09819,-0.06251 0.22381,0 0.34816,0c0.1492,0 0.27355,0 0.44763,0c0.17408,0 0.29842,0 0.44763,0c0.12434,0 0.19895,0 0.29842,0c0.07461,0 0.17408,0 0.32329,0c0.17408,0 0.32329,0 0.49737,0c0.19895,0 0.34816,0 0.42277,0c0.0746,0 0.14921,0 0.29842,0c0.14921,0 0.34816,0 0.4725,0c0.09947,0 0.24868,0 0.3979,0c0.0746,0 0.14921,0 0.22381,0c0.04974,0 0.17408,0 0.47251,0c0.17407,0 0.37302,0.09756 0.44763,0.09756c0.0746,0 0.09947,0 0.12434,0c0.09947,0 0.22382,0 0.34816,0l0.12434,0l0.02487,0l0.04974,0" stroke="#000"/>
  <path stroke="#000" fill="none" stroke-width="2.5" id="svg_13" d="m5.56097,29.60976c0.022261,0.09756 0.044815,0.11319 0.066789,0.09756c0.069486,-0.04942 0.133569,-0.09756 0.244876,-0.09756c0.111307,0 0.289404,0 0.400711,0c0.111307,0 0.267142,0 0.44523,0c0.133573,0 0.267142,0 0.31167,0c0.066784,0 0.15583,0 0.289399,0c0.133573,0 0.267142,0 0.311665,0c0.066784,0 0.111307,0 0.289404,0c0.133569,0 0.267138,-0.09756 0.378445,-0.09756c0.200358,0 0.267142,0 0.356188,0c0.200358,0 0.311665,0 0.400711,0c0.044523,0 0.111307,0 0.222619,0c0.133569,0 0.333922,0 0.467496,0c0.178092,0 0.200353,0 0.222615,0c0.022261,0 0.082223,-0.04476 0.111307,-0.09756c0.061705,-0.11201 0.178096,0 0.244881,0c0.066784,0 0.108606,-0.04814 0.178092,-0.09756c0.021974,-0.01563 0.044523,0 0.155835,0c0.15583,0 0.222615,0 0.289399,0l0.022261,0l0.022261,-0.09756"/>
  <path stroke="#000" fill="none" stroke-width="2.5" id="svg_14" d="m5.26829,33.60976c0.02079,0.09756 0.037915,0.05012 0.083153,0c0.040467,-0.04483 0.12489,-0.08564 0.145524,-0.09756c0.085073,-0.04915 0.119683,-0.19385 0.249463,-0.29268c0.082084,-0.06251 0.187101,0 0.291044,0c0.124734,0 0.228677,0 0.374197,0c0.145524,0 0.249468,0 0.374197,0c0.103948,0 0.166315,0 0.249468,0c0.062367,0 0.14552,0 0.270254,0c0.14552,0 0.270254,0 0.415778,0c0.166306,0 0.29104,0 0.353407,0c0.062367,0 0.124734,0 0.249468,0c0.124729,0 0.291044,0 0.394983,0c0.083157,0 0.207891,0 0.332625,0c0.062362,0 0.124729,0 0.187096,0c0.041581,0 0.14552,0 0.394987,0c0.14552,0 0.31183,0.09756 0.374197,0.09756c0.062367,0 0.083157,0 0.103948,0c0.083153,0 0.187096,0 0.29104,0l0.103948,0l0.020786,0l0.041576,0"/>
  <path stroke="#000" d="m28.692804,16.699349c0,0.273225 0,0.819673 0,1.366121c0,0.637522 0,1.366118 0,2.094714c0,0.637525 0,2.367942 0,3.187612c0,0.910747 0,1.821494 0,2.641165c0,0.637522 -0.095995,1.324205 -0.196077,2.003643c-0.065708,0.446074 0,1.001821 0,1.548266c0,0.546448 0,1.092895 0,1.457195c0,0.546448 0,1.092895 0,1.457195c0,0.364297 0.031944,0.549177 0,0.910747c-0.032927,0.372695 -0.065359,0.637522 -0.065359,1.001819c0,0.273225 0,0.455374 0,0.910747c0,0.273223 -0.032251,0.535386 -0.065359,0.81967c-0.010469,0.089902 0,0.364299 0,0.455374c0,0.091074 0,0.182148 0,0.364297c0,0.091077 0,0.182154 0,0.455374c0,0.182154 0,0.455374 0,0.54645c0,0.091072 0,0.182148 0,0.364297l0,0.455374l0,0.091077l0,0.091072" id="svg_5" fill-opacity="null" stroke-opacity="null" stroke-width="4" fill="none"/>
  <path stroke="#000" d="m17.058825,26.503265c0.220988,-0.065359 0.602203,-0.162889 2.946498,0.130718c2.74663,0.343998 5.230033,0.457516 7.439905,0.457516c1.620572,0 2.80369,-0.031673 4.125095,0.065361c0.893089,0.065582 2.430861,0.392157 3.167486,0.392157c1.178597,0 1.62057,0 2.062546,0c0.368312,0 0.662961,0 0.883949,0c0.147324,0 0.368312,0 0.957609,0c0.147328,0 0.294653,0 0.515641,0c0.220984,0 0.368308,0 0.441972,0l0.073664,0" id="svg_6" fill-opacity="null" stroke-opacity="null" stroke-width="4" fill="none"/>
  <path stroke="#000" d="m0.849687,1.584649c0.064805,-0.046169 0.324023,-0.046169 0.712851,-0.046169c0.518437,0 1.166483,0 1.425701,0c0.129609,0 0.194414,0 0.324023,0c0.064805,0 0.194414,0 0.518437,0c0.388827,0 0.777655,0 1.425701,0c0.324023,0 0.644026,-0.023005 1.036874,-0.046169c0.322919,-0.01904 0.777655,-0.046169 1.101678,-0.046169c0.259218,0 0.453632,0 0.583241,0c0.259219,0 0.388828,0 0.907265,0c0.324023,0 0.715983,0.032018 1.036873,0c0.467226,-0.046619 0.648047,-0.092338 0.907265,-0.092338c0.259218,0 0.388828,-0.046169 0.712851,-0.046169c0.324022,0 0.648046,0 1.296091,0c0.259219,0 0.583241,0 0.907265,0c0.259218,0 0.453632,0 0.71285,0c0.324023,0 0.714155,0.026183 1.231288,0c0.457086,-0.023143 0.777654,-0.046169 1.296092,-0.046169c0.194413,0 0.388828,0 0.777655,0c0.58324,0 1.101679,0 1.620115,0c0.648045,0 1.231287,0 1.814528,0c0.712851,0 1.296093,0 1.620117,0c0.259217,0 0.518436,0 0.907264,0c0.518436,0 0.777655,0 1.166483,0c0.194413,0 0.453632,0 0.648047,0c0.324021,0 0.518436,0 1.101677,0c0.388828,0 0.712851,0 1.036874,0c0.324023,0 0.453632,0 0.777655,0c0.194415,0 0.518436,0 0.777655,0c0.259219,0 0.583242,0 0.972068,0c0.324023,0 0.583242,0 0.842461,0c0.324021,0 0.518436,0 0.712849,0c0.324023,0 0.648047,0 0.907264,0c0.129612,0 0.388829,0 0.712853,0c0.388826,0 0.907264,0 1.036872,0c0.259217,0 0.408562,-0.070672 0.648047,0c0.169342,0.049973 0.259217,0.092337 0.388826,0.092337c0.259221,0 0.518438,0 0.583244,0c0.064802,0 0.194411,0 0.388826,0c0.194415,0 0.453632,0 0.58324,0c0.194415,0 0.247798,0.02245 0.388829,0.046169c0.189214,0.031823 0.259217,0 0.324023,0c0.129609,0 0.259217,0 0.453632,0c0.129609,0 0.208769,-0.008339 0.259217,0.046169c0.192108,0.207565 0.186725,0.462851 0.259221,0.692531c0.058618,0.185721 0.064802,0.415519 0.064802,0.554025c0,0.138506 0,0.323181 0,0.461687c0,0.092338 0.096317,0.176538 0.129609,0.277013c0.014887,0.044934 0,0.184675 0,0.277012c0,0.184675 -0.064802,0.277012 -0.064802,0.36935c0,0.092337 -0.064806,0.138506 -0.064806,0.323181c0,0.138506 -0.064802,0.277012 -0.064802,0.415519c0,0.277012 -0.110455,0.416193 -0.129612,0.554025c-0.032558,0.234269 -0.064802,0.415519 -0.064802,0.600194c0,0.092338 0,0.277012 0,0.461687c0,0.184675 0,0.277012 0,0.507856c0,0.138506 0,0.230844 0,0.461687c0,0.184675 0,0.277012 0,0.507856c0,0.138506 0.064802,0.323181 0.064802,0.36935c0,0.092337 0.031514,0.268875 0.064806,0.369349c0.059556,0.179735 0,0.323181 0,0.415519c0,0.092338 0,0.230844 0,0.36935c0,0.092338 0,0.277012 0,0.554025c0,0.184675 0,0.323181 0,0.784869c0,0.138506 0.173495,0.684005 0.259217,0.969543c0.136216,0.453728 0.129612,0.600193 0.129612,0.784869c0,0.046169 0,0.184675 0,0.230844c0,0.184674 0,0.277012 0,0.369349c0,0.046169 0,0.138507 0,0.323181c0,0.138507 0,0.230844 0,0.277012c0,0.092338 0,0.138507 0,0.323181l0,0.230844" id="svg_15" fill-opacity="null" stroke-opacity="null" stroke-width="2.5" fill="none"/>
  <path stroke="#000" d="m15.620917,38.856198c-0.086532,0 -0.562462,0 -1.211457,0c-0.692262,0 -1.29799,-0.064453 -1.600855,-0.064453c-0.346132,0 -0.60573,0 -0.908594,0c-0.216332,0 -0.389396,0 -0.519196,0c-0.302864,0 -0.605728,0 -0.995126,0c-0.389397,0 -0.692261,0 -0.951859,0c-0.34613,0 -0.562462,0 -0.778794,0c-0.302864,0 -0.605728,0 -0.865326,0c-0.173066,0 -0.302865,0 -0.519196,0c-0.216332,0 -0.389397,0 -0.648995,0c-0.216332,0 -0.343447,-0.032118 -0.605729,-0.064453c-0.215595,-0.02658 -0.47593,0 -0.778794,0c-0.216332,0 -0.47593,0 -0.692262,0c-0.216332,0 -0.302864,0 -0.519196,0c-0.302865,0 -0.519196,0 -0.735528,0c-0.129799,0 -0.302864,0 -0.47593,0c-0.043266,0 -0.174627,0.024376 -0.259598,0c-0.228792,-0.065634 -0.259598,-0.128903 -0.389397,-0.128903c-0.173065,0 -0.302864,0 -0.47593,0c-0.216332,0 -0.389397,0 -0.47593,0c-0.129799,0 -0.226212,0.073993 -0.346131,0c-0.056529,-0.034879 -0.106384,-0.044693 -0.129799,-0.128903c-0.082785,-0.297728 0,-0.515615 0,-0.580064c0,-0.064453 0,-0.257809 0,-0.386712c0,-0.193352 0,-0.257805 0,-0.451161c0,-0.128903 -0.041327,-0.357649 -0.086533,-0.580064c-0.012538,-0.061688 0,-0.128903 0,-0.257805c0,-0.193356 0,-0.322259 0,-0.644517c0,-0.128903 0.02135,-0.249981 0.043266,-0.451161c0.034653,-0.318098 0.043266,-0.451161 0.043266,-0.644517c0,-0.064453 -0.013861,-0.323921 0,-0.451161c0.021916,-0.201184 0.062667,-0.503088 0.129799,-0.77342c0.061892,-0.249232 0.043266,-0.515615 0.043266,-0.77342c0,-0.386712 0,-0.580064 0,-0.70897c0,-0.322257 0,-0.580064 0,-0.708967c0,-0.257807 0,-0.451161 0,-0.77342c0,-0.193354 -0.010754,-0.516111 0,-0.77342c0.021675,-0.518622 0.048412,-0.722851 0.129799,-1.095679c0.029918,-0.137054 0.043266,-0.38671 0.043266,-0.580064c0,-0.322259 0.043266,-0.580066 0.043266,-0.644517c0,-0.257807 0.021579,-0.512178 0.043266,-0.966774c0.02147,-0.450027 0,-0.580066 0,-0.837871c0,-0.580066 0,-0.966776 0,-1.289035c0,-0.257805 0,-0.451161 0,-0.708969c0,-0.322257 0.041583,-0.585058 0,-0.966774c-0.043832,-0.402364 -0.058811,-0.583395 -0.086533,-0.837871c-0.021916,-0.201184 -0.043266,-0.451161 -0.043266,-0.708969c0,-0.257807 0,-0.580066 0,-0.77342c0,-0.257807 0,-0.644517 0,-0.966776c0,-0.451161 0,-0.77342 0,-1.095677c0,-0.128905 -0.02135,-0.185528 -0.043266,-0.38671c-0.020792,-0.19086 0.017053,-0.387965 0,-0.644517c-0.021739,-0.327042 -0.043266,-0.708969 -0.043266,-0.902323c0,-0.708969 0,-1.031227 0,-1.353486c0,-0.128903 0,-0.257806 0,-0.451161c0,-0.322259 0,-0.644516 0,-1.289034c0,-0.193354 0,-0.451161 0,-0.580065c0,-0.38671 0,-0.708968 0,-1.031226c0,-0.322258 0.027407,-0.581513 0.043266,-0.77342c0.021796,-0.26375 0.108111,-0.641083 0.129799,-1.095678c0.015336,-0.321448 0.064617,-0.701141 0.086533,-0.902324c0.013861,-0.127239 0,-0.38671 0,-0.580065c0,-0.064451 0.082353,-0.323348 0.129799,-0.708969c0.039773,-0.323255 0.129377,-0.566546 0.173065,-1.031226c0.018003,-0.191486 0,-0.322258 0,-0.580065c0,-0.257807 0,-0.38671 0,-0.644517c0,-0.322258 0.019881,-0.454609 0,-0.580064c-0.022228,-0.140263 -0.05763,-0.530396 -0.129799,-0.77342c-0.06311,-0.212518 -0.106383,-0.238048 -0.129799,-0.322258c-0.016557,-0.059546 -0.043266,-0.257807 -0.043266,-0.322258c0,-0.193355 -0.029964,-0.269795 -0.086533,-0.38671c-0.035777,-0.073943 -0.043266,-0.128903 -0.043266,-0.193355c0,-0.128903 -0.043266,-0.322258 -0.043266,-0.38671c0,-0.064452 0,-0.193355 0,-0.257807l0,-0.064452l0,-0.064452" id="svg_16" fill-opacity="null" stroke-opacity="null" stroke-width="2.5" fill="none"/>
  <path d="m14.575167,38.5294c0.06536,-0.065361 0.06536,-0.130718 0.06536,-0.196079c0,-0.065357 -0.031782,-0.249916 -0.06536,-0.392155c-0.045051,-0.190834 -0.130718,-0.392159 -0.130718,-0.588234c0,-0.26144 -0.065359,-0.326797 -0.065359,-0.392159c0,-0.196079 -0.03252,-0.321949 -0.06536,-0.653595c-0.025762,-0.260162 -0.032252,-0.514938 -0.065359,-0.718952c-0.041879,-0.258064 -0.130719,-0.457516 -0.130719,-0.653595c0,-0.261436 0,-0.588234 0,-0.849674c0,-0.130718 0,-0.326797 0,-0.588234c0,-0.196079 0,-0.392155 0,-0.457516c0,-0.196079 -0.039757,-0.404392 0.06536,-0.849674c0.033578,-0.142239 0.052479,-0.392792 0.065359,-0.522873c0.03284,-0.331648 0.196078,-0.588236 0.196078,-0.849674c0,-0.261436 0,-0.457516 0,-0.784313c0,-0.326796 -0.015971,-0.523853 0,-0.653593c0.032927,-0.267466 0.065359,-0.326797 0.065359,-0.522877c0,-0.261436 0,-0.457516 0,-0.653593c0,-0.261438 0,-0.392157 0,-0.457516c0,-0.588236 0.052479,-0.850311 0.065359,-0.980392c0.03284,-0.331648 0.04518,-0.592926 0.130719,-0.915031c0.053049,-0.199762 0.097141,-0.380636 0.130719,-0.522875c0.045051,-0.190834 -0.057587,-0.602314 0.065359,-0.980392c0.045196,-0.138985 0.087987,-0.372906 0.196078,-0.522875c0.085455,-0.118563 0.025431,-0.263887 0.06536,-0.588236c0.032927,-0.267464 0.097611,-0.580296 0.130718,-0.784313c0.031407,-0.193546 0.196078,-0.522875 0.261438,-0.784313c0.065359,-0.261436 0.065359,-0.392157 0.196077,-0.588234c0.130719,-0.196079 0.208515,-0.319054 0.326797,-0.522877c0.146709,-0.25281 0.208765,-0.515591 0.392157,-0.849672c0.070328,-0.128115 0.113049,-0.341753 0.392157,-0.653593c0.061646,-0.068874 0.261436,-0.326797 0.457516,-0.522877c0.196079,-0.196079 0.425688,-0.36562 0.522877,-0.522875c0.108662,-0.175817 0.261436,-0.326797 0.522875,-0.588236c0.130718,-0.130718 0.600391,-0.43742 0.718954,-0.522875c0.224955,-0.162136 0.469673,-0.306704 0.588234,-0.392157c0.224955,-0.162138 0.515131,-0.404593 0.718954,-0.522875c0.379215,-0.220066 0.515131,-0.273874 0.718954,-0.392157c0.25281,-0.14671 0.576714,-0.29322 0.718954,-0.326797c0.127222,-0.030032 0.27013,-0.102582 0.522875,-0.196078c0.548281,-0.202822 0.841928,-0.339232 1.045752,-0.457516c0.25281,-0.146711 0.517668,-0.207056 0.784313,-0.326797c0.321081,-0.144187 0.515121,-0.280621 0.980391,-0.457516c0.193193,-0.073452 0.462643,-0.051624 0.653595,-0.130719c0.135023,-0.055928 0.383547,-0.084222 0.653593,-0.196078c0.190952,-0.079095 0.388102,-0.163287 0.784313,-0.196078c0.325684,-0.026955 0.588236,0 0.980392,0c0.522875,0 1.045752,0 1.568626,0c0.457516,0 0.784313,0 1.045752,0c0.392155,0 0.849672,0 1.307186,0c0.588238,0 1.699348,0 2.287582,0c0.392155,0 0.84967,0 1.176468,0c0.326797,0 0.457516,0 0.653595,0c0.130718,0 0.392159,0 0.980392,0c0.392155,0 0.522877,0 0.718952,0c0.130718,0 0.392159,0 0.653595,0c0.130718,0 0.266411,0.025013 0.326797,0c0.170792,-0.070745 0.261436,-0.130719 0.326797,-0.130719l0.065361,0" id="svg_17" fill-opacity="null" stroke-opacity="null" stroke-width="2.5" stroke="#000" fill="none"/>
 </g>
</svg>