<svg width="40" height="40" xmlns="http://www.w3.org/2000/svg">
    <!-- Created with Method Draw - http://github.com/duopixel/Method-Draw/ -->
    <g>
        <title>background</title>
        <rect fill="none" id="canvas_background" height="42" width="42" y="-1" x="-1"/>
        <g display="none" overflow="visible" y="0" x="0" height="100%" width="100%" id="canvasGrid">
            <rect fill="url(#gridpattern)" stroke-width="0" y="0" x="0" height="100%" width="100%"/>
        </g>
    </g>
    <g>
        <title>Layer 1</title>
        <path d="m2.245989,11.283422c0.106952,0 0.204041,-0.053072 0.641711,-0.106952c0.212301,-0.026135 0.540283,0.068527 0.962567,0c0.333844,-0.054175 0.855615,-0.106952 1.390374,-0.106952c0.855615,0 1.604278,0 2.139038,0c0.320856,0 0.534759,0 0.855615,0c0.427807,0 0.641711,0 1.818182,0c1.283422,0 2.8877,0 3.743315,0c0.962567,0 1.818182,0 2.352942,0c0.53476,0 1.818182,0 2.887701,0c0.855614,0 1.818182,0 2.352942,0c0.534758,0 0.962566,0 1.390373,0c0.53476,0 1.176472,0 2.139038,0c1.17647,0 2.352942,0 3.529411,0c0.427807,0 0.855616,0 1.069519,0c0.748663,0 1.604279,0 2.566843,0c0.641712,0 1.069519,0 1.176472,0c0.213905,0 0.320854,0 0.427807,0c0.320858,0 0.53476,0 0.641712,0c0.213905,0 0.53476,0 0.855614,0c0.53476,0 0.96257,0 1.283424,0c0.320854,0 0.430668,0.024573 0.53476,0c0.232754,-0.054946 0.326576,-0.057806 0.53476,-0.106952c0.232754,-0.054946 0.340748,-0.07407 0.53476,-0.213904c0.122704,-0.088439 0.106953,-0.213903 0.106953,-0.320855c0,-0.213904 0,-0.320856 0,-0.427808c0,-0.106952 0.013084,-0.327915 -0.106953,-0.53476c-0.193554,-0.333527 -0.373634,-0.521771 -0.427807,-0.855615c-0.017132,-0.105571 -0.082378,-0.216764 -0.106953,-0.320856c-0.109894,-0.465508 -0.271713,-0.540481 -0.320858,-0.748663c-0.054943,-0.232753 -0.213902,-0.320856 -0.320854,-0.427807c-0.106953,-0.106952 -0.181118,-0.262974 -0.320854,-0.320856c-0.19762,-0.081859 -0.748665,-0.106952 -1.069519,-0.106952c-0.53476,0 -1.069519,0 -1.604279,0c-0.320858,0 -0.53476,0 -0.962566,0c-0.427807,0 -0.855618,0 -1.069519,0c-0.320856,0 -0.855616,0 -0.962568,0c-0.427807,0 -1.069517,0 -1.81818,0c-0.748665,0 -1.604279,0 -2.459894,0c-0.53476,0 -0.748663,0 -0.962566,0c-0.213903,0 -1.283422,0 -2.139038,0c-0.320856,0 -0.855614,0 -1.283422,0c-0.427807,0 -0.855614,0 -1.497326,0c-0.106951,0 -0.213903,0 -0.427807,0c-0.106953,0 -0.641712,0 -1.069519,0c-0.641712,0 -1.390375,0 -2.245989,0c-0.427809,0 -0.962568,0 -1.069519,0c-0.213904,0 -0.427808,0 -0.53476,0c-0.213903,0 -0.641711,0 -1.069519,0c-0.106952,0 -0.53476,0 -0.962566,0c-0.213904,0 -0.641711,0.213903 -1.069519,0.213903c-0.213903,0 -0.641711,0.106952 -1.176471,0.106952c-0.641711,0 -1.069518,0 -1.176471,0c-0.106952,0 -0.213903,0.106952 -0.320855,0.106952c-0.106952,0 -0.314221,0.053293 -0.962567,0.106952c-0.213175,0.017643 -0.754385,-0.049145 -0.962566,0c-0.465508,0.109892 -0.748663,0.320856 -0.855615,0.320856c-0.106952,0 -0.213903,0 -0.534759,0c-0.106952,0 -0.539567,0.028546 -1.176471,0.106952c-0.43767,0.05388 -1.069519,0.320856 -1.176471,0.320856c-0.106952,0 -0.216765,-0.024572 -0.320856,0c-0.232754,0.054946 -0.447701,0.074069 -0.641711,0.213903c-0.122703,0.088439 -0.427808,0.427808 -0.53476,0.53476c-0.106952,0.106952 -0.312043,0.255281 -0.427807,0.53476c-0.081857,0.197621 -0.082724,0.278507 -0.106952,0.427807c-0.038308,0.236064 0.106952,0.320856 0.213904,0.427808l0.106952,0.106952l0,0.106953"
              id="svg_12" stroke-width="2.5" stroke="#000" fill="none"/>
        <path d="m15.294118,6.149733c0.106952,-0.106952 0.125464,-0.198153 0.213903,-0.320856c0.139834,-0.19401 0.320855,-0.534759 0.427808,-0.641711c0.213903,-0.213903 0.299145,-0.348289 0.427807,-0.427807c0.287701,-0.177809 0.427807,-0.106952 0.53476,-0.213904c0.106953,-0.106952 0.230186,-0.132047 0.427807,-0.213904c0.13974,-0.057882 0.195055,-0.158957 0.427809,-0.213903c0.10409,-0.024572 0.740726,-0.267118 1.283422,-0.320856c0.212862,-0.021077 0.44409,0.081857 0.64171,0c0.13974,-0.057882 0.320856,-0.106952 0.427809,-0.106952c0.106951,0 0.213903,0 0.53476,0c0.213903,0 0.427807,0 0.534758,0c0.106953,0 0.213905,0 0.427809,0c0.213903,0 0.320854,0 0.64171,0c0.213903,0 0.53476,0 0.641712,0c0.106951,0 0.320854,0 0.427807,0c0.106953,0 0.328997,0.172976 0.427807,0.213904c0.13974,0.057882 0.288069,0.262974 0.427809,0.320856c0.09881,0.040928 0.148329,0.09814 0.427807,0.213904c0.19762,0.081857 0.323717,0.082379 0.427807,0.106952c0.232756,0.054946 0.369926,0.181116 0.427809,0.320856c0.04093,0.098811 0,0.213904 0.106951,0.320856l0.106953,0.320856l0,0.106952"
              id="svg_13" stroke-width="2.5" stroke="#000" fill="none"/>
        <path d="m4.278075,13.315508c0.106952,0.106952 0.213904,0.213903 0.427808,0.213903c0.106952,0 0.540548,0.060677 0.855615,0c0.565561,-0.108917 1.059657,-0.266975 1.497326,-0.320855c0.530753,-0.065338 0.855615,0 1.497326,0c0.427808,0 0.962567,0 1.71123,0c0.641711,0 1.166609,-0.053072 1.604278,-0.106952c0.424603,-0.052271 0.641711,0 0.855616,0c0.213903,0 0.53476,0 1.176471,0c0.748663,0 1.711229,0 2.352942,0c0.320854,0 0.748663,0 0.855614,0c0.213903,0 0.748663,0 1.176472,0c0.855614,0 1.497326,0 2.139036,0c0.427809,0 0.641712,0 1.390375,0c0.748663,0 1.283422,0 1.925133,0c0.855616,0 1.390375,0 2.139038,0c0.748663,0 0.962566,0 1.283422,0c0.213903,0 0.641712,0 0.855616,0c0.748663,0 1.497326,0 2.032085,0c0.427807,0 0.53476,0 0.64171,0c0.213903,0 0.320856,0 0.748663,0c0.64171,0 1.390375,0 1.818182,0c0.106953,0 0.320854,0 0.427807,0c0.106953,0 0.213905,0 0.427807,0c0.106953,0 0.213905,0 0.320858,0c0.748661,0 0.855614,0 0.962566,0c0.106953,0 0.213905,0.106952 0.213905,0.213903c0,0.106952 0,0.427808 0,0.641711c0,0.106952 0,0.320856 0,0.427808c0,0.53476 0,1.176471 0,1.604278c0,0.53476 0,0.748664 0,1.497327c0,0.320856 0,0.855614 0,1.283422c0,0.427807 0,0.855614 0,1.069519c0,0.106951 0,0.427807 0,0.64171c0,0.427807 0,0.748663 0,1.390375c0,0.427807 0,0.962566 0,1.17647c0,0.427807 0,0.855616 0,1.069519c0,0.64171 0,1.069519 0,1.604279c0,0.53476 0,0.962566 0,1.390373c0,0.320856 0,0.641712 0,0.748663c0,0.748663 0,1.069519 0,1.497326c0,0.427809 0,0.641712 0,1.069519c0,0.320856 0,0.53476 0,0.748663c0,0.213905 0,0.427809 0,0.855616c0,0.213905 0,0.53476 0,1.176472c0,0.53476 0,1.176468 0,1.497326c0,0.106953 0,0.213902 0,0.427807c0,0.106953 0,0.213905 0,0.320854c0,0.320858 0,0.53476 0,0.748665c0,0.213902 0,0.320854 0,0.641712c0,0.106949 0.022476,0.22229 -0.106953,0.53476c-0.091518,0.220947 -0.233799,0.181019 -0.427807,0.320854c-0.245407,0.17688 -0.427811,0.213905 -0.53476,0.213905c-0.320858,0 -0.748665,0 -1.283424,0c-0.641712,0 -1.176472,0 -1.711229,0c-0.427807,0 -1.17647,0 -1.604279,0c-0.213903,0 -0.430569,-0.034264 -0.64171,0c-0.333843,0.054173 -0.855616,0.106949 -1.176472,0.106949c-0.320854,0 -0.855614,0 -1.283422,0c-0.53476,0 -1.390373,0 -1.711229,0c-0.427807,0 -0.537521,-0.034264 -0.748663,0c-0.333845,0.054176 -0.855616,0.106953 -1.069519,0.106953c-0.427807,0 -1.069519,0 -1.604279,0c-0.748663,0 -1.069517,0 -1.283422,0c-0.106951,0 -0.215466,-0.031616 -0.53476,0c-0.542696,0.053738 -0.880037,-0.015835 -1.17647,0.106953c-0.27948,0.115765 -0.64171,0.213905 -1.17647,0.213905c-0.748665,0 -1.497328,0 -1.711231,0c-0.213903,0 -0.421172,0.053291 -1.069518,0.106949c-0.426351,0.035286 -0.748663,0 -0.855615,0c-0.427808,0 -0.748664,0 -1.176471,0c-0.427808,0 -0.53476,0 -0.641711,0c-0.53476,0 -1.069519,0 -1.604279,0c-0.213903,0 -0.320855,0 -0.427807,0c-0.427808,0 -0.641711,0 -0.855616,0c-0.106952,0 -0.213903,0 -0.320855,0c-0.213904,0 -0.320856,0 -0.427808,0c-0.320855,0 -0.536217,0.035286 -0.962567,0c-0.648346,-0.053658 -0.781819,-0.036091 -1.069519,-0.213902c-0.128664,-0.079517 -0.122385,-0.313812 -0.213904,-0.53476c-0.129429,-0.312469 -0.26591,-0.729813 -0.320856,-0.962566c-0.098291,-0.416367 -0.053072,-0.631851 -0.106952,-1.069519c-0.065339,-0.530754 -0.106952,-0.855618 -0.106952,-1.176472c0,-0.427807 -0.033234,-0.864197 -0.106952,-1.176472c-0.109891,-0.465508 -0.222539,-0.960911 -0.320856,-1.497326c-0.117284,-0.639902 -0.160166,-1.061581 -0.213903,-1.604277c-0.052694,-0.532158 -0.148565,-1.073526 -0.213904,-1.604279c-0.05388,-0.43767 -0.160024,-0.952703 -0.213904,-1.390375c-0.039203,-0.318451 0,-0.64171 0,-1.069517c0,-0.641712 -0.106952,-0.855616 -0.106952,-1.390375c0,-0.320856 0.060676,-0.754452 0,-1.069519c-0.108917,-0.565561 -0.148565,-1.073526 -0.213904,-1.604279c-0.05388,-0.43767 -0.106952,-0.962566 -0.106952,-1.283422c0,-0.320854 0,-0.748663 0,-1.283422c0,-0.106951 0,-0.534758 0,-0.962566c0,-0.427807 0,-0.64171 0,-1.069519c0,-0.106951 0,-0.427807 0,-0.53476c0,-0.427807 0,-0.64171 0,-0.748663c0,-0.320855 0,-0.534759 0,-0.748662c0,-0.106953 0.04907,-0.181117 0.106952,-0.320856c0.081857,-0.197621 -0.040929,-0.328997 0,-0.427808c0.057882,-0.139739 0.106952,-0.320855 0.106952,-0.427807l0.106952,-0.213904l0,-0.213903"
              id="svg_14" stroke-width="2.5" stroke="#000" fill="none"/>
    </g>
</svg>