<svg width="40" height="40" xmlns="http://www.w3.org/2000/svg">
    <g>
        <title>Layer 1</title>
        <path stroke="#000"
              data-ignore="true"
              d="m0.970184,2.154879c0,0.149254 0.153432,0.149254 0.61373,0.149254c0.460298,0 1.217942,0.074372 2.148056,0.149253c0.917459,0.073863 1.380893,0 1.534326,0c0.153432,0 0.615139,0.099731 1.534326,0.149253c1.387265,0.074741 2.761786,0.298507 3.835814,0.298507c0.920596,0 2.148056,0 2.915219,0c1.074028,0 1.841191,0.149253 3.222084,0.149253c0.920596,0 2.148852,0.112037 3.068651,0.149253c1.845978,0.074691 3.222084,0.149254 4.602977,0.149254c1.227462,0 2.916324,-0.047343 3.989247,0c1.692978,0.074703 3.837165,0.27996 6.137304,0.44776c1.842399,0.134407 3.222084,0.149254 3.989245,0.149254l0.306866,0l0.306866,0l0.153433,0"
              id="svg_2" stroke-width="4" fill="none"/>
        <path stroke="#000"
              data-ignore="true"
              transform="rotate(-8.074921607971191 20.66280364990248,36.27165222167968) "
              d="m1.562799,35.376131c0,0.14925 0.152807,0.14925 0.611206,0.14925c0.4584,0 1.212922,0.07437 2.139202,0.14926c0.913677,0.07386 1.375199,0 1.527995,0c0.152796,0 0.612609,0.09973 1.528006,0.14925c1.381546,0.07474 2.750398,0.29851 3.819994,0.29851c0.916799,0 2.139202,0 2.903205,0c1.069596,0 1.833599,0.14925 3.208798,0.14925c0.916799,0 2.13999,0.11204 3.056001,0.14925c1.838369,0.07469 3.208798,0.14926 4.584007,0.14926c1.222392,0 2.9043,-0.04735 3.972801,0c1.685993,0.0747 3.821345,0.27996 6.112002,0.44776c1.834796,0.1344 3.208798,0.14925 3.97279,0.14925l0.305603,0l0.305603,0l0.152796,0"
              id="svg_3" stroke-width="4" fill="none"/>
        <path stroke="#000"
              data-ignore="true"
              transform="rotate(-91.76034545898438 1.8772964477539043,19.547132492065426) "
              d="m-17.15693,18.651613c0,0.14925 0.15228,0.14925 0.609101,0.14925c0.456821,0 1.208745,0.07437 2.131835,0.14926c0.91053,0.07386 1.370463,0 1.522733,0c0.15227,0 0.610499,0.09973 1.522743,0.14925c1.376788,0.07474 2.740926,0.29851 3.806838,0.29851c0.913642,0 2.131835,0 2.893206,0c1.065912,0 1.827284,0.14925 3.197747,0.14925c0.913642,0 2.13262,0.11204 3.045477,0.14925c1.832038,0.07469 3.197747,0.14926 4.56822,0.14926c1.218182,0 2.894298,-0.04735 3.959119,0c1.680186,0.0747 3.808185,0.27996 6.090953,0.44776c1.828478,0.1344 3.197747,0.14925 3.959108,0.14925l0.304551,0l0.304551,0l0.15227,0"
              id="svg_4" stroke-width="4" fill="none"/>
        <path stroke="#000"
              data-ignore="true"
              transform="rotate(-92.56716918945312 37.47424316406249,19.54713439941406) "
              d="m18.600666,19.019987c0,0.087856 0.150995,0.087856 0.603959,0.087856c0.452965,0 1.198548,0.043778 2.113848,0.087862c0.902845,0.043478 1.358894,0 1.509878,0c0.150985,0 0.605347,0.058706 1.509888,0.087856c1.36517,0.043996 2.717797,0.175718 3.774711,0.175718c0.905929,0 2.113848,0 2.868792,0c1.056914,0 1.811858,0.087856 3.170752,0.087856c0.905939,0 2.114621,0.065952 3.019777,0.087856c1.816578,0.043966 3.170762,0.087862 4.529665,0.087862c1.207899,0 2.869873,-0.027873 3.925706,0c1.666009,0.043972 3.77604,0.164798 6.039543,0.263574c1.813048,0.079114 3.170762,0.087856 3.925696,0.087856l0.30198,0l0.30198,0l0.150985,0"
              id="svg_5" stroke-width="4" fill="none"/>
        <path stroke="#000"
              d="m2.313466,12.602623c0.114893,0 0.123639,0.122567 0.229786,0.198547c0.30023,0.214907 0.480943,0.5346 0.689358,0.794193c0.131813,0.164181 0.353425,0.519662 0.459572,0.595644c0.30023,0.214907 0.468317,0.519664 0.574465,0.595646c0.450344,0.322359 0.595835,0.73315 0.804251,0.992741c0.131813,0.164178 0.506225,0.633622 0.804251,0.992741c0.603456,0.727159 0.672438,1.225657 0.804251,1.389836c0.208415,0.259591 0.459572,0.397097 0.804251,0.992741c0.344679,0.595646 0.825622,1.130245 1.034036,1.389838c0.131813,0.164181 0.344679,0.595644 0.574465,0.992741c0.344678,0.595644 0.704827,1.153854 1.034037,1.588387c0.288736,0.38111 0.483892,0.538884 0.804251,0.992741c0.25131,0.356034 0.493695,0.916069 0.804251,1.389836c0.192599,0.293819 0.459572,0.397097 0.689357,0.794192c0.229786,0.397097 0.36217,0.642233 0.574465,0.794195c0.450344,0.322359 0.638598,1.095844 1.034037,1.588384c0.416829,0.519185 0.583691,1.067477 1.034036,1.389838c0.106147,0.075982 0.159343,0.380737 0.459572,0.595644c0.106147,0.075982 0.219024,0.219081 0.34468,0.397097c0.320358,0.453857 0.519335,0.659908 0.689358,0.992741c0.274152,0.536674 0.459572,0.595644 0.574465,0.794192c0.114893,0.198549 0.239013,0.670382 0.689357,0.992741c0.106147,0.075982 0.114893,0.198549 0.229786,0.198549l0.229786,0.198549"
              id="svg_8" fill-opacity="null" stroke-opacity="null" stroke-width="6" fill="none"/>
        <path transform="rotate(-178.64268493652344 28.805957794189453,17.751871109008786) " stroke="#000"
              d="m40.074595,-0.083922c-0.229967,0 -0.140425,0.187119 -0.45994,0.645639c-0.364303,0.522794 -0.803629,1.087863 -1.609807,2.259738c-1.076968,1.565503 -2.118332,3.93744 -4.139501,6.617805c-2.748982,3.645552 -4.493321,6.903529 -6.209251,9.846003c-1.48859,2.552633 -2.808338,4.433473 -3.909526,6.456395c-0.935829,1.719154 -2.173465,3.674617 -3.449583,5.487935c-1.003061,1.425314 -1.609807,2.25974 -1.839779,2.743968c-0.229973,0.484231 -0.459946,0.968458 -0.689915,1.291278l0,0.16141l-0.229973,0.16141"
              id="svg_24" fill-opacity="null" stroke-opacity="null" stroke-width="6" fill="none"/>
    </g>
</svg>