<svg width="40" height="40" xmlns="http://www.w3.org/2000/svg">
    <!-- Created with Method Draw - http://github.com/duopixel/Method-Draw/ -->
    <g>
        <title>background</title>
        <rect fill="none" id="canvas_background" height="42" width="42" y="-1" x="-1"/>
        <g display="none" overflow="visible" y="0" x="0" height="100%" width="100%" id="canvasGrid">
            <rect fill="url(#gridpattern)" stroke-width="0" y="0" x="0" height="100%" width="100%"/>
        </g>
    </g>
    <g>
        <title>Layer 1</title>
        <path d="m1.65854,1.80488c0.09756,0 0.19512,0 0.29268,0c0.19512,0 0.39024,0 0.58537,0c0.09756,0 0.18327,0.04814 0.4878,0.09756c0.2889,0.04688 0.68293,0 1.36585,0c0.29269,0 0.58537,0 0.78049,0c0.39025,0 0.78049,0 1.36586,0c0.39024,0 0.97561,0 1.56097,0c0.58537,0 0.78049,0 0.87805,0.09756c0.09756,0.09756 0.19512,0.09756 0.68293,0.09756c0.39024,0 0.97561,0 1.46341,0c0.68293,0 0.87805,0 0.97561,0c0.19512,0 0.29287,0.00606 0.39025,0c0.78504,-0.04887 1.17073,-0.19512 1.36585,-0.19512c0.09756,0 0.39024,0 0.4878,0c0.09756,0 0.68293,-0.09756 1.36586,-0.09756c0.4878,0 1.07317,0 1.65853,0c0.39025,0 0.4579,-0.14232 0.58537,-0.19512c0.2704,-0.11201 0.68293,0 1.26829,-0.09756c0.58537,-0.09757 0.97561,-0.09757 1.07317,-0.09757c0.39025,0 0.97561,0 1.85366,0c0.68293,0 1.46342,0 1.95122,0c0.58537,0 0.68293,0 0.87805,0c0.29268,0 0.78049,0 1.65854,0c0.58536,0 1.26829,0 1.75609,0c0.48781,0 0.97561,0 1.2683,0c0.29268,0 0.39097,0.01192 0.4878,0c0.39924,-0.04914 0.68293,-0.09756 0.78049,-0.09756c0.39024,0 0.87805,0 1.07317,0c0.09756,0 0.29687,0.02827 0.39024,0c0.33667,-0.10193 0.87805,-0.19512 1.56098,-0.19512c0.48781,0 0.87805,0 0.97561,0c0.09756,0 0.29268,0 0.39024,0c0.09756,0 0.19655,-0.02884 0.48781,0c0.49504,0.04902 0.71263,0.04578 1.07317,0.19512c0.12747,0.0528 0.29268,0.09756 0.39024,0.09756c0.09756,0 0.19512,0 0.39024,0c0.09757,0 0.29269,0 0.58537,0c0.09756,0 0.23989,-0.0299 0.29269,0.09757c0.07467,0.18026 0,0.29268 0,0.4878c0,0.09756 0,0.19512 0,0.29268c0,0.19512 0,0.29269 0,0.39025c0,0.09756 0,0.29268 0,0.4878c0,0.09756 0.02241,0.29529 0,0.39025c-0.05012,0.21231 -0.09756,0.39024 -0.09756,0.58536c0,0.29268 0,0.48781 0,0.78049c0,0.09756 -0.01563,0.19638 0,0.29268c0.04942,0.30453 0.06929,0.39443 0.09756,0.48781c0.10193,0.33666 0.19512,0.4878 0.19512,0.78048c0,0.09757 0.09756,0.58537 0.09756,0.97561c0,0.19513 0.04476,0.36034 0.09756,0.48781c0.03733,0.09013 0,0.39024 0,0.4878c0,0.19513 0,0.39025 0,0.48781c0,0.09756 0,0.19512 0,0.39024c0,0.09756 0,0.29269 0,0.58537c0,0.39024 0.01563,0.58662 0,0.68293c-0.04942,0.30453 -0.19512,0.39024 -0.19512,0.4878c0,0.19512 0,0.78049 0,0.97561c0,0.19512 0,0.29268 0,0.39024c0,0.29269 0.06724,0.49564 0,0.78049c-0.05012,0.21232 -0.09756,0.29269 -0.09756,0.78049c0,0.19512 0,0.4878 0,0.78049c0,0.19512 0,0.39024 0,0.58536c0,0.29269 0,0.58537 0,0.87805c0,0.19512 0,0.48781 0,0.87805c0,0.29268 0,0.58537 0,0.78049c0,0.29268 0,0.39024 0,0.4878c0,0.19513 0,0.39025 0,0.48781c0,0.39024 0,0.87805 0,1.36585c0,0.39025 0,0.58537 0,0.97561c0,0.39025 0,0.58537 0,0.97561c0,0.39025 0,0.58537 0,0.97561c0,0.39025 0,0.78049 0,0.97561c0,0.29268 0,0.58537 0,0.97561c0,0.29268 0,0.58537 0,0.87805c0,0.09756 0,0.39024 0,0.68293c0,0.4878 0,0.87805 0,1.17073c0,0.29268 0,0.4878 0,0.68292c0,0.39025 0,0.78049 0,0.97562c0,0.09756 0,0.39024 0,0.58536c0,0.29268 0.02425,0.48856 0,0.87805c-0.04888,0.78504 -0.09756,1.26829 -0.09756,1.85366c0,0.19512 0,0.4878 0,0.68293c0,0.19512 0,0.29268 0,0.39024c0,0.29268 0.03845,0.39214 0,0.78049c-0.04902,0.49504 -0.09756,0.68292 -0.09756,0.97561c0,0.09756 0,0.19512 0,0.29268c0,0.19512 0,0.29268 0,0.39024c0,0.09757 0,0.39025 0,0.58537c0,0.19512 0,0.29268 0,0.39024c0,0.09756 0,0.29269 0,0.39025c0,0.09756 0,0.19512 0,0.39024c0,0.09756 0.01719,0.24256 -0.19513,0.29268c-0.1899,0.04483 -0.4878,0 -0.58537,0c-0.09756,0 -0.29268,0 -0.39024,0c-0.19512,0 -0.39024,0 -0.58536,0c-0.09756,0 -0.48781,0 -0.87805,0c-0.39025,0 -0.58537,0 -0.87805,0c-0.19512,0 -0.68293,0 -0.97561,0c-0.19512,0 -0.48781,0 -0.87805,0c-0.39024,0 -0.68293,0 -0.87805,0c-0.29268,0 -0.39024,0 -0.68292,0c-0.29269,0 -0.58537,0 -0.68293,0c-0.19512,0 -0.39025,0 -0.87805,0c-0.4878,0 -0.58537,0 -0.68293,0c-0.39024,0 -0.4878,0 -1.17073,0c-0.29268,0 -0.58536,-0.19512 -0.78049,-0.19512c-0.4878,0 -0.87805,0 -1.17073,0c-0.09756,0 -0.29268,0 -0.58536,0c-0.58537,0 -0.69778,-0.07467 -0.87805,0c-0.12747,0.0528 -0.48781,0.09756 -0.97561,0.09756c-0.19512,0 -0.29269,0 -0.58537,0c-0.4878,0 -0.58537,0 -1.07317,0c-0.58536,0 -0.97561,0 -1.07317,0c-0.29268,0 -0.78049,0 -0.87805,0c-0.09756,0 -0.29268,0 -0.4878,0c-0.48781,0 -0.97561,0 -1.85366,0c-0.09756,0 -0.19512,0 -0.39025,0c-0.29268,0 -0.49041,-0.02241 -0.58536,0c-0.21232,0.05012 -0.39025,0.09756 -0.58537,0.09756c-0.4878,0 -1.07317,0 -1.36585,0c-0.39025,0 -0.87805,0 -1.36585,0c-0.48781,0 -0.68293,0 -0.78049,0c-0.19512,0 -0.39403,-0.04688 -0.68293,0c-0.30453,0.04942 -0.68293,0.09756 -0.78049,0.09756c-0.29268,0 -0.39024,0 -0.4878,0c-0.19512,0 -0.2583,0.09488 -0.68293,0.19513c-0.47475,0.11207 -0.58536,0 -0.78049,0c-0.39024,0 -0.68292,0 -0.78048,0c-0.48781,0 -0.68293,0 -1.07318,0c-0.29268,0 -0.39024,0 -0.4878,0c-0.29268,0 -0.39024,0 -0.48781,0c-0.29268,0 -0.58536,0.09756 -0.87804,0.09756c-0.09757,0 -0.19513,0 -0.39025,0c-0.09756,0 -0.78049,0 -0.97561,0c-0.19512,0 -0.58536,0 -0.87805,0c-0.29268,0 -0.39024,0 -0.58536,0c-0.29269,0 -0.48847,0.01609 -0.68293,0c-0.59142,-0.04895 -0.83329,-0.16522 -0.78049,-0.29269c0.07467,-0.18026 0,-0.29268 0,-0.4878c0,-0.29268 0,-0.68293 0,-0.78049c0,-0.09756 0,-0.39024 0,-0.58536c0,-0.09756 0,-0.29269 0,-0.39025c0,-0.19512 0,-0.4878 0,-0.58536c0,-0.29269 0,-0.39025 0,-0.58537c0,-0.19512 -0.09756,-0.4878 -0.09756,-0.68293c0,-0.19512 0,-0.4878 0,-0.68292c0,-0.29269 0,-0.39025 0,-0.48781c0,-0.39024 0,-0.58536 0,-0.87805c0,-0.19512 -0.04744,-0.47061 -0.09756,-0.68292c-0.08966,-0.37981 0,-0.68293 0,-1.07317c0,-0.29269 -0.00961,-0.58584 0,-0.68293c0.04902,-0.49505 0.09756,-0.68293 0.09756,-1.07317c0,-0.39025 0,-0.78049 0,-0.97561c0,-0.29268 0,-0.48781 0,-1.07317c0,-0.39025 0,-0.68293 0,-0.97561c0,-0.19512 0.04476,-0.26278 0.09756,-0.39025c0.03734,-0.09013 0,-0.39024 0,-0.58536c0,-0.39025 0.0079,-0.79093 0.09756,-1.17073c0.05012,-0.21232 0.09756,-0.29269 0.09756,-0.58537c0,-0.4878 0,-1.07317 0,-1.36585c0,-0.58537 0,-0.78049 0,-1.07317c0,-0.39025 0,-0.58537 0,-0.87805c0,-0.29268 0,-0.68293 0,-1.17073c0,-0.19513 0,-0.39025 0,-0.78049c0,-0.29268 0.03846,-0.68483 0,-1.07317c-0.04901,-0.49505 -0.09756,-0.87805 -0.09756,-1.07317c0,-0.39025 0,-0.78049 0,-1.2683c0,-0.29268 0,-0.68292 0,-1.07317c0,-0.39024 0,-0.58536 0,-0.68292c0,-0.19513 0,-0.48781 0,-0.78049c0,-0.19512 0.04102,-0.49618 0.09756,-0.68293c0.10194,-0.33667 0.19513,-0.68293 0.19513,-0.87805c0,-0.29268 0.09756,-0.58536 0.09756,-0.78048c0,-0.29269 0,-0.58537 0,-0.97562c0,-0.58536 0,-0.9756 0,-1.46341c0,-0.19512 0,-0.4878 0,-0.58537c0,-0.09756 0,-0.19512 0,-0.39024c0,-0.4878 0,-0.58536 0,-0.68293c0,-0.09756 0,-0.39024 0,-0.4878c0,-0.29268 0,-0.48781 0,-0.58537c0,-0.29268 -0.09756,-0.68292 -0.09756,-0.78048c0,-0.09757 0,-0.48781 0,-0.58537c0,-0.09756 -0.09756,-0.29268 -0.09756,-0.39024c0,-0.19513 0,-0.39025 0,-0.48781l-0.09757,-0.09756l0,-0.09756"
              id="svg_1" stroke-width="2.5" stroke="#000" fill="none"/>
        <path d="m5.365854,6c0.097561,0.097561 0.196382,0.113188 0.292683,0.097561c0.304532,-0.049418 0.585366,-0.097561 1.073171,-0.097561c0.487805,0 1.268293,0 1.756097,0c0.487805,0 1.170732,0 1.95122,0c0.585366,0 1.170732,0 1.365854,0c0.292683,0 0.682926,0 1.268292,0c0.585366,0 1.170732,0 1.365853,0c0.292684,0 0.487805,0 1.268293,0c0.585365,0 1.170731,-0.097561 1.658537,-0.097561c0.878048,0 1.170731,0 1.560974,0c0.87805,0 1.365854,0 1.756098,0c0.195122,0 0.487806,0 0.975611,0c0.585365,0 1.463415,0 2.04878,0c0.780487,0 0.878048,0 0.975609,0c0.097561,0 0.360336,-0.044761 0.487806,-0.097561c0.270403,-0.112005 0.780487,0 1.07317,0c0.292683,0 0.475956,-0.048142 0.780489,-0.097561c0.096302,-0.015627 0.195122,0 0.682926,0c0.682926,0 0.975609,0 1.268291,0l0.097563,0l0.097561,-0.097561"
              id="svg_2" stroke-width="2.5" stroke="#000" fill="none"/>
        <path d="m5.073171,10c0.097561,0.097561 0.177927,0.050121 0.390244,0c0.189902,-0.044829 0.586097,-0.085641 0.682927,-0.097561c0.39924,-0.049149 0.561669,-0.193846 1.170732,-0.292683c0.385204,-0.06251 0.878048,0 1.365854,0c0.585365,0 1.073171,0 1.756097,0c0.682927,0 1.170732,0 1.756098,0c0.487805,0 0.780488,0 1.170732,0c0.292684,0 0.682927,0 1.268293,0c0.682926,0 1.268292,0 1.951219,0c0.780489,0 1.365854,0 1.658537,0c0.292683,0 0.585365,0 1.170732,0c0.585365,0 1.365852,0 1.853659,0c0.390244,0 0.975609,0 1.560974,0c0.292685,0 0.585367,0 0.87805,0c0.195122,0 0.682926,0 1.853659,0c0.682926,0 1.463415,0.097561 1.756098,0.097561c0.292683,0 0.390244,0 0.487804,0c0.390244,0 0.878048,0 1.365854,0l0.487804,0l0.097561,0l0.195122,0"
              id="svg_3" stroke-width="2.5" stroke="#000" fill="none"/>
        <path transform="rotate(13.26384162902832 24.77780532836918,22.99257278442382) "
              d="m16.780487,24.146341c-0.097561,-0.097561 -0.195122,-0.097561 -0.292683,-0.097561c-0.195122,0 -0.292683,0 -0.487804,0.097561c-0.390244,0.195122 -0.52514,0.30011 -0.487804,0.390244c0.052799,0.12747 0.202548,0.134895 0.292683,0.097561c0.127469,-0.052799 0.195122,-0.292683 0.195122,-0.682926c0,-0.097561 0.014368,-0.373356 -0.097561,-0.292683c-0.176974,0.127556 0.202549,0.157787 0.292683,0.195122c0.12747,0.052799 0.209974,0.02289 0.390244,0.097561c0.12747,0.052799 0.222155,0.022243 0.585367,0.195122c0.440456,0.209644 0.893774,0.463062 1.365852,0.780487c0.404804,0.27219 0.585367,0.487806 0.682928,0.585367c0.390244,0.390244 1.004259,0.729101 1.560974,1.07317c0.414953,0.256454 0.505953,0.360249 0.682928,0.487806c0.223856,0.161348 0.399794,0.275555 0.585365,0.390244c0.414951,0.256454 0.959873,0.601999 1.268293,0.878048c0.465477,0.416622 0.676502,0.501881 0.878048,0.585365c0.28503,0.118065 0.471191,0.320261 0.780487,0.487806c0.653309,0.353895 0.810734,0.325609 1.073172,0.487804c0.352098,0.217607 0.467999,0.415268 0.585365,0.487804c0.262438,0.162195 0.555458,0.337444 0.682928,0.390244c0.090134,0.037334 0.196381,0.081934 0.292683,0.097561c0.304531,0.049419 0.360249,0.21327 0.487804,0.390245c0.080673,0.111929 0.195122,0.097561 0.292683,0.195122c0.097561,0.097561 0.239883,0.225031 0.292683,0.097561c0.037334,-0.090134 0,-0.292683 0,-0.390244c0,-0.195124 0.195122,-0.585367 0.292683,-0.87805c0.097563,-0.292683 0.049496,-0.58774 0.097563,-1.07317c0.049019,-0.495047 0.340122,-0.763294 0.390244,-0.975611c0.04483,-0.189901 0.105755,-0.483919 0.195122,-0.682926c0.215225,-0.479275 0.314928,-1.002644 0.487804,-1.365854c0.209644,-0.440456 0.554092,-0.836205 0.780487,-1.268293c0.429552,-0.819828 0.457684,-1.275297 0.585367,-1.756096c0.237558,-0.894539 0.390244,-1.170732 0.487804,-1.365854c0.292683,-0.585365 0.388451,-0.947514 0.487804,-1.463415c0.018448,-0.0958 0.008194,-0.386358 0.097561,-0.585365c0.215225,-0.479275 0.247192,-0.887474 0.390244,-1.463415c0.074368,-0.299417 0.242561,-0.47061 0.292683,-0.682926c0.04483,-0.189901 0.073719,-0.489265 0.097561,-0.682928c0.049149,-0.39924 0.094494,-0.625568 0.292683,-0.975609c0.067978,-0.120063 0.145,-0.275488 0.195122,-0.487805c0.022415,-0.094951 -0.094952,-0.172708 0,-0.195122c0.212322,-0.050121 0.195126,-0.195122 0.195126,-0.292683c0,-0.097561 0.014366,-0.40713 -0.097565,-0.487805c-0.176975,-0.127555 -0.30011,-0.134896 -0.390244,-0.097561c-0.127468,0.052799 -0.097561,0.195123 -0.097561,0.292684l0,0.097561l0,0.195122l0,0.097561"
              id="svg_8" stroke-width="6" stroke="#000" fill="none"/>
        <path d="m5.36585,13.609756c0.09756,0.09756 0.19639,0.11319 0.29269,0.09756c0.30453,-0.04942 0.58536,-0.09756 1.07317,-0.09756c0.4878,0 1.26829,0 1.75609,0c0.48781,0 1.17074,0 1.95122,0c0.58537,0 1.17074,0 1.36586,0c0.29268,0 0.68292,0 1.26829,0c0.58537,0 1.17073,0 1.36585,0c0.29269,0 0.48781,0 1.2683,0c0.58536,0 1.17073,-0.09756 1.65853,-0.09756c0.87805,0 1.17073,0 1.56098,0c0.87805,0 1.36585,0 1.7561,0c0.19512,0 0.4878,0 0.97561,0c0.58536,0 1.46341,0 2.04878,0c0.78048,0 0.87805,0 0.97561,0c0.09756,0 0.36033,-0.04476 0.4878,-0.09756c0.27041,-0.11201 0.78049,0 1.07317,0c0.29268,0 0.47596,-0.04814 0.78049,-0.09756c0.0963,-0.01563 0.19512,0 0.68293,0c0.68292,0 0.97561,0 1.26829,0l0.09756,0l0.09756,-0.09756"
              id="svg_9" stroke-width="2.5" stroke="#000" fill="none"/>
        <path d="m5.07317,17.609756c0.09756,0.09756 0.17793,0.05012 0.39024,0c0.18991,-0.04483 0.5861,-0.08564 0.68293,-0.09756c0.39924,-0.04915 0.56167,-0.19385 1.17073,-0.29268c0.38521,-0.06251 0.87805,0 1.36586,0c0.58536,0 1.07317,0 1.75609,0c0.68293,0 1.17074,0 1.7561,0c0.48781,0 0.78049,0 1.17073,0c0.29269,0 0.68293,0 1.2683,0c0.68292,0 1.26829,0 1.95122,0c0.78048,0 1.36585,0 1.65853,0c0.29268,0 0.58537,0 1.17073,0c0.58537,0 1.36586,0 1.85366,0c0.39025,0 0.97561,0 1.56098,0c0.29268,0 0.58536,0 0.87805,0c0.19512,0 0.68292,0 1.85366,0c0.68292,0 1.46341,0.09756 1.75609,0.09756c0.29269,0 0.39025,0 0.48781,0c0.39024,0 0.87805,0 1.36585,0l0.48781,0l0.09756,0l0.19512,0"
              id="svg_10" stroke-width="2.5" stroke="#000" fill="none"/>
        <path stroke="#000"
              d="m5.463411,21.804882c0.021591,0.09756 0.043463,0.11319 0.064776,0.09756c0.067396,-0.04942 0.129547,-0.09756 0.237505,-0.09756c0.107956,0 0.280687,0 0.388643,0c0.107958,0 0.259098,0 0.431828,0c0.129549,0 0.259098,0 0.302281,0c0.064773,0 0.151138,0 0.280687,0c0.129549,0 0.259096,0 0.302278,0c0.064776,0 0.107958,0 0.280689,0c0.129547,0 0.259096,-0.09756 0.367052,-0.09756c0.194323,0 0.259096,0 0.345463,0c0.194323,0 0.302278,0 0.388645,0c0.043182,0 0.107956,0 0.215914,0c0.129547,0 0.32387,0 0.453419,0c0.172729,0 0.194323,0 0.215914,0c0.021591,0 0.079745,-0.04476 0.107956,-0.09756c0.059845,-0.11201 0.172731,0 0.237505,0c0.064773,0 0.105335,-0.04814 0.172731,-0.09756c0.021312,-0.01563 0.043182,0 0.15114,0c0.151138,0 0.215914,0 0.280687,0l0.021591,0l0.021591,-0.09756"
              id="svg_11" stroke-width="2.5" fill="none"/>
        <path stroke="#000"
              d="m5.268292,25.804882c0.024868,0.09756 0.045355,0.05012 0.099473,0c0.048408,-0.04483 0.149398,-0.08564 0.17408,-0.09756c0.101767,-0.04915 0.143171,-0.19385 0.298421,-0.29268c0.098191,-0.06251 0.223817,0 0.34816,0c0.149209,0 0.273553,0 0.447631,0c0.17408,0 0.298424,0 0.447633,0c0.124344,0 0.198948,0 0.298421,0c0.074607,0 0.17408,0 0.323292,0c0.174078,0 0.32329,0 0.49737,0c0.198946,0 0.348158,0 0.422763,0c0.074605,0 0.149212,0 0.298421,0c0.149212,0 0.34816,0 0.472502,0c0.099476,0 0.248685,0 0.397897,0c0.074605,0 0.149209,0 0.223817,0c0.049736,0 0.174078,0 0.472502,0c0.174078,0 0.373026,0.09756 0.447631,0.09756c0.074607,0 0.099476,0 0.124344,0c0.099473,0 0.223817,0 0.348158,0l0.124344,0l0.024868,0l0.049736,0"
              id="svg_12" stroke-width="2.5" fill="none"/>
        <path stroke="#000"
              d="m5.56097,29.609758c0.04878,0.09756 0.098195,0.11319 0.146345,0.09756c0.152265,-0.04942 0.29268,-0.09756 0.536585,-0.09756c0.2439,0 0.634145,0 0.878045,0c0.243905,0 0.58537,0 0.97561,0c0.292685,0 0.58537,0 0.68293,0c0.14634,0 0.34146,0 0.634145,0c0.292685,0 0.585365,0 0.682925,0c0.146345,0 0.243905,0 0.63415,0c0.29268,0 0.585365,-0.09756 0.829265,-0.09756c0.439025,0 0.585365,0 0.78049,0c0.439025,0 0.682925,0 0.87805,0c0.09756,0 0.2439,0 0.487805,0c0.29268,0 0.731705,0 1.02439,0c0.39024,0 0.439025,0 0.487805,0c0.04878,0 0.180165,-0.04476 0.2439,-0.09756c0.135205,-0.11201 0.390245,0 0.536585,0c0.14634,0 0.23798,-0.04814 0.390245,-0.09756c0.04815,-0.01563 0.09756,0 0.341465,0c0.34146,0 0.487805,0 0.634145,0l0.04878,0l0.04878,-0.09756"
              id="svg_13" stroke-width="2.5" fill="none"/>
        <path stroke="#000"
              d="m5.26829,33.609758c0.046676,0.09756 0.085127,0.05012 0.186703,0c0.090859,-0.04483 0.280409,-0.08564 0.326735,-0.09756c0.191009,-0.04915 0.268721,-0.19385 0.560114,-0.29268c0.184297,-0.06251 0.420087,0 0.65347,0c0.280055,0 0.513438,0 0.840169,0c0.326735,0 0.560119,0 0.840173,0c0.233384,0 0.373411,0 0.560114,0c0.140032,0 0.326735,0 0.606795,0c0.32673,0 0.60679,0 0.933525,0c0.373406,0 0.653466,0 0.793493,0c0.140027,0 0.280059,0 0.560114,0c0.280059,0 0.65347,0 0.886849,0c0.186708,0 0.466762,0 0.746822,0c0.140027,0 0.280055,0 0.420087,0c0.093352,0 0.32673,0 0.886849,0c0.32673,0 0.700141,0.09756 0.840169,0.09756c0.140032,0 0.186708,0 0.233384,0c0.186703,0 0.420087,0 0.653466,0l0.233384,0l0.046676,0l0.093352,0"
              id="svg_14" stroke-width="2.5" fill="none"/>
    </g>
</svg>