<svg id='secondary-gear'
     viewBox='0 0 300 300'
     width="75" xmlns="http://www.w3.org/2000/svg">
 <g>
  <title>Layer 1</title>
  <path stroke="#000" d="m120.5,43.380357c0,0 0.458801,-0.733061 1,-2.114286c0.382683,-0.976671 1.486259,-0.870821 2,-3.171429c0.229752,-1.028862 1,-2.114286 1,-3.171429c0,-2.114286 0.617317,-3.251899 1,-4.228571c0.541199,-1.381223 1,-2.114286 1,-3.171429c0,-1.057143 -0.707108,-3.481058 0,-4.228571c0.707108,-0.747514 1.292892,-0.309629 2,-1.057143c0.707108,-0.747514 0.458801,-1.790205 1,-3.171429c0.38269,-0.976673 0.292892,-1.366772 1,-2.114286c0.707108,-0.747513 0.149353,-1.558513 1,-2.114286c1.902115,-1.242746 0.292892,-3.481059 1,-4.228571c0.707108,-0.747513 1.292892,-0.30963 2,-1.057143c0.707108,-0.747513 0,-2.114286 1,-2.114286c1,0 2,0 3,0c1,0 2,0 3,0c2,0 3.907791,0.524581 8,1.057143c1.985016,0.25833 5,0 8,0c1,0 2,0 3,0c1,0 2,0 3,0c2,0 3,0 4,0c2,0 2.61731,0.08047 3,1.057143c0.541199,1.381224 1,3.171429 2,5.285714c1,2.114286 0.789856,4.311489 2,7.4c0.855713,2.183906 1.458801,3.904491 2,5.285714c0.38269,0.976673 0.61731,2.194756 1,3.171429c0.541199,1.381223 0.292892,3.481058 1,4.228571c0.707108,0.747514 1,1.057143 1,2.114286c0,1.057143 0.292892,1.366772 1,2.114286c0.707108,0.747514 1,1.057143 1,2.114286c0,1.057143 0,2.114286 0,3.171429l1,0" id="svg_19" fill-opacity="null" stroke-opacity="null" stroke-width="8.5" fill="none"/>
  <path stroke="#000" transform="rotate(-180 151.50000000000003,272.9375) " d="m120.5,290.380357c0,0 0.458801,-0.733061 1,-2.114286c0.382683,-0.976671 1.486259,-0.870821 2,-3.171429c0.229752,-1.028862 1,-2.114286 1,-3.171429c0,-2.114286 0.617317,-3.251898 1,-4.228571c0.541199,-1.381223 1,-2.114286 1,-3.171429c0,-1.057143 -0.707108,-3.481057 0,-4.228571c0.707108,-0.747514 1.292892,-0.309629 2,-1.057143c0.707108,-0.747514 0.458801,-1.790206 1,-3.171429c0.38269,-0.976673 0.292892,-1.366772 1,-2.114286c0.707108,-0.747513 0.149353,-1.558513 1,-2.114286c1.902115,-1.242745 0.292892,-3.481058 1,-4.228571c0.707108,-0.747513 1.292892,-0.30963 2,-1.057143c0.707108,-0.747513 0,-2.114286 1,-2.114286c1,0 2,0 3,0c1,0 2,0 3,0c2,0 3.907791,0.524581 8,1.057143c1.985016,0.258331 5,0 8,0c1,0 2,0 3,0c1,0 2,0 3,0c2,0 3,0 4,0c2,0 2.61731,0.08047 3,1.057143c0.541199,1.381224 1,3.171429 2,5.285714c1,2.114286 0.789856,4.311489 2,7.4c0.855713,2.183906 1.458801,3.904492 2,5.285714c0.38269,0.976673 0.61731,2.194755 1,3.171429c0.541199,1.381223 0.292892,3.481057 1,4.228571c0.707108,0.747514 1,1.057143 1,2.114286c0,1.057143 0.292892,1.366772 1,2.114286c0.707108,0.747514 1,1.057143 1,2.114286c0,1.057143 0,2.114286 0,3.171429l1,0" id="svg_20" fill-opacity="null" stroke-opacity="null" stroke-width="8.5" fill="none"/>
  <path stroke="#000" transform="rotate(90 273.50000000000006,148.93750000000003) " d="m242.5,166.380357c0,0 0.458801,-0.733061 1,-2.114286c0.382683,-0.976671 1.486259,-0.870821 2,-3.171428c0.229752,-1.028862 1,-2.114286 1,-3.171429c0,-2.114286 0.617317,-3.251898 1,-4.228571c0.541199,-1.381223 1,-2.114286 1,-3.171429c0,-1.057143 -0.707108,-3.481057 0,-4.228571c0.707108,-0.747514 1.292892,-0.309629 2,-1.057143c0.707108,-0.747514 0.458801,-1.790206 1,-3.171429c0.38269,-0.976673 0.292892,-1.366771 1,-2.114285c0.707108,-0.747513 0.149353,-1.558513 1,-2.114286c1.902115,-1.242745 0.292892,-3.481058 1,-4.228571c0.707108,-0.747514 1.292892,-0.30963 2,-1.057143c0.707108,-0.747513 0,-2.114286 1,-2.114286c1,0 2,0 3,0c1,0 2,0 3,0c2,0 3.907791,0.524581 8,1.057143c1.985016,0.258331 5,0 8,0c1,0 2,0 3,0c1,0 2,0 3,0c2,0 3,0 4,0c2,0 2.61731,0.08047 3,1.057143c0.541199,1.381223 1,3.171428 2,5.285714c1,2.114286 0.789856,4.311489 2,7.4c0.855713,2.183906 1.458801,3.904492 2,5.285714c0.38269,0.976673 0.61731,2.194756 1,3.171429c0.541199,1.381222 0.292892,3.481057 1,4.228571c0.707108,0.747514 1,1.057143 1,2.114286c0,1.057143 0.292892,1.366771 1,2.114286c0.707108,0.747514 1,1.057142 1,2.114285c0,1.057143 0,2.114286 0,3.171429l1,0" id="svg_21" fill-opacity="null" stroke-opacity="null" stroke-width="8.5" fill="none"/>
  <path transform="rotate(-90 25.500000000000032,149.93750000000003) " stroke="#000" d="m-5.5,167.380357c0,0 0.458801,-0.733061 1,-2.114286c0.382683,-0.976671 1.486259,-0.870821 2,-3.171428c0.229752,-1.028862 1,-2.114286 1,-3.171429c0,-2.114286 0.617317,-3.251898 1,-4.228571c0.541199,-1.381223 1,-2.114286 1,-3.171429c0,-1.057143 -0.707108,-3.481057 0,-4.228571c0.707108,-0.747514 1.292892,-0.309629 2,-1.057143c0.707108,-0.747514 0.458801,-1.790206 1,-3.171429c0.38269,-0.976673 0.292892,-1.366771 1,-2.114285c0.707108,-0.747513 0.149353,-1.558513 1,-2.114286c1.902115,-1.242745 0.292892,-3.481058 1,-4.228571c0.707108,-0.747514 1.292892,-0.30963 2,-1.057143c0.707108,-0.747513 0,-2.114286 1,-2.114286c1,0 2,0 3,0c1,0 2,0 3,0c2,0 3.907791,0.524581 8,1.057143c1.985016,0.258331 5,0 8,0c1,0 2,0 3,0c1,0 2,0 3,0c2,0 3,0 4,0c2,0 2.61731,0.08047 3,1.057143c0.541199,1.381223 1,3.171428 2,5.285714c1,2.114286 0.789856,4.311489 2,7.4c0.855713,2.183906 1.458801,3.904492 2,5.285714c0.38269,0.976673 0.61731,2.194756 1,3.171429c0.541199,1.381222 0.292892,3.481057 1,4.228571c0.707108,0.747514 1,1.057143 1,2.114286c0,1.057143 0.292892,1.366771 1,2.114286c0.707108,0.747514 1,1.057142 1,2.114285c0,1.057143 0,2.114286 0,3.171429l1,0" id="svg_22" fill-opacity="null" stroke-opacity="null" stroke-width="8.5" fill="none"/>
  <path transform="rotate(-45 62.49999999999998,58.93749999999999) " stroke="#000" d="m31.5,76.380357c0,0 0.458801,-0.733061 1,-2.114286c0.382683,-0.976671 1.486259,-0.870821 2,-3.171428c0.229752,-1.028862 1,-2.114286 1,-3.171429c0,-2.114286 0.617317,-3.251898 1,-4.228571c0.541199,-1.381223 1,-2.114286 1,-3.171429c0,-1.057143 -0.707108,-3.481057 0,-4.228571c0.707108,-0.747514 1.292892,-0.309629 2,-1.057143c0.707108,-0.747514 0.458801,-1.790206 1,-3.171429c0.38269,-0.976673 0.292892,-1.366771 1,-2.114285c0.707108,-0.747513 0.149353,-1.558513 1,-2.114286c1.902115,-1.242745 0.292892,-3.481058 1,-4.228571c0.707108,-0.747514 1.292892,-0.30963 2,-1.057143c0.707108,-0.747513 0,-2.114286 1,-2.114286c1,0 2,0 3,0c1,0 2,0 3,0c2,0 3.907791,0.524581 8,1.057143c1.985016,0.258331 5,0 8,0c1,0 2,0 3,0c1,0 2,0 3,0c2,0 3,0 4,0c2,0 2.61731,0.08047 3,1.057143c0.541199,1.381223 1,3.171428 2,5.285714c1,2.114286 0.789856,4.311489 2,7.4c0.855713,2.183906 1.458801,3.904492 2,5.285714c0.38269,0.976673 0.61731,2.194756 1,3.171429c0.541199,1.381222 0.292892,3.481057 1,4.228571c0.707108,0.747514 1,1.057143 1,2.114286c0,1.057143 0.292892,1.366771 1,2.114286c0.707108,0.747514 1,1.057142 1,2.114285c0,1.057143 0,2.114286 0,3.171429l1,0" id="svg_23" fill-opacity="null" stroke-opacity="null" stroke-width="8.5" fill="none"/>
  <path stroke="#000" transform="rotate(135 241.73077392578128,233.39903259277344) " d="m210.186854,252.380426c0,0 0.466851,-0.79772 1.017546,-2.300776c0.389398,-1.062818 1.512337,-0.947631 2.035092,-3.451162c0.233783,-1.119612 1.017546,-2.300776 1.017546,-3.451163c0,-2.300776 0.628148,-3.53873 1.017546,-4.60155c0.550695,-1.503053 1.017546,-2.300776 1.017546,-3.451163c0,-1.150388 -0.719515,-3.788102 0,-4.60155c0.719515,-0.813448 1.315577,-0.33694 2.035092,-1.150388c0.719515,-0.813448 0.466851,-1.94811 1.017546,-3.451163c0.389405,-1.06282 0.298031,-1.487326 1.017546,-2.300774c0.719515,-0.813447 0.151974,-1.695981 1.017546,-2.300776c1.93549,-1.352361 0.298031,-3.788103 1.017546,-4.60155c0.719515,-0.813448 1.315577,-0.336941 2.035092,-1.150388c0.719515,-0.813447 0,-2.300776 1.017546,-2.300776c1.017546,0 2.035092,0 3.052638,0c1.017546,0 2.035092,0 3.052638,0c2.035092,0 3.976357,0.570851 8.140368,1.150388c2.019845,0.281117 5.08773,0 8.140368,0c1.017546,0 2.035092,0 3.052638,0c1.017546,0 2.035092,0 3.052638,0c2.035092,0 3.052638,0 4.070184,0c2.035092,0 2.663233,0.087568 3.052638,1.150388c0.550695,1.503053 1.017546,3.451162 2.035092,5.751938c1.017546,2.300776 0.803715,4.691782 2.035092,8.052713c0.870727,2.376536 1.484397,4.248886 2.035092,5.751938c0.389405,1.06282 0.628141,2.388343 1.017546,3.451163c0.550695,1.503052 0.298031,3.788102 1.017546,4.60155c0.719515,0.813448 1.017546,1.150388 1.017546,2.300776c0,1.150388 0.298031,1.487326 1.017546,2.300776c0.719515,0.813448 1.017546,1.150387 1.017546,2.300774c0,1.150388 0,2.300776 0,3.451163l1.017546,0" id="svg_24" fill-opacity="null" stroke-opacity="null" stroke-width="8.5" fill="none"/>
  <path transform="rotate(45 243.49999999999994,65.93750000000003) " stroke="#000" d="m212.5,83.380357c0,0 0.458801,-0.733061 1,-2.114286c0.382683,-0.97667 1.486259,-0.870821 2,-3.171428c0.229752,-1.028862 1,-2.114286 1,-3.171429c0,-2.114286 0.617317,-3.251898 1,-4.228571c0.541199,-1.381223 1,-2.114286 1,-3.171429c0,-1.057143 -0.707108,-3.481058 0,-4.228571c0.707108,-0.747514 1.292892,-0.309629 2,-1.057143c0.707108,-0.747514 0.458801,-1.790205 1,-3.171429c0.38269,-0.976672 0.292892,-1.366772 1,-2.114285c0.707108,-0.747513 0.149353,-1.558513 1,-2.114286c1.902115,-1.242746 0.292892,-3.481059 1,-4.228571c0.707108,-0.747513 1.292892,-0.309631 2,-1.057143c0.707108,-0.747513 0,-2.114286 1,-2.114286c1,0 2,0 3,0c1,0 2,0 3,0c2,0 3.907791,0.524581 8,1.057143c1.985016,0.25833 5,0 8,0c1,0 2,0 3,0c1,0 2,0 3,0c2,0 3,0 4,0c2,0 2.61731,0.08047 3,1.057143c0.541199,1.381224 1,3.171428 2,5.285714c1,2.114286 0.789856,4.311489 2,7.4c0.855713,2.183906 1.458801,3.904491 2,5.285714c0.38269,0.976673 0.61731,2.194756 1,3.171429c0.541199,1.381223 0.292892,3.481058 1,4.228571c0.707108,0.747514 1,1.057143 1,2.114286c0,1.057143 0.292892,1.366772 1,2.114286c0.707108,0.747513 1,1.057142 1,2.114285c0,1.057143 0,2.114286 0,3.171429l1,0" id="svg_25" fill-opacity="null" stroke-opacity="null" stroke-width="8.5" fill="none"/>
  <path transform="rotate(-135 60.50000000000001,235.9375) " stroke="#000" d="m29.5,253.380357c0,0 0.458801,-0.733061 1,-2.114286c0.382683,-0.97667 1.486259,-0.870821 2,-3.171428c0.229752,-1.028862 1,-2.114286 1,-3.171429c0,-2.114286 0.617317,-3.251898 1,-4.228571c0.541199,-1.381223 1,-2.114286 1,-3.171429c0,-1.057143 -0.707108,-3.481058 0,-4.228571c0.707108,-0.747514 1.292892,-0.309629 2,-1.057143c0.707108,-0.747514 0.458801,-1.790205 1,-3.171429c0.38269,-0.976672 0.292892,-1.366772 1,-2.114285c0.707108,-0.747513 0.149353,-1.558513 1,-2.114286c1.902115,-1.242746 0.292892,-3.481059 1,-4.228571c0.707108,-0.747513 1.292892,-0.309631 2,-1.057143c0.707108,-0.747513 0,-2.114286 1,-2.114286c1,0 2,0 3,0c1,0 2,0 3,0c2,0 3.907791,0.524581 8,1.057143c1.985016,0.25833 5,0 8,0c1,0 2,0 3,0c1,0 2,0 3,0c2,0 3,0 4,0c2,0 2.61731,0.08047 3,1.057143c0.541199,1.381224 1,3.171428 2,5.285714c1,2.114286 0.789856,4.311489 2,7.4c0.855713,2.183906 1.458801,3.904491 2,5.285714c0.38269,0.976673 0.61731,2.194756 1,3.171429c0.541199,1.381223 0.292892,3.481058 1,4.228571c0.707108,0.747514 1,1.057143 1,2.114286c0,1.057143 0.292892,1.366772 1,2.114286c0.707108,0.747513 1,1.057142 1,2.114285c0,1.057143 0,2.114286 0,3.171429l1,0" id="svg_26" fill-opacity="null" stroke-opacity="null" stroke-width="8.5" fill="none"/>
  <path d="m90.943398,155.82547c0,0 0,-0.37735 0,-0.754715c0,-0.37735 0,-0.754715 0,-1.132065c0,-0.377365 0,-1.13208 0,-1.886795c0,-0.754715 0,-1.50943 0,-1.886795c0,-0.377365 0,-0.754715 0,-1.13208c0,-0.37735 0,-0.754715 0,-1.132065c0,-0.377365 -0.377357,-0.75473 -0.377357,-1.13208c0,-0.377365 -0.173134,-0.639038 -0.377357,-1.13208c-0.144402,-0.348633 0,-0.754715 0,-1.50943c0,-0.377365 0,-1.13208 0,-1.50943c0,-0.377365 0,-0.754715 0,-1.13208c0,-0.377365 0,-0.754715 0,-1.13208c0,-0.37735 0,-0.754715 0,-1.132065c0,-0.377365 0.088539,-0.81218 0.377357,-1.509445c0.204224,-0.493042 0.377357,-1.132065 0.377357,-1.50943c0,-0.377365 0.377357,-0.754715 0.377357,-1.13208c0,-0.754715 0.550491,-1.393738 0.754715,-1.88678c0.144417,-0.348633 0.377357,-1.13208 0.377357,-1.886795c0,-0.377365 0.377357,-0.377365 0.377357,-1.13208c0,-0.377365 0.232956,-0.783447 0.377365,-1.13208c0.408447,-0.986084 1.132072,-1.886787 1.132072,-2.641502c0,-0.754723 0.442673,-1.453865 0.754715,-1.886795c0.493378,-0.684525 0.465904,-1.189522 0.754723,-1.886795c0.204224,-0.493042 0.754715,-0.754715 1.132072,-1.132072c0.377357,-0.377357 0.487885,-0.487885 0.754715,-0.754715c0.533669,-0.533669 0.927849,-1.393753 1.13208,-1.886795c0.144409,-0.348633 0.261345,-0.824905 0.754715,-1.50943c0.312042,-0.432938 0.377357,-0.754723 0.754715,-1.13208c0.377357,-0.377357 0.261337,-0.824905 0.754715,-1.50943c0.312042,-0.432938 0.754723,-0.754723 0.754723,-1.13208c0,-0.377357 0.261673,-0.927849 0.754715,-1.132072c0.348633,-0.144409 0.377357,-0.754715 0.754715,-1.13208c0.377357,-0.377357 1.305214,-1.016388 1.509438,-1.50943c0.144409,-0.348633 0.465897,-0.812164 0.754715,-1.509438c0.204224,-0.493042 0.912781,-0.912773 1.509438,-1.50943c0.596657,-0.596649 1.132072,-0.754715 1.132072,-1.13208c0,-0.377357 0.377357,-0.377357 0.754715,-0.754715c0.377357,-0.377357 0.699142,-0.82003 1.13208,-1.132072c0.684525,-0.49337 0.865234,-0.487885 1.132072,-0.754723c0.26683,-0.26683 1.50943,-0.754715 2.64151,-1.50943c1.132072,-0.754715 2.381134,-0.882072 3.396225,-1.509438c0.453964,-0.280563 0.487885,-0.487885 0.754715,-0.754715c0.26683,-0.26683 0.639038,-0.173134 1.13208,-0.377357c0.348633,-0.144409 1.132072,-0.377357 1.886787,-1.132072c0.377365,-0.377357 1.160805,-0.610313 1.509438,-0.754723c0.493042,-0.204224 0.927849,-0.261673 1.132072,-0.754715c0.144409,-0.348633 0.824913,-0.261337 1.509438,-0.754715c0.43293,-0.312042 0.912773,-0.535423 1.50943,-1.13208c0.596657,-0.596657 1.242599,-0.110527 1.50943,-0.377357c0.26683,-0.26683 0.434814,-0.088547 1.13208,-0.377357c0.493042,-0.204224 1.488174,-0.82579 2.64151,-1.132072c1.859695,-0.493866 2.64151,-0.377357 3.018875,-0.377357c0.37735,0 0.487885,-0.110527 0.754715,-0.377357c0.26683,-0.26683 1.140549,-0.239044 2.264145,-0.377365c1.54422,-0.190102 3.035675,-0.301361 4.90567,-0.754715c2.669861,-0.64727 3.707062,-0.93821 4.52829,-1.132072c0.734528,-0.173401 1.509445,0 1.886795,0c0.377365,0 0.377365,-0.377357 0.754715,-0.377357c0.754715,0 1.886795,0 3.396225,0c0.75473,0 1.509445,0 3.018875,0c0.754715,0 1.886795,0 2.264145,0c0.754715,0 1.509445,0 1.886795,0c1.13208,0 1.886795,0 3.018875,0c1.50943,0 2.64151,0 3.01886,0c0.377365,0 0.487885,0.110527 0.754715,0.377357c0.26683,0.266838 0.321793,0.44268 0.754715,0.754715c0.68454,0.493385 0.86525,0.487885 1.13208,0.754715c0.26683,0.26683 0.110535,0.487885 0.377365,0.754723c0.26683,0.26683 0.783432,0.232956 1.132065,0.377357c0.493042,0.204224 0.688217,0.93821 1.509445,1.132072c0.367249,0.0867 0.774902,0.203957 1.50943,0.377357c0.821228,0.193863 1.472763,0.839325 2.264145,1.13208c1.459259,0.539818 2.37468,0.487885 2.64151,0.754715c0.26683,0.26683 0.17897,0.433716 0.377365,0.754715c0.443604,0.717773 1.21196,0.646843 2.264145,1.509438c0.825409,0.676674 2.72139,1.024185 3.77359,1.886787c0.412704,0.338333 0.487885,0.487885 0.754715,0.754723c0.26683,0.26683 0.377365,0.754715 1.13208,1.50943c0.754715,0.754715 0.987656,1.160797 1.132065,1.509438c0.204224,0.493042 0.261688,0.927849 0.75473,1.132072c0.348633,0.144402 0.834579,0.646843 1.88678,1.509438c0.412704,0.338341 1.016403,0.550491 1.509445,0.754715c0.348633,0.144402 0.754715,0.754715 1.132065,1.132072c0.377365,0.377365 0.824921,1.01606 1.509445,1.509438c0.432922,0.312035 1.305206,1.016388 1.50943,1.50943c0.144409,0.348633 0.261322,0.447548 0.754715,1.13208c0.312042,0.43293 0.487885,0.865242 0.754715,1.132072c0.26683,0.266838 0.754715,0.377357 0.754715,0.754715c0,0.377357 0.377365,0.754723 0.754715,1.509438c0.377365,0.754715 1.04538,1.519524 1.13208,1.886795c0.193863,0.821228 1.13208,1.132072 1.13208,1.50943c0,0.377357 -0.144409,0.78344 0,1.132072c0.408447,0.986092 0.912766,1.290146 1.50943,1.886795c0.596664,0.596657 0.487885,1.242607 0.754715,1.509438c0.26683,0.26683 0.201859,0.871979 0.754715,1.50943c0.78186,0.901497 0.550491,1.393761 0.754715,1.886795c0.144409,0.348633 0.028717,0.610306 0.377365,0.754715c0.493042,0.204224 0.377365,0.754715 0.377365,1.886795c0,0.37735 -0.144409,0.783447 0,1.13208c0.204224,0.493027 0.088531,0.812164 0.37735,1.50943c0.204224,0.493042 0.25647,1.14183 0.377365,1.886795c0.191147,1.177887 0.365463,2.042282 1.132065,3.396225c0.262939,0.464386 0.377365,1.132065 0.75473,1.50943c0.37735,0.377365 0.37735,0.754715 0.37735,1.50943c0,1.13208 0.203964,1.906982 0.377365,2.64151c0.193863,0.821228 0.37735,1.13208 0.37735,1.509445c0,0.37735 0,0.754715 0,1.50943c0,0.37735 0.183502,0.688202 0.377365,1.50943c0.0867,0.367264 0,0.754715 0,1.50943c0,0.377365 0.173126,0.639038 0.37735,1.13208c0.288803,0.697266 0,1.50943 0,1.886795c0,0.37735 0,1.13208 0,1.886795c0,0.37735 0,0.754715 0,1.88678c0,0.377365 -0.37735,1.509445 -0.37735,1.886795c0,1.13208 0,1.509445 0,2.26416c0,0.37735 -0.110535,0.487885 -0.377365,0.754715c-0.533661,0.533661 -0.186203,1.463608 -0.37735,2.64151c-0.06044,0.372482 -0.550491,1.016403 -0.754715,1.50943c-0.144409,0.348633 -0.173141,0.639023 -0.377365,1.13208c-0.288818,0.697266 -0.377365,1.50943 -0.754715,2.264145c-0.377365,0.754715 -0.110535,1.619965 -0.377365,1.886795c-0.26683,0.26683 -0.37735,1.132065 -0.754715,1.50943c-0.377365,0.377365 -0.433716,0.933685 -0.754715,1.13208c-0.717789,0.443604 -0.581314,1.529617 -0.754715,2.264145c-0.193863,0.821228 -0.668015,1.142181 -0.754715,1.509445c-0.193863,0.821228 -0.442673,1.076492 -0.754715,1.50943c-0.493378,0.684525 -0.442688,1.076508 -0.754715,1.50943c-0.493378,0.684525 -0.4879,0.86525 -0.75473,1.13208c-0.26683,0.26683 0.000015,0.754715 -0.37735,1.13208c-0.377365,0.377365 -0.754715,0.754715 -0.754715,1.132065c0,0.377365 -0.550491,0.261688 -0.754715,0.754715c-0.144409,0.348633 -0.638702,0.824921 -1.13208,1.509445c-0.312042,0.432922 -1.016052,0.824905 -1.50943,1.50943c-0.312042,0.432922 -1.13208,0.754715 -1.509445,1.13208c-0.37735,0.37735 -1.132065,1.132065 -1.50943,1.50943c-0.37735,0.37735 -1.242599,0.487885 -1.50943,0.754715c-0.26683,0.26683 -0.158066,0.535431 -0.754715,1.13208c-0.596649,0.596649 -1.020935,0.885345 -1.886795,1.50943c-0.684525,0.493378 -1.13208,0.377365 -1.50943,0.754715c-0.377365,0.377365 -0.261673,0.927856 -0.75473,1.13208c-0.348633,0.144409 -0.37735,0.37735 -1.132065,0.754715c-0.754715,0.37735 -1.13208,0.754715 -1.886795,1.50943c-0.754715,0.754715 -1.538162,1.365021 -1.886795,1.50943c-0.493042,0.204224 -0.406067,0.610321 -0.754715,0.75473c-0.493042,0.204224 -1.50943,1.13208 -2.264145,1.50943c-0.75473,0.377365 -1.13208,0.754715 -1.509445,0.754715c-0.37735,0 -1.132065,0.37735 -1.886795,0.754715c-0.754715,0.37735 -1.132065,0.377365 -1.50943,0.377365c-0.37735,0 -1.218246,-0.055878 -2.264145,0.37735c-0.493057,0.204224 -0.487885,0.487885 -0.754715,0.754715c-0.26683,0.26683 -0.688202,0.183502 -1.509445,0.377365c-1.101776,0.260101 -1.539032,0.29805 -2.64151,0.754715c-0.779572,0.322906 -1.50943,0.754715 -2.264145,0.754715c-0.754715,0 -1.13208,0 -1.50943,0c-0.377365,0 -0.754715,0 -1.50943,0c-1.13208,0 -2.26416,0.377365 -3.39624,0.377365c-0.754715,0 -1.538147,-0.144409 -1.88678,0c-0.493042,0.204224 -1.086258,0.563568 -2.26416,0.754715c-1.117447,0.181335 -2.264145,0.37735 -2.64151,0.37735c-0.754715,0 -1.50943,0.377365 -1.886795,0.377365c-0.37735,0 -0.754715,0 -1.50943,0c-0.754715,0 -1.886795,0 -3.01886,0c-1.13208,0 -1.886795,0 -2.26416,0c-0.754715,0 -1.50943,0 -2.264145,0c-1.13208,0 -2.26416,0 -2.64151,0c-0.377365,0 -0.754715,0 -1.886795,0c-1.50943,0 -2.595688,-0.186218 -3.77359,-0.377365c-1.117447,-0.181335 -1.160797,-0.232941 -1.50943,-0.37735c-0.493042,-0.204224 -0.678116,-0.474152 -1.13208,-0.754715c-1.015091,-0.62735 -1.898361,-1.098984 -3.01886,-1.50943c-1.908157,-0.698975 -3.129395,-1.619965 -3.396225,-1.886795c-0.533669,-0.533676 -1.509438,-0.754715 -2.264153,-1.13208c-1.50943,-0.754715 -1.730492,-0.598419 -2.264153,-1.13208c-0.26683,-0.26683 -0.610313,-0.783432 -0.754715,-1.132065c-0.204224,-0.493042 -1.13208,-0.75473 -1.509438,-1.13208c-0.377365,-0.377365 -0.754715,-0.377365 -1.132072,-0.754715c-0.377365,-0.377365 -0.535408,-0.912781 -1.13208,-1.509445c-0.596657,-0.596649 -1.016396,-0.927841 -1.50943,-1.132065c-0.348633,-0.144409 -0.900711,-1.100983 -1.886795,-1.50943c-0.348633,-0.144409 -0.487885,-0.110535 -0.754715,-0.377365c-0.266838,-0.26683 -0.158058,-0.535416 -0.754715,-1.13208c-0.596649,-0.596664 -0.820038,-1.076492 -1.13208,-1.50943c-0.49337,-0.684525 -0.465897,-1.189529 -0.754715,-1.886795c-0.204224,-0.493042 -0.598412,-0.221054 -1.132072,-0.754715c-0.266838,-0.26683 -0.377365,-1.13208 -0.754723,-1.50943c-0.377365,-0.377365 -0.824913,-1.016052 -1.50943,-1.50943c-0.865868,-0.624084 -1.315575,-0.688217 -1.509438,-1.509445c-0.0867,-0.367249 -0.37735,-0.37735 -0.754715,-0.754715c-0.377357,-0.37735 -0.824898,-0.638702 -1.50943,-1.13208c-0.43293,-0.312042 -0.69915,-0.820023 -1.13208,-1.132065c-0.684525,-0.493378 -1.132072,-0.754715 -1.132072,-1.13208c0,-0.377365 -0.377357,-0.377365 -0.754723,-1.13208c-0.377357,-0.754715 -0.735298,-1.622147 -1.132072,-2.264145c-0.443611,-0.717789 -1.016052,-1.57962 -1.50943,-2.264145c-0.624084,-0.865875 -0.754723,-1.13208 -0.754723,-1.509445c0,-0.37735 -0.560852,-0.688202 -0.754715,-1.50943c-0.0867,-0.367264 -0.31691,-1.514297 -0.377357,-1.886795c-0.191147,-1.177902 -0.63382,-1.896545 -0.754715,-2.64151c-0.191154,-1.177902 -0.550499,-1.393753 -0.754723,-1.886795c-0.288811,-0.697266 -0.377357,-0.754715 -0.377357,-1.50943c0,-0.754715 -0.183495,-1.442917 -0.377357,-2.264145c-0.260101,-1.101791 -0.377357,-1.886795 -0.377357,-2.64151c0,-1.13208 -0.203957,-1.906982 -0.377357,-2.64151c-0.193863,-0.821228 -0.203957,-1.906982 -0.377357,-2.64151c-0.193863,-0.821228 -0.377357,-1.50943 -0.377357,-1.886795c0,-0.377365 -0.377365,-1.13208 -0.377365,-1.50943c0,-0.754715 -0.183495,-1.442932 -0.377357,-2.26416c-0.173401,-0.734528 0,-1.132065 0,-1.88678c0,-0.377365 0.144402,-0.783447 0,-1.13208c-0.204224,-0.493042 -0.377357,-0.754715 -0.377357,-1.13208c0,-0.37735 0,-1.13208 0,-1.50943c0,-0.754715 0,-1.50943 0,-1.886795c0,-0.377365 0.110527,-0.487885 0.377357,-0.754715c0.266838,-0.26683 0.056358,-0.55632 0.377357,-0.754715c0.717781,-0.443604 0.377365,-1.13208 1.13208,-1.509445l0.377357,-1.132065l0,-0.377365l0.377357,0" id="svg_27" fill-opacity="null" stroke-opacity="null" stroke-width="8.5" stroke="#000" fill="none"/>
  <path d="m42.264153,119.976418c0,0 -0.144409,-0.406082 0,-0.754715c0.204224,-0.493042 0.885357,-1.02092 1.509434,-1.886787c0.493382,-0.684532 0.507996,-1.77565 1.132072,-2.64151c0.493382,-0.684532 0.668018,-1.142174 0.754719,-1.509438c0.193863,-0.821228 0.754715,-1.50943 1.132076,-2.264153c0.377357,-0.754715 0.754719,-1.50943 1.132076,-1.886787c0.377361,-0.377365 0.550491,-1.016396 0.754715,-1.509438c0.144409,-0.348633 0.610306,-1.538155 0.754719,-1.886795c0.204224,-0.493042 0.442677,-1.0765 0.754715,-1.50943c0.493378,-0.684525 0.504715,-1.626419 1.132076,-2.64151c0.280563,-0.453964 0.723625,-0.523346 1.132076,-1.509438c0.144409,-0.348633 0.110527,-0.487885 0.377357,-0.754715c0.800495,-0.800499 0.377357,-1.50943 0.377357,-1.886787c0,-0.377365 0.487888,-0.487892 0.754719,-0.754723c0.26683,-0.26683 0,-1.132072 0.377357,-1.50943l0.377357,-0.377357l0.377361,-0.377365" id="svg_29" fill-opacity="null" stroke-opacity="null" stroke-width="8.5" stroke="#000" fill="none"/>
  <path d="m96.981133,52.051891c0,0 0.377357,0 1.132072,0c0.377357,0 0.310852,-0.560852 1.13208,-0.754715c0.367264,-0.086697 0.406082,-0.232948 0.754715,-0.377357c0.493042,-0.204227 1.53904,-0.675415 2.64151,-1.132076c1.559135,-0.645817 1.538155,-0.987663 1.886795,-1.132076c0.493042,-0.204224 0.754715,-0.754719 1.132072,-0.754719c0.377357,0 1.278069,-0.723625 2.264153,-1.132072c0.697266,-0.288818 1.136948,0.060448 1.50943,0c1.17791,-0.191151 2.264153,-0.754719 3.018867,-0.754719c0.377357,0 0.783447,0.144409 1.13208,0c0.493042,-0.204224 1.15226,-0.581318 1.886787,-0.754715c0.821236,-0.193867 1.160805,-0.232952 1.509438,-0.377361c0.493042,-0.204224 1.016388,-0.550491 1.50943,-0.754715c0.34864,-0.144413 0.754723,0 1.13208,0l0.377357,0" id="svg_30" fill-opacity="null" stroke-opacity="null" stroke-width="8.5" stroke="#000" fill="none"/>
  <path d="m181.50943,42.617931c0.377365,0 0.377365,0.377357 0.754715,0.377357c0.377365,0 0.4879,0.110519 0.75473,0.377357c0.26683,0.266834 0.434799,0.088547 1.132065,0.377361c0.493042,0.204224 0.754715,0.754715 1.13208,0.754715c0.37735,0 0.610306,0.406082 0.754715,0.754719c0.204224,0.493046 1.160797,0.232952 1.50943,0.377357c0.493042,0.204224 0.688202,0.93821 1.509445,1.132076c0.734528,0.173397 1.88678,0.377357 2.264145,0.377357c0.377365,0 0.759583,0.31691 1.13208,0.377357c1.177887,0.191147 1.50943,0.754719 1.886795,0.754719c0.754715,0 1.016388,0.550491 1.50943,0.754715c0.348633,0.144405 0.754715,0.000004 1.132065,0.377357c0.377365,0.377365 0.4879,0.487888 0.75473,0.754719c0.533661,0.533665 1.211945,0.269482 2.264145,1.132076c0.412704,0.338337 0.86525,0.487885 1.13208,0.754715c0.26683,0.266827 0.487885,0.110527 0.754715,0.377361c0.26683,0.266827 0.434799,0.088531 1.13208,0.377357c0.493042,0.204224 0.812164,0.465893 1.50943,0.754715c0.493042,0.204227 0.261673,0.927853 0.754715,1.132076c0.697266,0.288815 0.86525,0.110527 1.13208,0.377357c0.26683,0.266827 0.37735,0.377361 0.754715,0.377361l0.37735,0l0,0.377357" id="svg_31" fill-opacity="null" stroke-opacity="null" stroke-width="8.5" stroke="#000" fill="none"/>
  <path d="m249.43396,100.73114c0,0 -0.0867,0.387451 0,0.754715c0.193863,0.821228 0.843262,1.944244 1.13208,2.64151c0.204224,0.493034 0.550491,0.63903 0.754715,1.132072c0.288818,0.697273 -0.116013,1.579628 0.377365,2.264153c0.312042,0.43293 0.37735,0.754715 0.37735,1.132072c0,0.377365 0.183502,0.68821 0.377365,1.509438c0.0867,0.367264 0,0.754715 0,1.509438c0,0.377357 0.183487,0.68821 0.37735,1.50943c0.173401,0.734528 0.173141,1.016388 0.377365,1.509438c0.144409,0.348633 0.110519,0.487885 0.37735,0.754715c0.26683,0.26683 0,0.754715 0,1.50943c0,0.377365 0.377365,0.754723 0.377365,1.13208l0,0.377357l0.377365,0" id="svg_32" fill-opacity="null" stroke-opacity="null" stroke-width="8.5" stroke="#000" fill="none"/>
  <path d="m257.73584,177.334915c0,0 -0.290649,0.387451 -0.37735,0.754715c-0.193848,0.821228 -0.940948,1.463608 -1.13208,2.64151c-0.181335,1.117462 -0.938202,2.197632 -1.132065,3.01886c-0.173401,0.734543 -0.261337,1.202271 -0.754715,1.886795c-0.312042,0.432938 -0.75473,1.13208 -0.75473,1.50943c0,0.377365 -0.110519,0.86525 -0.37735,1.13208c-0.26683,0.26683 -0.37735,0.754715 -0.754715,1.13208c-0.377365,0.377365 -0.232956,0.783447 -0.377365,1.13208c-0.204224,0.493027 -0.550491,0.639023 -0.754715,1.132065c-0.144409,0.348633 -0.550491,1.016403 -0.754715,1.509445c-0.144409,0.348633 -0.377365,1.132065 -0.377365,1.50943c0,0.37735 -0.37735,1.132065 -0.37735,1.50943c0,0.377365 -0.377365,0.377365 -0.377365,0.754715l0,0.377365l-0.37735,0" id="svg_33" fill-opacity="null" stroke-opacity="null" stroke-width="8.5" stroke="#000" fill="none"/>
  <path d="m204.905655,241.485855c-0.37735,0 -0.710007,0.826523 -1.88678,1.50943c-1.459625,0.847061 -3.446045,1.417114 -4.90567,2.26416c-1.176788,0.682907 -1.566879,0.843246 -2.264145,1.132065c-0.986084,0.408447 -1.840973,1.318298 -3.018875,1.509445c-0.372482,0.06044 -1.189514,0.465897 -1.886795,0.754715c-0.493027,0.204224 -0.754715,0.37735 -1.50943,0.37735c-0.37735,0 -0.754715,0 -1.13208,0c-0.37735,0 -1.132065,0 -2.264145,0.377365c-1.13208,0.37735 -1.997314,0.487885 -2.264145,0.754715c-0.26683,0.26683 0,0.754715 -0.377365,0.754715c-0.37735,0 -0.550491,0.261673 -0.754715,0.754715c-0.144409,0.348633 -0.487885,0.487885 -0.754715,0.754715c-0.26683,0.26683 -0.754715,0 -0.754715,0.377365l-0.754715,0l0,0.377365" id="svg_34" fill-opacity="null" stroke-opacity="null" stroke-width="8.5" stroke="#000" fill="none"/>
  <path d="m121.132072,255.070755c0,0.377365 -0.754715,0.377365 -1.132072,0.377365c-0.377357,0 -0.678108,-0.096802 -1.132072,-0.377365c-1.015091,-0.627365 -2.21833,-0.940918 -3.396233,-1.132065c-0.744972,-0.120895 -0.784996,-0.117279 -1.886787,-0.377365c-0.821228,-0.193863 -1.160805,-0.232941 -1.509438,-0.37735c-0.493042,-0.204224 -1.753769,-1.499069 -3.396225,-1.886795c-1.101791,-0.260101 -2.264153,-0.754715 -3.018867,-0.754715c-0.377357,0 -0.387451,-0.290665 -0.754715,-0.377365c-0.821236,-0.193863 -0.639038,-0.927856 -1.13208,-1.13208c-0.348633,-0.144409 -1.016388,-0.550491 -1.50943,-0.754715c-0.348633,-0.144409 -0.754715,-0.37735 -1.13208,-0.754715c-0.377357,-0.377365 -0.865242,-0.110535 -1.132072,-0.377365c-0.26683,-0.26683 -1.189049,-0.541351 -1.886795,-1.50943c-0.220642,-0.306122 -0.754715,-1.132065 -1.50943,-1.886795l-0.377357,0l0,-0.37735" id="svg_35" fill-opacity="null" stroke-opacity="null" stroke-width="8.5" stroke="#000" fill="none"/>
  <path d="m54.71698,201.86322c-0.377357,0 -0.110519,-0.4879 -0.377357,-0.75473c-0.26683,-0.26683 -0.581314,-0.774902 -0.754715,-1.50943c-0.193867,-0.821228 -1.318287,-1.840973 -1.509438,-3.01886c-0.060448,-0.372498 -0.290661,-0.764832 -0.377357,-1.13208c-0.193863,-0.821228 -0.638702,-1.57962 -1.132076,-2.264145c-0.312042,-0.432938 -0.261333,-0.824921 -0.754715,-1.509445c-0.312038,-0.432922 -0.938213,-0.688202 -1.132076,-1.50943c-0.0867,-0.367264 -0.638695,-1.202271 -1.132076,-1.886795c-0.312038,-0.432922 -0.535419,-0.912781 -1.132076,-1.50943c-0.596657,-0.596649 -0.487877,-1.619965 -0.754715,-1.886795c-0.26683,-0.26683 -0.377357,-0.37735 -0.754719,-0.754715c-0.377357,-0.377365 -0.377357,-0.754715 -0.377357,-1.13208c0,-0.37735 0,-0.754715 0,-1.132065c0,-0.377365 0,-0.75473 0,-1.13208l0,0.37735" id="svg_36" fill-opacity="null" stroke-opacity="null" stroke-width="8.5" stroke="#000" fill="none"/>
 </g>
</svg>