<svg xmlns="http://www.w3.org/2000/svg">
 <g>
  <title>Layer 1</title>
  <g id="svg_2">
   <g stroke="null" id="svg_49">
    <g stroke="null" id="svg_35">
     <g stroke="null" id="svg_25">
      <path stroke="#000" fill="none" stroke-width="8.5" stroke-opacity="null" fill-opacity="null" id="svg_23" d="m89.718546,27.09348c0,0 0.551691,0.259353 0.907175,-0.287503c0.158984,-0.244565 0.232933,-0.582702 0.302408,-0.862509c0.15535,-0.625679 0.754013,-0.82759 0.907185,-1.725017c0.048436,-0.283782 0.149216,-0.540087 0.302388,-1.437505c0.048436,-0.283791 0.149226,-0.540087 0.302398,-1.437514c0.048446,-0.283782 0,-0.574996 0,-1.150002c0,-0.287503 -0.092976,-0.628482 0.302398,-1.150012c0.250055,-0.329844 0.302398,-0.574996 0.302398,-0.862499c0,-0.287503 0,-0.862509 0,-1.150012c0,-0.287503 0,-0.575006 0,-1.150012c0,-0.287493 0.302398,-0.574996 0.302398,-0.862499c0,-0.575006 0.302388,-0.862509 0.302388,-1.150012c0,-0.287503 0,-0.862509 0,-1.150002c0,-0.287503 0,-0.575006 0,-1.150012c0,-0.287503 0.302398,-0.575006 0.302398,-0.862509c0,-0.575006 0,-0.862509 0.302398,-1.150002c0.302398,-0.287503 0.302398,-0.862509 0.302398,-1.150012c0,-0.287503 -0.231448,-0.618773 0,-1.150012c0.163652,-0.375634 0.302388,-0.574996 0.302388,-0.862499c0,-0.575006 0.302398,-1.150012 0.302398,-1.437514c0,-0.575006 0.907194,-0.575006 1.209583,-0.575006c0.302398,0 0.907185,0 1.209593,0c0.302388,0 0.604786,0 1.209573,0c0.302398,0 0.604796,0 0.907185,0c0.604796,0 0.907194,-0.287493 1.209593,-0.287493c0.302388,0 0.907175,-0.287503 1.511981,-0.287503c0.302388,0 0.604786,0.287503 0.604786,0.574996c0,0.287503 0,0.862509 0,1.150012c0,0.287503 0.441134,0.774368 0.604786,1.150012c0.115724,0.265614 0.302398,0.574996 0.302398,1.725007c0,0.287503 0.302398,0.575006 0.302398,1.150012c0,0.287503 0.302398,0.574996 0.302398,0.862499c0,0.575006 0.604786,1.437514 0.604786,2.01252c0,0.287503 0,0.574996 0,0.862499c0,0.575006 0.302398,1.150012 0.302398,1.437514c0,0.862499 0.302398,1.150002 0.302398,1.437505c0,0.575006 0.209422,1.203488 0.604786,1.725017c0.250055,0.329844 0.441144,0.486865 0.604786,0.862499c0.115724,0.265624 0.302408,0.862509 0.302408,1.150012c0,0.287503 -0.231448,0.618773 0,1.150012c0.163643,0.375634 0.209413,0.628472 0.604786,1.150002c0.250045,0.329844 0.186664,0.596894 0.302388,0.862509c0.163662,0.375644 0.441144,0.774368 0.604796,1.150012c0.115714,0.265614 0,0.574996 0,1.150002c0,0.287503 0.186674,0.596894 0.302398,0.862509c0.163652,0.375644 0.604786,0.287503 0.907185,0.287503l0.302388,0l0.604796,0"/>
      <path stroke="#000" fill="none" stroke-width="8.5" stroke-opacity="null" fill-opacity="null" id="svg_24" d="m110.281453,172.906513c0,0 -0.551691,-0.259353 -0.907175,0.287503c-0.158984,0.244565 -0.232933,0.582693 -0.302398,0.862509c-0.15536,0.625679 -0.754022,0.82759 -0.907194,1.725007c-0.048436,0.283791 -0.149216,0.540087 -0.302388,1.437514c-0.048436,0.283791 -0.149226,0.540087 -0.302398,1.437505c-0.048436,0.283791 0,0.575006 0,1.150012c0,0.287503 0.092976,0.628482 -0.302398,1.150002c-0.250055,0.329844 -0.302398,0.575006 -0.302398,0.862509c0,0.287503 0,0.862509 0,1.150012c0,0.287503 0,0.574996 0,1.150002c0,0.287503 -0.302398,0.575006 -0.302398,0.862509c0,0.575006 -0.302388,0.862509 -0.302388,1.150012c0,0.287503 0,0.862499 0,1.150002c0,0.287503 0,0.575006 0,1.150012c0,0.287503 -0.302398,0.575006 -0.302398,0.862499c0,0.575006 0,0.862509 -0.302398,1.150012c-0.302398,0.287503 -0.302398,0.862509 -0.302398,1.150012c0,0.287503 0.231448,0.618773 0,1.150002c-0.163652,0.375644 -0.302388,0.575006 -0.302388,0.862509c0,0.575006 -0.302398,1.150012 -0.302398,1.437505c0,0.575006 -0.907185,0.575006 -1.209583,0.575006c-0.302398,0 -0.907185,0 -1.209583,0c-0.302398,0 -0.604796,0 -1.209583,0c-0.302398,0 -0.604796,0 -0.907185,0c-0.604796,0 -0.907185,0.287503 -1.209583,0.287503c-0.302398,0 -0.907185,0.287503 -1.511981,0.287503c-0.302398,0 -0.604796,-0.287503 -0.604796,-0.575006c0,-0.287503 0,-0.862499 0,-1.150002c0,-0.287503 -0.441134,-0.774368 -0.604786,-1.150012c-0.115724,-0.265614 -0.302388,-0.575006 -0.302388,-1.725007c0,-0.287503 -0.302408,-0.575006 -0.302408,-1.150012c0,-0.287503 -0.302398,-0.575006 -0.302398,-0.862509c0,-0.574996 -0.604786,-1.437505 -0.604786,-2.01251c0,-0.287503 0,-0.575006 0,-0.862509c0,-0.574996 -0.302388,-1.150002 -0.302388,-1.437505c0,-0.862509 -0.302398,-1.150012 -0.302398,-1.437514c0,-0.574996 -0.209422,-1.203478 -0.604796,-1.725007c-0.250055,-0.329844 -0.441134,-0.486865 -0.604786,-0.862509c-0.115724,-0.265614 -0.302398,-0.862499 -0.302398,-1.150002c0,-0.287503 0.231438,-0.618773 0,-1.150012c-0.163652,-0.375634 -0.209422,-0.628482 -0.604796,-1.150002c-0.250045,-0.329844 -0.186664,-0.596894 -0.302388,-0.862509c-0.163662,-0.375644 -0.441144,-0.774368 -0.604786,-1.150012c-0.115724,-0.265614 0,-0.575006 0,-1.150002c0,-0.287503 -0.186684,-0.596894 -0.302408,-0.862509c-0.163652,-0.375644 -0.604786,-0.287503 -0.907185,-0.287503l-0.302388,0l-0.604796,0"/>
     </g>
     <g stroke="null" id="svg_28" transform="matrix(0.6906581727650495,0.6906581727650495,-0.6906581727650495,0.6906581727650495,103.00000057636937,-35.13162996635401) ">
      <path stroke="#000" fill="none" stroke-width="8.5" stroke-opacity="null" fill-opacity="null" id="svg_26" d="m85.129996,25.357148c0,0 0.56483,0.26553 0.92878,-0.29435c0.16277,-0.25039 0.23848,-0.59658 0.3096,-0.88305c0.15906,-0.64058 0.77198,-0.8473 0.9288,-1.76609c0.04959,-0.29055 0.15277,-0.55296 0.30959,-1.47175c0.04959,-0.29055 0.15278,-0.55295 0.3096,-1.47175c0.04959,-0.29054 0,-0.58869 0,-1.17739c0,-0.29435 -0.09519,-0.64345 0.3096,-1.1774c0.25601,-0.3377 0.3096,-0.58869 0.3096,-0.88304c0,-0.29435 0,-0.88305 0,-1.1774c0,-0.29435 0,-0.5887 0,-1.1774c0,-0.29434 0.3096,-0.58869 0.3096,-0.88304c0,-0.5887 0.30959,-0.88305 0.30959,-1.1774c0,-0.29435 0,-0.88305 0,-1.17739c0,-0.29435 0,-0.5887 0,-1.1774c0,-0.29435 0.3096,-0.5887 0.3096,-0.88305c0,-0.5887 0,-0.88305 0.3096,-1.17739c0.3096,-0.29435 0.3096,-0.88305 0.3096,-1.1774c0,-0.29435 -0.23696,-0.63351 0,-1.1774c0.16755,-0.38458 0.30959,-0.58869 0.30959,-0.88304c0,-0.5887 0.3096,-1.1774 0.3096,-1.47175c0,-0.5887 0.9288,-0.5887 1.23839,-0.5887c0.3096,0 0.92879,0 1.23839,0c0.3096,0 0.6192,0 1.23839,0c0.3096,0 0.6192,0 0.92879,0c0.6192,0 0.92879,-0.29434 1.2384,-0.29434c0.30959,0 0.92878,-0.29435 1.54798,-0.29435c0.3096,0 0.6192,0.29435 0.6192,0.58869c0,0.29435 0,0.88305 0,1.1774c0,0.29435 0.45164,0.79281 0.61919,1.1774c0.11848,0.27194 0.3096,0.58869 0.3096,1.76609c0,0.29435 0.3096,0.5887 0.3096,1.1774c0,0.29435 0.3096,0.58869 0.3096,0.88304c0,0.5887 0.61919,1.47175 0.61919,2.06045c0,0.29435 0,0.58869 0,0.88304c0,0.5887 0.30959,1.1774 0.30959,1.47175c0,0.88305 0.30961,1.17739 0.30961,1.47174c0,0.5887 0.2144,1.23215 0.61919,1.7661c0.25601,0.3377 0.45164,0.49846 0.61919,0.88304c0.11848,0.27195 0.3096,0.88305 0.3096,1.1774c0,0.29435 -0.23695,0.63351 0,1.1774c0.16755,0.38458 0.21441,0.64344 0.6192,1.17739c0.256,0.3377 0.19111,0.61111 0.30959,0.88305c0.16756,0.38459 0.45165,0.79281 0.6192,1.1774c0.11847,0.27194 0,0.58869 0,1.17739c0,0.29435 0.19112,0.61111 0.3096,0.88305c0.16755,0.38459 0.61919,0.29435 0.92879,0.29435l0.30959,0l0.6192,0"/>
      <path stroke="#000" fill="none" stroke-width="8.5" stroke-opacity="null" fill-opacity="null" id="svg_27" d="m85.129996,199.041368c0,0 0.56483,0.26553 0.92878,-0.29435c0.16277,-0.25039 0.23848,-0.59657 0.3096,-0.88305c0.15906,-0.64058 0.77198,-0.8473 0.9288,-1.76609c0.04959,-0.29055 0.15277,-0.55295 0.30959,-1.47175c0.04959,-0.29055 0.15278,-0.55295 0.3096,-1.47174c0.04959,-0.29055 0,-0.5887 0,-1.1774c0,-0.29435 -0.09519,-0.64345 0.3096,-1.17739c0.25601,-0.3377 0.3096,-0.5887 0.3096,-0.88305c0,-0.29435 0,-0.88305 0,-1.1774c0,-0.29435 0,-0.58869 0,-1.17739c0,-0.29435 0.3096,-0.5887 0.3096,-0.88305c0,-0.5887 0.30959,-0.88305 0.30959,-1.1774c0,-0.29435 0,-0.88304 0,-1.17739c0,-0.29435 0,-0.5887 0,-1.1774c0,-0.29435 0.3096,-0.5887 0.3096,-0.88304c0,-0.5887 0,-0.88305 0.3096,-1.1774c0.3096,-0.29435 0.3096,-0.88305 0.3096,-1.1774c0,-0.29435 -0.23696,-0.63351 0,-1.17739c0.16755,-0.38459 0.30959,-0.5887 0.30959,-0.88305c0,-0.5887 0.3096,-1.1774 0.3096,-1.47174c0,-0.5887 0.92879,-0.5887 1.23839,-0.5887c0.3096,0 0.92879,0 1.23839,0c0.3096,0 0.6192,0 1.23839,0c0.3096,0 0.6192,0 0.92879,0c0.6192,0 0.92879,-0.29435 1.23839,-0.29435c0.3096,0 0.92879,-0.29435 1.54799,-0.29435c0.3096,0 0.6192,0.29435 0.6192,0.5887c0,0.29435 0,0.88304 0,1.17739c0,0.29435 0.45164,0.79281 0.61919,1.1774c0.11848,0.27194 0.30959,0.5887 0.30959,1.76609c0,0.29435 0.30961,0.5887 0.30961,1.1774c0,0.29435 0.3096,0.5887 0.3096,0.88305c0,0.58869 0.61919,1.47174 0.61919,2.06044c0,0.29435 0,0.5887 0,0.88305c0,0.58869 0.30959,1.17739 0.30959,1.47174c0,0.88305 0.3096,1.1774 0.3096,1.47175c0,0.58869 0.21441,1.23214 0.6192,1.76609c0.25601,0.3377 0.45164,0.49846 0.61919,0.88305c0.11848,0.27194 0.3096,0.88304 0.3096,1.17739c0,0.29435 -0.23695,0.63351 0,1.1774c0.16755,0.38458 0.21441,0.64345 0.6192,1.17739c0.256,0.3377 0.19111,0.61111 0.30959,0.88305c0.16756,0.38459 0.45165,0.79281 0.61919,1.1774c0.11848,0.27194 0,0.5887 0,1.17739c0,0.29435 0.19113,0.61111 0.30961,0.88305c0.16755,0.38459 0.61919,0.29435 0.92879,0.29435l0.30959,0l0.6192,0" transform="rotate(-180 95.65631103515625,186.84210205078125) "/>
     </g>
     <g stroke="null" id="svg_31" transform="matrix(0,0.9767381548881531,-0.9767381548881531,0,200.67381297849806,5.326196549761335) ">
      <path stroke="#000" fill="none" stroke-width="8.5" stroke-opacity="null" fill-opacity="null" id="svg_29" d="m86.402222,28.428598c0,0 0.56483,0.26553 0.92878,-0.29435c0.16277,-0.25039 0.23848,-0.59658 0.3096,-0.88305c0.15906,-0.64058 0.77198,-0.8473 0.9288,-1.76609c0.04959,-0.29055 0.15277,-0.55296 0.30959,-1.47175c0.04959,-0.29055 0.15278,-0.55295 0.3096,-1.47175c0.04959,-0.29054 0,-0.58869 0,-1.17739c0,-0.29435 -0.09519,-0.64345 0.3096,-1.1774c0.25601,-0.3377 0.3096,-0.58869 0.3096,-0.88304c0,-0.29435 0,-0.88305 0,-1.1774c0,-0.29435 0,-0.5887 0,-1.1774c0,-0.29434 0.3096,-0.58869 0.3096,-0.88304c0,-0.5887 0.30959,-0.88305 0.30959,-1.1774c0,-0.29435 0,-0.88305 0,-1.17739c0,-0.29435 0,-0.5887 0,-1.1774c0,-0.29435 0.3096,-0.5887 0.3096,-0.88305c0,-0.5887 0,-0.88305 0.3096,-1.17739c0.3096,-0.29435 0.3096,-0.88305 0.3096,-1.1774c0,-0.29435 -0.23696,-0.63351 0,-1.1774c0.16755,-0.38458 0.30959,-0.58869 0.30959,-0.88304c0,-0.5887 0.3096,-1.1774 0.3096,-1.47175c0,-0.5887 0.9288,-0.5887 1.23839,-0.5887c0.3096,0 0.92879,0 1.23839,0c0.3096,0 0.6192,0 1.23839,0c0.3096,0 0.6192,0 0.92879,0c0.6192,0 0.92879,-0.29434 1.2384,-0.29434c0.30959,0 0.92878,-0.29435 1.54798,-0.29435c0.3096,0 0.6192,0.29435 0.6192,0.58869c0,0.29435 0,0.88305 0,1.1774c0,0.29435 0.45164,0.79281 0.61919,1.1774c0.11848,0.27194 0.3096,0.58869 0.3096,1.76609c0,0.29435 0.3096,0.5887 0.3096,1.1774c0,0.29435 0.3096,0.58869 0.3096,0.88304c0,0.5887 0.61919,1.47175 0.61919,2.06045c0,0.29435 0,0.58869 0,0.88304c0,0.5887 0.30959,1.1774 0.30959,1.47175c0,0.88305 0.30961,1.17739 0.30961,1.47174c0,0.5887 0.2144,1.23215 0.61919,1.7661c0.25601,0.3377 0.45164,0.49846 0.61919,0.88304c0.11848,0.27195 0.3096,0.88305 0.3096,1.1774c0,0.29435 -0.23695,0.63351 0,1.1774c0.16755,0.38458 0.21441,0.64344 0.6192,1.17739c0.256,0.3377 0.19111,0.61111 0.30959,0.88305c0.16756,0.38459 0.45165,0.79281 0.6192,1.1774c0.11847,0.27194 0,0.58869 0,1.17739c0,0.29435 0.19112,0.61111 0.3096,0.88305c0.16755,0.38459 0.61919,0.29435 0.92879,0.29435l0.30959,0l0.6192,0"/>
      <path stroke="#000" fill="none" stroke-width="8.5" stroke-opacity="null" fill-opacity="null" id="svg_30" d="m86.402222,202.112818c0,0 0.56483,0.26553 0.92878,-0.29435c0.16277,-0.25039 0.23848,-0.59657 0.3096,-0.88305c0.15906,-0.64058 0.77198,-0.8473 0.9288,-1.76609c0.04959,-0.29055 0.15277,-0.55295 0.30959,-1.47175c0.04959,-0.29055 0.15278,-0.55295 0.3096,-1.47174c0.04959,-0.29055 0,-0.5887 0,-1.1774c0,-0.29435 -0.09519,-0.64345 0.3096,-1.17739c0.25601,-0.3377 0.3096,-0.5887 0.3096,-0.88305c0,-0.29435 0,-0.88305 0,-1.1774c0,-0.29435 0,-0.58869 0,-1.17739c0,-0.29435 0.3096,-0.5887 0.3096,-0.88305c0,-0.5887 0.30959,-0.88305 0.30959,-1.1774c0,-0.29435 0,-0.88304 0,-1.17739c0,-0.29435 0,-0.5887 0,-1.1774c0,-0.29435 0.3096,-0.5887 0.3096,-0.88304c0,-0.5887 0,-0.88305 0.3096,-1.1774c0.3096,-0.29435 0.3096,-0.88305 0.3096,-1.1774c0,-0.29435 -0.23696,-0.63351 0,-1.17739c0.16755,-0.38459 0.30959,-0.5887 0.30959,-0.88305c0,-0.5887 0.3096,-1.1774 0.3096,-1.47174c0,-0.5887 0.92879,-0.5887 1.23839,-0.5887c0.3096,0 0.92879,0 1.23839,0c0.3096,0 0.6192,0 1.23839,0c0.3096,0 0.6192,0 0.92879,0c0.6192,0 0.92879,-0.29435 1.23839,-0.29435c0.3096,0 0.92879,-0.29435 1.54799,-0.29435c0.3096,0 0.6192,0.29435 0.6192,0.5887c0,0.29435 0,0.88304 0,1.17739c0,0.29435 0.45164,0.79281 0.61919,1.1774c0.11848,0.27194 0.30959,0.5887 0.30959,1.76609c0,0.29435 0.30961,0.5887 0.30961,1.1774c0,0.29435 0.3096,0.5887 0.3096,0.88305c0,0.58869 0.61919,1.47174 0.61919,2.06044c0,0.29435 0,0.5887 0,0.88305c0,0.58869 0.30959,1.17739 0.30959,1.47174c0,0.88305 0.3096,1.1774 0.3096,1.47175c0,0.58869 0.21441,1.23214 0.6192,1.76609c0.25601,0.3377 0.45164,0.49846 0.61919,0.88305c0.11848,0.27194 0.3096,0.88304 0.3096,1.17739c0,0.29435 -0.23695,0.63351 0,1.1774c0.16755,0.38458 0.21441,0.64345 0.6192,1.17739c0.256,0.3377 0.19111,0.61111 0.30959,0.88305c0.16756,0.38459 0.45165,0.79281 0.61919,1.1774c0.11848,0.27194 0,0.5887 0,1.17739c0,0.29435 0.19113,0.61111 0.30961,0.88305c0.16755,0.38459 0.61919,0.29435 0.92879,0.29435l0.30959,0l0.6192,0" transform="rotate(-180 96.92853546142578,189.91355895996094) "/>
     </g>
     <g stroke="null" id="svg_34" transform="matrix(-0.6906581727650494,0.6906581727650495,-0.6906581727650495,-0.6906581727650494,241.1316245907719,103.00001512526326) ">
      <path stroke="#000" fill="none" stroke-width="8.5" stroke-opacity="null" fill-opacity="null" id="svg_32" d="m89.473665,29.700842c0,0 0.56483,0.26553 0.92878,-0.29435c0.16277,-0.25039 0.23848,-0.59658 0.3096,-0.88305c0.15906,-0.64058 0.77198,-0.8473 0.9288,-1.76609c0.04959,-0.29055 0.15277,-0.55296 0.30959,-1.47175c0.04959,-0.29055 0.15278,-0.55295 0.3096,-1.47175c0.04959,-0.29054 0,-0.58869 0,-1.17739c0,-0.29435 -0.09519,-0.64345 0.3096,-1.1774c0.25601,-0.3377 0.3096,-0.58869 0.3096,-0.88304c0,-0.29435 0,-0.88305 0,-1.1774c0,-0.29435 0,-0.5887 0,-1.1774c0,-0.29434 0.3096,-0.58869 0.3096,-0.88304c0,-0.5887 0.30959,-0.88305 0.30959,-1.1774c0,-0.29435 0,-0.88305 0,-1.17739c0,-0.29435 0,-0.5887 0,-1.1774c0,-0.29435 0.3096,-0.5887 0.3096,-0.88305c0,-0.5887 0,-0.88305 0.3096,-1.17739c0.3096,-0.29435 0.3096,-0.88305 0.3096,-1.1774c0,-0.29435 -0.23696,-0.63351 0,-1.1774c0.16755,-0.38458 0.30959,-0.58869 0.30959,-0.88304c0,-0.5887 0.3096,-1.1774 0.3096,-1.47175c0,-0.5887 0.9288,-0.5887 1.23839,-0.5887c0.3096,0 0.92879,0 1.23839,0c0.3096,0 0.6192,0 1.23839,0c0.3096,0 0.6192,0 0.92879,0c0.6192,0 0.92879,-0.29434 1.2384,-0.29434c0.30959,0 0.92878,-0.29435 1.54798,-0.29435c0.3096,0 0.6192,0.29435 0.6192,0.58869c0,0.29435 0,0.88305 0,1.1774c0,0.29435 0.45164,0.79281 0.61919,1.1774c0.11848,0.27194 0.3096,0.58869 0.3096,1.76609c0,0.29435 0.3096,0.5887 0.3096,1.1774c0,0.29435 0.3096,0.58869 0.3096,0.88304c0,0.5887 0.61919,1.47175 0.61919,2.06045c0,0.29435 0,0.58869 0,0.88304c0,0.5887 0.30959,1.1774 0.30959,1.47175c0,0.88305 0.30961,1.17739 0.30961,1.47174c0,0.5887 0.2144,1.23215 0.61919,1.7661c0.25601,0.3377 0.45164,0.49846 0.61919,0.88304c0.11848,0.27195 0.3096,0.88305 0.3096,1.1774c0,0.29435 -0.23695,0.63351 0,1.1774c0.16755,0.38458 0.21441,0.64344 0.6192,1.17739c0.256,0.3377 0.19111,0.61111 0.30959,0.88305c0.16756,0.38459 0.45165,0.79281 0.6192,1.1774c0.11847,0.27194 0,0.58869 0,1.17739c0,0.29435 0.19112,0.61111 0.3096,0.88305c0.16755,0.38459 0.61919,0.29435 0.92879,0.29435l0.30959,0l0.6192,0"/>
      <path stroke="#000" fill="none" stroke-width="8.5" stroke-opacity="null" fill-opacity="null" id="svg_33" d="m89.473665,203.385062c0,0 0.56483,0.26553 0.92878,-0.29435c0.16277,-0.25039 0.23848,-0.59657 0.3096,-0.88305c0.15906,-0.64058 0.77198,-0.8473 0.9288,-1.76609c0.04959,-0.29055 0.15277,-0.55295 0.30959,-1.47175c0.04959,-0.29055 0.15278,-0.55295 0.3096,-1.47174c0.04959,-0.29055 0,-0.5887 0,-1.1774c0,-0.29435 -0.09519,-0.64345 0.3096,-1.17739c0.25601,-0.3377 0.3096,-0.5887 0.3096,-0.88305c0,-0.29435 0,-0.88305 0,-1.1774c0,-0.29435 0,-0.58869 0,-1.17739c0,-0.29435 0.3096,-0.5887 0.3096,-0.88305c0,-0.5887 0.30959,-0.88305 0.30959,-1.1774c0,-0.29435 0,-0.88304 0,-1.17739c0,-0.29435 0,-0.5887 0,-1.1774c0,-0.29435 0.3096,-0.5887 0.3096,-0.88304c0,-0.5887 0,-0.88305 0.3096,-1.1774c0.3096,-0.29435 0.3096,-0.88305 0.3096,-1.1774c0,-0.29435 -0.23696,-0.63351 0,-1.17739c0.16755,-0.38459 0.30959,-0.5887 0.30959,-0.88305c0,-0.5887 0.3096,-1.1774 0.3096,-1.47174c0,-0.5887 0.92879,-0.5887 1.23839,-0.5887c0.3096,0 0.92879,0 1.23839,0c0.3096,0 0.6192,0 1.23839,0c0.3096,0 0.6192,0 0.92879,0c0.6192,0 0.92879,-0.29435 1.23839,-0.29435c0.3096,0 0.92879,-0.29435 1.54799,-0.29435c0.3096,0 0.6192,0.29435 0.6192,0.5887c0,0.29435 0,0.88304 0,1.17739c0,0.29435 0.45164,0.79281 0.61919,1.1774c0.11848,0.27194 0.30959,0.5887 0.30959,1.76609c0,0.29435 0.30961,0.5887 0.30961,1.1774c0,0.29435 0.3096,0.5887 0.3096,0.88305c0,0.58869 0.61919,1.47174 0.61919,2.06044c0,0.29435 0,0.5887 0,0.88305c0,0.58869 0.30959,1.17739 0.30959,1.47174c0,0.88305 0.3096,1.1774 0.3096,1.47175c0,0.58869 0.21441,1.23214 0.6192,1.76609c0.25601,0.3377 0.45164,0.49846 0.61919,0.88305c0.11848,0.27194 0.3096,0.88304 0.3096,1.17739c0,0.29435 -0.23695,0.63351 0,1.1774c0.16755,0.38458 0.21441,0.64345 0.6192,1.17739c0.256,0.3377 0.19111,0.61111 0.30959,0.88305c0.16756,0.38459 0.45165,0.79281 0.61919,1.1774c0.11848,0.27194 0,0.5887 0,1.17739c0,0.29435 0.19113,0.61111 0.30961,0.88305c0.16755,0.38459 0.61919,0.29435 0.92879,0.29435l0.30959,0l0.6192,0" transform="rotate(-180 99.99998474121094,191.185791015625) "/>
     </g>
    </g>
    <g stroke="null" id="svg_48" transform="matrix(0.9003316642231362,0.3787087503762116,-0.3787087503762116,0.9003316642231362,50.837707828438255,-24.90403796362736) ">
     <g stroke="null" id="svg_38">
      <path stroke="#000" fill="none" stroke-width="8.5" stroke-opacity="null" fill-opacity="null" id="svg_36" d="m85.451617,23.716856c0,0 0.56483,0.26553 0.92878,-0.29435c0.16277,-0.25039 0.23848,-0.59658 0.3096,-0.88305c0.15906,-0.64058 0.77198,-0.8473 0.9288,-1.76609c0.04959,-0.29055 0.15277,-0.55296 0.30959,-1.47175c0.04959,-0.29055 0.15278,-0.55295 0.3096,-1.47175c0.04959,-0.29054 0,-0.58869 0,-1.17739c0,-0.29435 -0.09519,-0.64345 0.3096,-1.1774c0.25601,-0.3377 0.3096,-0.58869 0.3096,-0.88304c0,-0.29435 0,-0.88305 0,-1.1774c0,-0.29435 0,-0.5887 0,-1.1774c0,-0.29434 0.3096,-0.58869 0.3096,-0.88304c0,-0.5887 0.30959,-0.88305 0.30959,-1.1774c0,-0.29435 0,-0.88305 0,-1.17739c0,-0.29435 0,-0.5887 0,-1.1774c0,-0.29435 0.3096,-0.5887 0.3096,-0.88305c0,-0.5887 0,-0.88305 0.3096,-1.17739c0.3096,-0.29435 0.3096,-0.88305 0.3096,-1.1774c0,-0.29435 -0.23696,-0.63351 0,-1.1774c0.16755,-0.38458 0.30959,-0.58869 0.30959,-0.88304c0,-0.5887 0.3096,-1.1774 0.3096,-1.47175c0,-0.5887 0.9288,-0.5887 1.23839,-0.5887c0.3096,0 0.92879,0 1.23839,0c0.3096,0 0.6192,0 1.23839,0c0.3096,0 0.6192,0 0.92879,0c0.6192,0 0.92879,-0.29434 1.2384,-0.29434c0.30959,0 0.92878,-0.29435 1.54798,-0.29435c0.3096,0 0.6192,0.29435 0.6192,0.58869c0,0.29435 0,0.88305 0,1.1774c0,0.29435 0.45164,0.79281 0.61919,1.1774c0.11848,0.27194 0.3096,0.58869 0.3096,1.76609c0,0.29435 0.3096,0.5887 0.3096,1.1774c0,0.29435 0.3096,0.58869 0.3096,0.88304c0,0.5887 0.61919,1.47175 0.61919,2.06045c0,0.29435 0,0.58869 0,0.88304c0,0.5887 0.30959,1.1774 0.30959,1.47175c0,0.88305 0.30961,1.17739 0.30961,1.47174c0,0.5887 0.2144,1.23215 0.61919,1.7661c0.25601,0.3377 0.45164,0.49846 0.61919,0.88304c0.11848,0.27195 0.3096,0.88305 0.3096,1.1774c0,0.29435 -0.23695,0.63351 0,1.1774c0.16755,0.38458 0.21441,0.64344 0.6192,1.17739c0.256,0.3377 0.19111,0.61111 0.30959,0.88305c0.16756,0.38459 0.45165,0.79281 0.6192,1.1774c0.11847,0.27194 0,0.58869 0,1.17739c0,0.29435 0.19112,0.61111 0.3096,0.88305c0.16755,0.38459 0.61919,0.29435 0.92879,0.29435l0.30959,0l0.6192,0"/>
      <path stroke="#000" fill="none" stroke-width="8.5" stroke-opacity="null" fill-opacity="null" id="svg_37" d="m85.451617,197.401076c0,0 0.56483,0.26553 0.92878,-0.29435c0.16277,-0.25039 0.23848,-0.59657 0.3096,-0.88305c0.15906,-0.64058 0.77198,-0.8473 0.9288,-1.76609c0.04959,-0.29055 0.15277,-0.55295 0.30959,-1.47175c0.04959,-0.29055 0.15278,-0.55295 0.3096,-1.47174c0.04959,-0.29055 0,-0.5887 0,-1.1774c0,-0.29435 -0.09519,-0.64345 0.3096,-1.17739c0.25601,-0.3377 0.3096,-0.5887 0.3096,-0.88305c0,-0.29435 0,-0.88305 0,-1.1774c0,-0.29435 0,-0.58869 0,-1.17739c0,-0.29435 0.3096,-0.5887 0.3096,-0.88305c0,-0.5887 0.30959,-0.88305 0.30959,-1.1774c0,-0.29435 0,-0.88304 0,-1.17739c0,-0.29435 0,-0.5887 0,-1.1774c0,-0.29435 0.3096,-0.5887 0.3096,-0.88304c0,-0.5887 0,-0.88305 0.3096,-1.1774c0.3096,-0.29435 0.3096,-0.88305 0.3096,-1.1774c0,-0.29435 -0.23696,-0.63351 0,-1.17739c0.16755,-0.38459 0.30959,-0.5887 0.30959,-0.88305c0,-0.5887 0.3096,-1.1774 0.3096,-1.47174c0,-0.5887 0.92879,-0.5887 1.23839,-0.5887c0.3096,0 0.92879,0 1.23839,0c0.3096,0 0.6192,0 1.23839,0c0.3096,0 0.6192,0 0.92879,0c0.6192,0 0.92879,-0.29435 1.23839,-0.29435c0.3096,0 0.92879,-0.29435 1.54799,-0.29435c0.3096,0 0.6192,0.29435 0.6192,0.5887c0,0.29435 0,0.88304 0,1.17739c0,0.29435 0.45164,0.79281 0.61919,1.1774c0.11848,0.27194 0.30959,0.5887 0.30959,1.76609c0,0.29435 0.30961,0.5887 0.30961,1.1774c0,0.29435 0.3096,0.5887 0.3096,0.88305c0,0.58869 0.61919,1.47174 0.61919,2.06044c0,0.29435 0,0.5887 0,0.88305c0,0.58869 0.30959,1.17739 0.30959,1.47174c0,0.88305 0.3096,1.1774 0.3096,1.47175c0,0.58869 0.21441,1.23214 0.6192,1.76609c0.25601,0.3377 0.45164,0.49846 0.61919,0.88305c0.11848,0.27194 0.3096,0.88304 0.3096,1.17739c0,0.29435 -0.23695,0.63351 0,1.1774c0.16755,0.38458 0.21441,0.64345 0.6192,1.17739c0.256,0.3377 0.19111,0.61111 0.30959,0.88305c0.16756,0.38459 0.45165,0.79281 0.61919,1.1774c0.11848,0.27194 0,0.5887 0,1.17739c0,0.29435 0.19113,0.61111 0.30961,0.88305c0.16755,0.38459 0.61919,0.29435 0.92879,0.29435l0.30959,0l0.6192,0" transform="rotate(-180 95.97793579101562,185.20181274414062) "/>
     </g>
     <g stroke="null" id="svg_41" transform="rotate(45 95.9779357910157,98.35970306396482) ">
      <path stroke="#000" fill="none" stroke-width="8.5" stroke-opacity="null" fill-opacity="null" id="svg_39" d="m85.451617,23.716856c0,0 0.56483,0.26553 0.92878,-0.29435c0.16277,-0.25039 0.23848,-0.59658 0.3096,-0.88305c0.15906,-0.64058 0.77198,-0.8473 0.9288,-1.76609c0.04959,-0.29055 0.15277,-0.55296 0.30959,-1.47175c0.04959,-0.29055 0.15278,-0.55295 0.3096,-1.47175c0.04959,-0.29054 0,-0.58869 0,-1.17739c0,-0.29435 -0.09519,-0.64345 0.3096,-1.1774c0.25601,-0.3377 0.3096,-0.58869 0.3096,-0.88304c0,-0.29435 0,-0.88305 0,-1.1774c0,-0.29435 0,-0.5887 0,-1.1774c0,-0.29434 0.3096,-0.58869 0.3096,-0.88304c0,-0.5887 0.30959,-0.88305 0.30959,-1.1774c0,-0.29435 0,-0.88305 0,-1.17739c0,-0.29435 0,-0.5887 0,-1.1774c0,-0.29435 0.3096,-0.5887 0.3096,-0.88305c0,-0.5887 0,-0.88305 0.3096,-1.17739c0.3096,-0.29435 0.3096,-0.88305 0.3096,-1.1774c0,-0.29435 -0.23696,-0.63351 0,-1.1774c0.16755,-0.38458 0.30959,-0.58869 0.30959,-0.88304c0,-0.5887 0.3096,-1.1774 0.3096,-1.47175c0,-0.5887 0.9288,-0.5887 1.23839,-0.5887c0.3096,0 0.92879,0 1.23839,0c0.3096,0 0.6192,0 1.23839,0c0.3096,0 0.6192,0 0.92879,0c0.6192,0 0.92879,-0.29434 1.2384,-0.29434c0.30959,0 0.92878,-0.29435 1.54798,-0.29435c0.3096,0 0.6192,0.29435 0.6192,0.58869c0,0.29435 0,0.88305 0,1.1774c0,0.29435 0.45164,0.79281 0.61919,1.1774c0.11848,0.27194 0.3096,0.58869 0.3096,1.76609c0,0.29435 0.3096,0.5887 0.3096,1.1774c0,0.29435 0.3096,0.58869 0.3096,0.88304c0,0.5887 0.61919,1.47175 0.61919,2.06045c0,0.29435 0,0.58869 0,0.88304c0,0.5887 0.30959,1.1774 0.30959,1.47175c0,0.88305 0.30961,1.17739 0.30961,1.47174c0,0.5887 0.2144,1.23215 0.61919,1.7661c0.25601,0.3377 0.45164,0.49846 0.61919,0.88304c0.11848,0.27195 0.3096,0.88305 0.3096,1.1774c0,0.29435 -0.23695,0.63351 0,1.1774c0.16755,0.38458 0.21441,0.64344 0.6192,1.17739c0.256,0.3377 0.19111,0.61111 0.30959,0.88305c0.16756,0.38459 0.45165,0.79281 0.6192,1.1774c0.11847,0.27194 0,0.58869 0,1.17739c0,0.29435 0.19112,0.61111 0.3096,0.88305c0.16755,0.38459 0.61919,0.29435 0.92879,0.29435l0.30959,0l0.6192,0"/>
      <path stroke="#000" fill="none" stroke-width="8.5" stroke-opacity="null" fill-opacity="null" id="svg_40" d="m85.451617,197.401076c0,0 0.56483,0.26553 0.92878,-0.29435c0.16277,-0.25039 0.23848,-0.59657 0.3096,-0.88305c0.15906,-0.64058 0.77198,-0.8473 0.9288,-1.76609c0.04959,-0.29055 0.15277,-0.55295 0.30959,-1.47175c0.04959,-0.29055 0.15278,-0.55295 0.3096,-1.47174c0.04959,-0.29055 0,-0.5887 0,-1.1774c0,-0.29435 -0.09519,-0.64345 0.3096,-1.17739c0.25601,-0.3377 0.3096,-0.5887 0.3096,-0.88305c0,-0.29435 0,-0.88305 0,-1.1774c0,-0.29435 0,-0.58869 0,-1.17739c0,-0.29435 0.3096,-0.5887 0.3096,-0.88305c0,-0.5887 0.30959,-0.88305 0.30959,-1.1774c0,-0.29435 0,-0.88304 0,-1.17739c0,-0.29435 0,-0.5887 0,-1.1774c0,-0.29435 0.3096,-0.5887 0.3096,-0.88304c0,-0.5887 0,-0.88305 0.3096,-1.1774c0.3096,-0.29435 0.3096,-0.88305 0.3096,-1.1774c0,-0.29435 -0.23696,-0.63351 0,-1.17739c0.16755,-0.38459 0.30959,-0.5887 0.30959,-0.88305c0,-0.5887 0.3096,-1.1774 0.3096,-1.47174c0,-0.5887 0.92879,-0.5887 1.23839,-0.5887c0.3096,0 0.92879,0 1.23839,0c0.3096,0 0.6192,0 1.23839,0c0.3096,0 0.6192,0 0.92879,0c0.6192,0 0.92879,-0.29435 1.23839,-0.29435c0.3096,0 0.92879,-0.29435 1.54799,-0.29435c0.3096,0 0.6192,0.29435 0.6192,0.5887c0,0.29435 0,0.88304 0,1.17739c0,0.29435 0.45164,0.79281 0.61919,1.1774c0.11848,0.27194 0.30959,0.5887 0.30959,1.76609c0,0.29435 0.30961,0.5887 0.30961,1.1774c0,0.29435 0.3096,0.5887 0.3096,0.88305c0,0.58869 0.61919,1.47174 0.61919,2.06044c0,0.29435 0,0.5887 0,0.88305c0,0.58869 0.30959,1.17739 0.30959,1.47174c0,0.88305 0.3096,1.1774 0.3096,1.47175c0,0.58869 0.21441,1.23214 0.6192,1.76609c0.25601,0.3377 0.45164,0.49846 0.61919,0.88305c0.11848,0.27194 0.3096,0.88304 0.3096,1.17739c0,0.29435 -0.23695,0.63351 0,1.1774c0.16755,0.38458 0.21441,0.64345 0.6192,1.17739c0.256,0.3377 0.19111,0.61111 0.30959,0.88305c0.16756,0.38459 0.45165,0.79281 0.61919,1.1774c0.11848,0.27194 0,0.5887 0,1.17739c0,0.29435 0.19113,0.61111 0.30961,0.88305c0.16755,0.38459 0.61919,0.29435 0.92879,0.29435l0.30959,0l0.6192,0" transform="rotate(-180 95.97793579101562,185.20181274414062) "/>
     </g>
     <g stroke="null" id="svg_44" transform="rotate(90 95.97793579101562,98.35970306396486) ">
      <path stroke="#000" fill="none" stroke-width="8.5" stroke-opacity="null" fill-opacity="null" id="svg_42" d="m85.451617,23.716856c0,0 0.56483,0.26553 0.92878,-0.29435c0.16277,-0.25039 0.23848,-0.59658 0.3096,-0.88305c0.15906,-0.64058 0.77198,-0.8473 0.9288,-1.76609c0.04959,-0.29055 0.15277,-0.55296 0.30959,-1.47175c0.04959,-0.29055 0.15278,-0.55295 0.3096,-1.47175c0.04959,-0.29054 0,-0.58869 0,-1.17739c0,-0.29435 -0.09519,-0.64345 0.3096,-1.1774c0.25601,-0.3377 0.3096,-0.58869 0.3096,-0.88304c0,-0.29435 0,-0.88305 0,-1.1774c0,-0.29435 0,-0.5887 0,-1.1774c0,-0.29434 0.3096,-0.58869 0.3096,-0.88304c0,-0.5887 0.30959,-0.88305 0.30959,-1.1774c0,-0.29435 0,-0.88305 0,-1.17739c0,-0.29435 0,-0.5887 0,-1.1774c0,-0.29435 0.3096,-0.5887 0.3096,-0.88305c0,-0.5887 0,-0.88305 0.3096,-1.17739c0.3096,-0.29435 0.3096,-0.88305 0.3096,-1.1774c0,-0.29435 -0.23696,-0.63351 0,-1.1774c0.16755,-0.38458 0.30959,-0.58869 0.30959,-0.88304c0,-0.5887 0.3096,-1.1774 0.3096,-1.47175c0,-0.5887 0.9288,-0.5887 1.23839,-0.5887c0.3096,0 0.92879,0 1.23839,0c0.3096,0 0.6192,0 1.23839,0c0.3096,0 0.6192,0 0.92879,0c0.6192,0 0.92879,-0.29434 1.2384,-0.29434c0.30959,0 0.92878,-0.29435 1.54798,-0.29435c0.3096,0 0.6192,0.29435 0.6192,0.58869c0,0.29435 0,0.88305 0,1.1774c0,0.29435 0.45164,0.79281 0.61919,1.1774c0.11848,0.27194 0.3096,0.58869 0.3096,1.76609c0,0.29435 0.3096,0.5887 0.3096,1.1774c0,0.29435 0.3096,0.58869 0.3096,0.88304c0,0.5887 0.61919,1.47175 0.61919,2.06045c0,0.29435 0,0.58869 0,0.88304c0,0.5887 0.30959,1.1774 0.30959,1.47175c0,0.88305 0.30961,1.17739 0.30961,1.47174c0,0.5887 0.2144,1.23215 0.61919,1.7661c0.25601,0.3377 0.45164,0.49846 0.61919,0.88304c0.11848,0.27195 0.3096,0.88305 0.3096,1.1774c0,0.29435 -0.23695,0.63351 0,1.1774c0.16755,0.38458 0.21441,0.64344 0.6192,1.17739c0.256,0.3377 0.19111,0.61111 0.30959,0.88305c0.16756,0.38459 0.45165,0.79281 0.6192,1.1774c0.11847,0.27194 0,0.58869 0,1.17739c0,0.29435 0.19112,0.61111 0.3096,0.88305c0.16755,0.38459 0.61919,0.29435 0.92879,0.29435l0.30959,0l0.6192,0"/>
      <path stroke="#000" fill="none" stroke-width="8.5" stroke-opacity="null" fill-opacity="null" id="svg_43" d="m85.451617,197.401076c0,0 0.56483,0.26553 0.92878,-0.29435c0.16277,-0.25039 0.23848,-0.59657 0.3096,-0.88305c0.15906,-0.64058 0.77198,-0.8473 0.9288,-1.76609c0.04959,-0.29055 0.15277,-0.55295 0.30959,-1.47175c0.04959,-0.29055 0.15278,-0.55295 0.3096,-1.47174c0.04959,-0.29055 0,-0.5887 0,-1.1774c0,-0.29435 -0.09519,-0.64345 0.3096,-1.17739c0.25601,-0.3377 0.3096,-0.5887 0.3096,-0.88305c0,-0.29435 0,-0.88305 0,-1.1774c0,-0.29435 0,-0.58869 0,-1.17739c0,-0.29435 0.3096,-0.5887 0.3096,-0.88305c0,-0.5887 0.30959,-0.88305 0.30959,-1.1774c0,-0.29435 0,-0.88304 0,-1.17739c0,-0.29435 0,-0.5887 0,-1.1774c0,-0.29435 0.3096,-0.5887 0.3096,-0.88304c0,-0.5887 0,-0.88305 0.3096,-1.1774c0.3096,-0.29435 0.3096,-0.88305 0.3096,-1.1774c0,-0.29435 -0.23696,-0.63351 0,-1.17739c0.16755,-0.38459 0.30959,-0.5887 0.30959,-0.88305c0,-0.5887 0.3096,-1.1774 0.3096,-1.47174c0,-0.5887 0.92879,-0.5887 1.23839,-0.5887c0.3096,0 0.92879,0 1.23839,0c0.3096,0 0.6192,0 1.23839,0c0.3096,0 0.6192,0 0.92879,0c0.6192,0 0.92879,-0.29435 1.23839,-0.29435c0.3096,0 0.92879,-0.29435 1.54799,-0.29435c0.3096,0 0.6192,0.29435 0.6192,0.5887c0,0.29435 0,0.88304 0,1.17739c0,0.29435 0.45164,0.79281 0.61919,1.1774c0.11848,0.27194 0.30959,0.5887 0.30959,1.76609c0,0.29435 0.30961,0.5887 0.30961,1.1774c0,0.29435 0.3096,0.5887 0.3096,0.88305c0,0.58869 0.61919,1.47174 0.61919,2.06044c0,0.29435 0,0.5887 0,0.88305c0,0.58869 0.30959,1.17739 0.30959,1.47174c0,0.88305 0.3096,1.1774 0.3096,1.47175c0,0.58869 0.21441,1.23214 0.6192,1.76609c0.25601,0.3377 0.45164,0.49846 0.61919,0.88305c0.11848,0.27194 0.3096,0.88304 0.3096,1.17739c0,0.29435 -0.23695,0.63351 0,1.1774c0.16755,0.38458 0.21441,0.64345 0.6192,1.17739c0.256,0.3377 0.19111,0.61111 0.30959,0.88305c0.16756,0.38459 0.45165,0.79281 0.61919,1.1774c0.11848,0.27194 0,0.5887 0,1.17739c0,0.29435 0.19113,0.61111 0.30961,0.88305c0.16755,0.38459 0.61919,0.29435 0.92879,0.29435l0.30959,0l0.6192,0" transform="rotate(-180 95.97793579101562,185.20181274414062) "/>
     </g>
     <g stroke="null" id="svg_47" transform="rotate(135 95.97793579101562,98.35970306396486) ">
      <path stroke="#000" fill="none" stroke-width="8.5" stroke-opacity="null" fill-opacity="null" id="svg_45" d="m85.451617,23.716856c0,0 0.56483,0.26553 0.92878,-0.29435c0.16277,-0.25039 0.23848,-0.59658 0.3096,-0.88305c0.15906,-0.64058 0.77198,-0.8473 0.9288,-1.76609c0.04959,-0.29055 0.15277,-0.55296 0.30959,-1.47175c0.04959,-0.29055 0.15278,-0.55295 0.3096,-1.47175c0.04959,-0.29054 0,-0.58869 0,-1.17739c0,-0.29435 -0.09519,-0.64345 0.3096,-1.1774c0.25601,-0.3377 0.3096,-0.58869 0.3096,-0.88304c0,-0.29435 0,-0.88305 0,-1.1774c0,-0.29435 0,-0.5887 0,-1.1774c0,-0.29434 0.3096,-0.58869 0.3096,-0.88304c0,-0.5887 0.30959,-0.88305 0.30959,-1.1774c0,-0.29435 0,-0.88305 0,-1.17739c0,-0.29435 0,-0.5887 0,-1.1774c0,-0.29435 0.3096,-0.5887 0.3096,-0.88305c0,-0.5887 0,-0.88305 0.3096,-1.17739c0.3096,-0.29435 0.3096,-0.88305 0.3096,-1.1774c0,-0.29435 -0.23696,-0.63351 0,-1.1774c0.16755,-0.38458 0.30959,-0.58869 0.30959,-0.88304c0,-0.5887 0.3096,-1.1774 0.3096,-1.47175c0,-0.5887 0.9288,-0.5887 1.23839,-0.5887c0.3096,0 0.92879,0 1.23839,0c0.3096,0 0.6192,0 1.23839,0c0.3096,0 0.6192,0 0.92879,0c0.6192,0 0.92879,-0.29434 1.2384,-0.29434c0.30959,0 0.92878,-0.29435 1.54798,-0.29435c0.3096,0 0.6192,0.29435 0.6192,0.58869c0,0.29435 0,0.88305 0,1.1774c0,0.29435 0.45164,0.79281 0.61919,1.1774c0.11848,0.27194 0.3096,0.58869 0.3096,1.76609c0,0.29435 0.3096,0.5887 0.3096,1.1774c0,0.29435 0.3096,0.58869 0.3096,0.88304c0,0.5887 0.61919,1.47175 0.61919,2.06045c0,0.29435 0,0.58869 0,0.88304c0,0.5887 0.30959,1.1774 0.30959,1.47175c0,0.88305 0.30961,1.17739 0.30961,1.47174c0,0.5887 0.2144,1.23215 0.61919,1.7661c0.25601,0.3377 0.45164,0.49846 0.61919,0.88304c0.11848,0.27195 0.3096,0.88305 0.3096,1.1774c0,0.29435 -0.23695,0.63351 0,1.1774c0.16755,0.38458 0.21441,0.64344 0.6192,1.17739c0.256,0.3377 0.19111,0.61111 0.30959,0.88305c0.16756,0.38459 0.45165,0.79281 0.6192,1.1774c0.11847,0.27194 0,0.58869 0,1.17739c0,0.29435 0.19112,0.61111 0.3096,0.88305c0.16755,0.38459 0.61919,0.29435 0.92879,0.29435l0.30959,0l0.6192,0"/>
      <path stroke="#000" fill="none" stroke-width="8.5" stroke-opacity="null" fill-opacity="null" id="svg_46" d="m85.451617,197.401076c0,0 0.56483,0.26553 0.92878,-0.29435c0.16277,-0.25039 0.23848,-0.59657 0.3096,-0.88305c0.15906,-0.64058 0.77198,-0.8473 0.9288,-1.76609c0.04959,-0.29055 0.15277,-0.55295 0.30959,-1.47175c0.04959,-0.29055 0.15278,-0.55295 0.3096,-1.47174c0.04959,-0.29055 0,-0.5887 0,-1.1774c0,-0.29435 -0.09519,-0.64345 0.3096,-1.17739c0.25601,-0.3377 0.3096,-0.5887 0.3096,-0.88305c0,-0.29435 0,-0.88305 0,-1.1774c0,-0.29435 0,-0.58869 0,-1.17739c0,-0.29435 0.3096,-0.5887 0.3096,-0.88305c0,-0.5887 0.30959,-0.88305 0.30959,-1.1774c0,-0.29435 0,-0.88304 0,-1.17739c0,-0.29435 0,-0.5887 0,-1.1774c0,-0.29435 0.3096,-0.5887 0.3096,-0.88304c0,-0.5887 0,-0.88305 0.3096,-1.1774c0.3096,-0.29435 0.3096,-0.88305 0.3096,-1.1774c0,-0.29435 -0.23696,-0.63351 0,-1.17739c0.16755,-0.38459 0.30959,-0.5887 0.30959,-0.88305c0,-0.5887 0.3096,-1.1774 0.3096,-1.47174c0,-0.5887 0.92879,-0.5887 1.23839,-0.5887c0.3096,0 0.92879,0 1.23839,0c0.3096,0 0.6192,0 1.23839,0c0.3096,0 0.6192,0 0.92879,0c0.6192,0 0.92879,-0.29435 1.23839,-0.29435c0.3096,0 0.92879,-0.29435 1.54799,-0.29435c0.3096,0 0.6192,0.29435 0.6192,0.5887c0,0.29435 0,0.88304 0,1.17739c0,0.29435 0.45164,0.79281 0.61919,1.1774c0.11848,0.27194 0.30959,0.5887 0.30959,1.76609c0,0.29435 0.30961,0.5887 0.30961,1.1774c0,0.29435 0.3096,0.5887 0.3096,0.88305c0,0.58869 0.61919,1.47174 0.61919,2.06044c0,0.29435 0,0.5887 0,0.88305c0,0.58869 0.30959,1.17739 0.30959,1.47174c0,0.88305 0.3096,1.1774 0.3096,1.47175c0,0.58869 0.21441,1.23214 0.6192,1.76609c0.25601,0.3377 0.45164,0.49846 0.61919,0.88305c0.11848,0.27194 0.3096,0.88304 0.3096,1.17739c0,0.29435 -0.23695,0.63351 0,1.1774c0.16755,0.38458 0.21441,0.64345 0.6192,1.17739c0.256,0.3377 0.19111,0.61111 0.30959,0.88305c0.16756,0.38459 0.45165,0.79281 0.61919,1.1774c0.11848,0.27194 0,0.5887 0,1.17739c0,0.29435 0.19113,0.61111 0.30961,0.88305c0.16755,0.38459 0.61919,0.29435 0.92879,0.29435l0.30959,0l0.6192,0" transform="rotate(-180 95.97793579101562,185.20181274414062) "/>
     </g>
    </g>
   </g>
   <path stroke="#000" fill="none" stroke-width="8.5" stroke-opacity="null" fill-opacity="null" id="svg_53" d="m98.996191,79.233853c0.124739,0.124749 0.124739,0.124749 0.249488,0.124749c0.124739,0 0.249478,0 0.374227,0c0.249478,0 0.374227,0 0.498976,0c0.124729,0 0.374227,0 0.498957,0c0.124749,0 0.249498,0 0.498976,0c0.124749,0 0.249488,0 0.374227,0c0.249488,0 0.374237,0 0.498976,0c0.124749,0 0.374237,0 0.498976,0c0.124739,0 0.249488,0 0.498967,0c0.124749,0 0.249498,0 0.374227,0c0.249498,0 0.374237,0 0.498976,0c0.124749,0 0.211249,0.181976 0.374227,0.249488c0.115255,0.047733 0.252829,-0.028657 0.374227,0c0.271475,0.064084 0.374237,0.124739 0.498976,0.124739c0.124749,0 0.374227,0.124739 0.498976,0.124739c0.124739,0 0.249488,0.124749 0.498967,0.124749c0.124749,0 0.249498,0.124739 0.374237,0.249478c0.124739,0.124749 0.258982,0.077006 0.374227,0.124749c0.162988,0.067512 0.227502,0.185395 0.498967,0.249478c0.121409,0.028667 0.249488,0.124749 0.374227,0.249488c0.124749,0.124749 0.258992,0.077006 0.374237,0.124739c0.162979,0.067512 0.268476,0.029273 0.498967,0.124749c0.162988,0.067512 0.249488,0.249478 0.374237,0.374227c0.124749,0.124749 0.231116,0.146345 0.374227,0.249488c0.226281,0.163096 0.335988,0.306715 0.498976,0.374227c0.115245,0.047743 0.211239,0.057237 0.374227,0.124749c0.230491,0.095476 0.374227,-0.00001 0.498976,0.124739c0.124739,0.124739 0.201745,0.258982 0.249478,0.374227c0.067512,0.162988 0.34891,0.281486 0.498976,0.374237c0.335558,0.207371 0.47365,0.281476 0.623716,0.374227c0.335558,0.207381 0.508461,0.201745 0.623706,0.249478c0.162988,0.067512 0.249498,0.249488 0.374237,0.374227c0.124739,0.124749 0.17301,0.363952 0.498967,0.498976c0.115255,0.047733 0.397435,0.211132 0.623725,0.374227c0.286223,0.206297 0.374227,0.374237 0.498967,0.498976c0.249488,0.249478 0.29267,0.337483 0.498976,0.623716c0.163096,0.226281 0.249478,0.498976 0.374227,0.623716c0.124739,0.124739 0.201745,0.383721 0.249478,0.498967c0.067522,0.162988 0.417429,0.337492 0.623725,0.623716c0.163086,0.226281 0.124739,0.374227 0.249478,0.498976c0.124749,0.124749 0.249488,0.249488 0.249488,0.498976c0,0.124739 0,0.249478 0.124739,0.374227c0.124749,0.124749 0.243892,0.193238 0.374237,0.623706c0.072298,0.238783 0,0.374237 0.124739,0.498976c0.124739,0.124749 0.201755,0.258982 0.249488,0.374237c0.135024,0.325957 0.374227,0.374227 0.498976,0.498967c0.249488,0.249478 0.374227,0.374237 0.498967,0.498967c0.124739,0.124749 0.249488,0.249498 0.249488,0.374237c0,0.124739 -0.082632,0.288157 0.124739,0.623716c0.092751,0.150066 0.124739,0.249478 0.124739,0.498976c0,0.124739 0.077006,0.258972 0.124749,0.374227c0.067512,0.162988 0.124739,0.249478 0.124739,0.374227c0,0.124739 0.077006,0.63321 0.124739,0.748465c0.067512,0.162979 0.297231,0.258972 0.249488,0.374227c-0.067512,0.162979 -0.153406,0.252819 -0.124739,0.374227c0.064084,0.271475 0.124739,0.374227 0.124739,0.623706c0,0.249498 -0.047733,0.383731 0,0.498976c0.067522,0.162988 0.096091,0.377568 0.124749,0.498976c0.064084,0.271475 0.076996,0.508461 0.124739,0.623716c0.067512,0.162979 0.402885,0.377568 0.374227,0.498976c-0.064084,0.271465 -0.249488,0.374227 -0.249488,0.623706c0,0.124749 -0.124739,0.249488 -0.124739,0.374227c0,0.249498 0,0.374237 0,0.498976c0,0.124749 0,0.374227 0,0.498976c0,0.124739 0,0.249488 0,0.498967c0,0.124749 0,0.249488 0,0.374237c0,0.249488 0,0.374227 0,0.498967c0,0.124749 0,0.374227 0,0.498976c0,0.124749 0,0.249478 0,0.623716c0,0.124739 0,0.249488 0,0.498967c0,0.124749 0,0.249488 0,0.623716c0,0.124749 0,0.249488 0,0.374237c0,0.249488 0,0.374227 0,0.498967c0,0.124749 0,0.374227 0,0.498976c0,0.124749 0,0.249478 -0.124739,0.374227c-0.124749,0.124749 -0.249488,0.249478 -0.374237,0.374227c-0.124739,0.124749 -0.124739,0.374227 -0.249478,0.498976c-0.249488,0.249488 -0.374227,0.374227 -0.374227,0.498976c0,0.124739 0,0.249478 -0.124749,0.374227c-0.124739,0.124739 -0.201745,0.258982 -0.249478,0.374227c-0.067512,0.162988 -0.067424,0.256169 -0.124749,0.498967c-0.064084,0.271475 -0.124739,0.374237 -0.124739,0.623725c0,0.124739 0,0.249478 0,0.374227c0,0.249478 -0.096082,0.377568 -0.124739,0.498976c-0.064094,0.271465 -0.249488,0.249478 -0.374237,0.374227c-0.124739,0.124739 -0.363942,0.173 -0.498967,0.498967c-0.047733,0.115255 -0.077006,0.258982 -0.124749,0.374227c-0.067512,0.162988 -0.249488,0.249488 -0.249488,0.374237c0,0.124739 -0.124739,0.374227 -0.249478,0.498967c-0.124749,0.124749 -0.124749,0.249488 -0.249488,0.374227c-0.124739,0.124749 -0.249488,0.498976 -0.374227,0.623725c-0.124739,0.124729 -0.383721,0.201745 -0.498976,0.249478c-0.162979,0.067512 -0.231116,0.271074 -0.374227,0.374227c-0.226291,0.163096 -0.477078,0.012219 -0.623716,0.249488c-0.065578,0.106123 -0.077006,0.258982 -0.124739,0.374227c-0.067522,0.162988 -0.306715,0.211239 -0.374227,0.374237c-0.047743,0.115245 0,0.249488 -0.124749,0.374227c-0.124749,0.124739 -0.306715,0.0865 -0.374227,0.249488c-0.047743,0.115245 -0.124749,0.249478 -0.249488,0.374227c-0.124739,0.124749 -0.0865,0.306715 -0.249488,0.374227c-0.115245,0.047733 -0.227502,0.185395 -0.498967,0.249478c-0.121409,0.028667 -0.231116,0.021596 -0.374237,0.124749c-0.226271,0.163096 -0.374227,0.249488 -0.498967,0.374227c-0.124749,0.124749 -0.249488,0.249488 -0.374227,0.374237c-0.124749,0.124739 -0.211239,0.306715 -0.374227,0.374227c-0.115255,0.047733 -0.335998,0.057227 -0.498976,0.124739c-0.115255,0.047733 -0.173,0.114464 -0.498976,0.249488c-0.115245,0.047733 -0.374227,0.124749 -0.623716,0.124749c-0.124739,0 -0.252819,0.096072 -0.374227,0.124729c-0.271475,0.064094 -0.377568,0.096091 -0.498976,0.124749c-0.271475,0.064084 -0.652197,0.231018 -0.997943,0.374227c-0.162988,0.067512 -0.306715,0.08651 -0.374227,0.249488c-0.047733,0.115245 -0.124739,0.249488 -0.124739,0.374227c0,0.124739 -0.088004,0.29268 -0.374227,0.498976c-0.226291,0.163096 -0.352251,0.310144 -0.623725,0.374227c-0.121399,0.028667 -0.748455,0.249488 -0.997943,0.249488c-0.249478,0 -0.374227,0.124739 -0.623706,0.124739c-0.124749,0 -0.249498,0 -0.748465,0c-0.249488,0 -0.374227,0.124749 -0.498967,0.124749c-0.124749,0 -0.374237,0.124739 -0.623725,0.124739c-0.124739,0 -0.249478,0 -0.374227,0c-0.374227,0 -0.623716,0 -0.997943,0c-0.124749,0 -0.249478,0 -0.498976,0c-0.124739,0 -0.249478,0 -0.374227,0c-0.249478,0 -0.498967,0 -0.873194,0c-0.249488,0 -0.374237,0 -0.623725,0c-0.124739,0 -0.249478,0 -0.374227,0c-0.249478,0 -0.623706,0 -0.873204,0c-0.249478,0 -0.374227,0 -0.623706,0c-0.374237,0 -0.873204,0 -1.247441,0c-0.124729,0 -0.249478,0 -0.374227,0c-0.249478,0 -0.374227,0 -0.498967,0c-0.124739,0 -0.19062,-0.139508 -0.249488,-0.249488c-0.212226,-0.396556 -0.623716,-0.498967 -0.748455,-0.498967c-0.124739,0 -0.306715,0.038239 -0.374237,-0.124749c-0.047733,-0.115245 -0.124729,-0.249478 -0.249478,-0.249478c-0.124749,0 -0.26283,0.11464 -0.748455,0c-0.271475,-0.064094 -0.50847,-0.077016 -0.623716,-0.124749c-0.162988,-0.067512 -0.17301,-0.239203 -0.498976,-0.374227c-0.115245,-0.047743 -0.412897,-0.042107 -0.748455,-0.249488c-0.150066,-0.092741 -0.249488,-0.249488 -0.374227,-0.374227c-0.249488,-0.249498 -0.34557,-0.377568 -0.374227,-0.498967c-0.064094,-0.271475 -0.249498,-0.374237 -0.249498,-0.623725c0,-0.124739 -0.124739,-0.374227 -0.249478,-0.498967c-0.124749,-0.124749 -0.211249,-0.306715 -0.374227,-0.374227c-0.115255,-0.047743 -0.258982,-0.077016 -0.374237,-0.124749c-0.162979,-0.067512 -0.374227,-0.124749 -0.623706,-0.374227c-0.124749,-0.124749 -0.50847,-0.201745 -0.623725,-0.249478c-0.162979,-0.067522 -0.374227,-0.124749 -0.498967,-0.249498c-0.249488,-0.249478 -0.623725,-0.374218 -0.873204,-0.623706c-0.124739,-0.124749 -0.374227,-0.249488 -0.498976,-0.374237c-0.124739,-0.124739 -0.249478,-0.249478 -0.498967,-0.498967c-0.124739,-0.124739 -0.306715,-0.211249 -0.374237,-0.374237c-0.047733,-0.115245 0.047743,-0.258972 0,-0.374227c-0.067502,-0.162979 -0.249478,-0.249478 -0.374227,-0.498967c-0.124729,-0.249488 -0.042088,-0.412906 -0.249478,-0.748465c-0.185492,-0.300132 -0.374227,-0.374227 -0.374227,-0.498967c0,-0.124749 -0.077006,-0.258982 -0.124749,-0.374227c-0.067512,-0.162988 -0.086392,-0.272686 -0.249488,-0.498976c-0.103153,-0.143112 -0.271074,-0.231116 -0.374227,-0.374227c-0.163096,-0.226281 -0.096082,-0.377568 -0.124739,-0.498976c-0.064084,-0.271475 -0.306715,-0.335988 -0.374237,-0.498976c-0.047733,-0.115245 -0.181966,-0.211239 -0.249478,-0.374227c-0.095476,-0.230491 -0.156737,-0.47365 -0.249478,-0.623716c-0.207381,-0.335558 -0.156747,-0.47364 -0.249498,-0.623706c-0.207381,-0.335568 -0.077006,-0.50847 -0.124739,-0.623725c-0.135024,-0.325957 -0.395823,-0.355855 -0.498967,-0.498967c-0.163096,-0.226291 -0.249488,-0.498967 -0.374237,-0.623716c-0.124739,-0.124749 -0.249478,-0.249488 -0.249478,-0.374227c0,-0.124749 0.095466,-0.393225 0,-0.623716c-0.067522,-0.162988 -0.374227,-0.374227 -0.374227,-0.623725c0,-0.124729 0,-0.249478 0,-0.374227c0,-0.249478 0.047733,-0.383721 0,-0.498967c-0.067522,-0.162988 -0.124749,-0.498967 -0.124749,-0.623716c0,-0.124749 -0.060655,-0.352241 -0.124749,-0.623716c-0.028657,-0.121399 0.028667,-0.377568 0,-0.498976c-0.064084,-0.271465 -0.124729,-0.498976 -0.124729,-0.623706c0,-0.124749 0,-0.249498 0,-0.498976c0,-0.124749 0,-0.249488 0,-0.374227c0,-0.249488 0,-0.374227 -0.124749,-0.498976c-0.124749,-0.124749 -0.094255,-0.376103 -0.124749,-0.623716c-0.062843,-0.510482 -0.124739,-0.623716 -0.124739,-0.748455c0,-0.249498 0,-0.498976 0,-0.873204c0,-0.124749 0,-0.249488 0,-0.374227c0,-0.249488 0,-0.374227 0,-0.498976c0,-0.124739 0.146335,-0.480604 0.249488,-0.623716c0.163096,-0.226281 0.086392,-0.397435 0.249478,-0.623716c0.206307,-0.286233 0.436309,-0.489717 0.498976,-1.122692c0.012287,-0.124134 0.124749,-0.249478 0.124749,-0.498967c0,-0.124739 -0.047743,-0.258982 0,-0.374227c0.135015,-0.325967 0.310134,-0.352241 0.374227,-0.623716c0.057315,-0.242807 -0.028667,-0.502307 0,-0.623716c0.064084,-0.271475 0.181976,-0.335988 0.249488,-0.498976c0.143209,-0.345736 -0.038357,-0.522174 0.124739,-0.748455c0.103144,-0.143112 0.124739,-0.249478 0.249488,-0.374227c0.124749,-0.124749 0.363952,-0.173 0.498976,-0.498976c0.047733,-0.115245 0.124729,-0.249488 0.249478,-0.374227c0.124749,-0.124739 0.249478,-0.374237 0.374227,-0.498976c0.124749,-0.124739 0.201755,-0.258982 0.249488,-0.374227c0.067512,-0.162979 0.249488,-0.249488 0.374227,-0.374227c0.124739,-0.124739 0.211141,-0.397435 0.374237,-0.623716c0.206297,-0.286223 0.374227,-0.374227 0.498967,-0.498976c0.124749,-0.124739 0.249488,-0.249478 0.374227,-0.374227c0.124749,-0.124739 0.275889,-0.338557 0.623725,-0.623716c0.272852,-0.223683 0.623706,-0.498976 0.748455,-0.623716c0.124739,-0.124739 0.249478,-0.249488 0.374227,-0.374227c0.124739,-0.124739 0.220821,-0.252829 0.249478,-0.374227c0.064094,-0.271475 0.258982,-0.326494 0.374237,-0.374237c0.162979,-0.067512 0.249478,-0.249478 0.374227,-0.374227c0.498976,-0.498967 0.608566,-0.68527 0.997943,-0.748455c0.123128,-0.019974 0.288157,-0.042097 0.623716,-0.249488c0.150066,-0.092741 0.288167,-0.166837 0.623716,-0.374227c0.150066,-0.092751 0.586971,-0.29267 0.873204,-0.498976c0.226281,-0.163086 0.355855,-0.146335 0.498976,-0.249478c0.226281,-0.163096 0.623706,-0.374227 0.748455,-0.374227c0.249478,0 0.460727,-0.057237 0.623716,-0.124749c0.2305,-0.095476 0.498967,-0.124739 0.623716,-0.124739c0.249488,0 0.460737,-0.181976 0.623716,-0.249488c0.345746,-0.1432 0.498976,-0.124739 0.623706,-0.124739c0.249498,0 0.374227,-0.124749 0.498976,-0.124749c0.124749,0 0.374227,-0.124739 0.498976,-0.124739c0.124739,0 0.352241,-0.185404 0.623716,-0.249488c0.121399,-0.028657 0.249478,0 0.498976,0c0.124739,0 0.374227,-0.124749 0.623706,-0.124749c0.124749,0 0.249488,-0.124729 0.374227,-0.124729c0.249498,0 0.374227,-0.124749 0.498976,-0.124749c0.124749,0 0.585476,-0.181976 0.748455,-0.249478c0.345746,-0.143219 0.498976,-0.124749 0.873214,-0.124749c0.124729,0 0.249478,0 0.498967,-0.124749l0.124739,0l0.124749,0"/>
   <path stroke="#000" fill="none" stroke-width="8.5" stroke-opacity="null" fill-opacity="null" id="svg_54" d="m26.520472,91.469781c0.058898,0.135803 0.058898,0 0.058898,-0.135803c0,-0.135793 -0.022538,-0.417724 0,-0.543182c0.031877,-0.177431 0.058902,-0.271596 0.058902,-0.543192c0,-0.135793 -0.045081,-0.428059 0,-0.678974c0.031872,-0.177431 0.04652,-0.28225 0.117796,-0.678996c0.050403,-0.280528 0.203723,-0.36575 0.2356,-0.543182c0.022538,-0.125458 0.058898,-0.407389 0.1178,-0.543192c0.058898,-0.135793 0.045367,-0.275222 0.058898,-0.407389c0.030258,-0.29552 0.085923,-0.501564 0.1178,-0.678985c0.022538,-0.125458 0.027021,-0.229968 0.058898,-0.407399c0.022538,-0.125447 0.054046,-0.188319 0.1178,-0.543171c0.045081,-0.250926 0.058898,-0.407399 0.058898,-0.543192c0,-0.135803 0.027025,-0.365761 0.058902,-0.543192c0.022538,-0.125458 0.058898,-0.271596 0.058898,-0.543192c0,-0.135793 -0.009436,-0.27334 0,-0.407389c0.029834,-0.42388 0.144826,-0.501554 0.176698,-0.678985c0.045081,-0.250915 0.058902,-0.407389 0.058902,-0.543192c0,-0.135782 0.058898,-0.271585 0.058898,-0.407389c0,-0.135793 0,-0.271585 0.058898,-0.407389c0.058902,-0.135793 0.058902,-0.271585 0.058902,-0.407389c0,-0.135793 0,-0.271596 0,-0.543192l0.058898,-0.135793l-0.058898,0"/>
   <path stroke="#000" fill="none" stroke-width="8.5" stroke-opacity="null" fill-opacity="null" id="svg_55" d="m35.876197,62.767777c-0.124739,-0.124749 0,-0.249488 0.124749,-0.374227c0.124739,-0.124749 0.201745,-0.258992 0.249488,-0.374237c0.067502,-0.162979 0.249478,-0.124739 0.374227,-0.249488c0.124739,-0.124739 0.211132,-0.272686 0.374227,-0.498967c0.103153,-0.143121 0.211132,-0.272686 0.374227,-0.498976c0.103153,-0.143112 0.124739,-0.374227 0.249488,-0.498967c0.124739,-0.124749 0.271074,-0.231116 0.374227,-0.374237c0.163096,-0.226281 0.249488,-0.498967 0.374227,-0.623706c0.124749,-0.124749 0.249488,-0.249488 0.374237,-0.374237c0.124739,-0.124739 0.271074,-0.231116 0.374227,-0.374227c0.163096,-0.226281 0.211239,-0.431464 0.374227,-0.498976c0.115245,-0.047733 0.249488,-0.124739 0.374227,-0.249478c0.124739,-0.124749 0.352329,-0.136958 0.498967,-0.374237c0.065588,-0.106103 0.146345,-0.231116 0.249488,-0.374227c0.163096,-0.226281 0.335881,-0.522174 0.498976,-0.748455c0.103153,-0.143112 0.124739,-0.249488 0.124739,-0.374227l0.124749,-0.124749l0.124739,-0.124739l0.124749,-0.124739"/>
   <path stroke="#000" fill="none" stroke-width="8.5" stroke-opacity="null" fill-opacity="null" id="svg_56" d="m55.336113,41.062477c0.124749,0 0.211249,-0.057227 0.374237,-0.124739c0.115245,-0.047733 0.605343,-0.271084 0.748455,-0.374227c0.226291,-0.163096 0.374227,-0.249488 0.623716,-0.498976c0.124739,-0.124739 0.301734,-0.176995 0.498976,-0.374227c0.197233,-0.197243 0.352241,-0.434883 0.623716,-0.498976c0.121399,-0.028657 0.508461,-0.077006 0.623706,-0.124739c0.162988,-0.067512 0.498976,-0.374227 0.623716,-0.374227c0.124749,0 0.258992,-0.077006 0.374237,-0.124749c0.162979,-0.067502 0.212743,-0.167921 0.498967,-0.374227c0.226281,-0.163096 0.431464,-0.211239 0.498976,-0.374227c0.047733,-0.115245 0.124739,-0.249488 0.374227,-0.374227c0.249488,-0.124739 0.400629,-0.213828 0.748455,-0.498976c0.136431,-0.111837 0.383731,-0.077006 0.498976,-0.124739c0.162988,-0.067512 0.249488,-0.124749 0.498976,-0.124749c0.124739,0 0.258982,-0.076996 0.374227,-0.124739c0.162988,-0.067512 0.249488,-0.249488 0.374227,-0.249488l0.124749,-0.124739"/>
   <path stroke="#000" fill="none" stroke-width="8.5" stroke-opacity="null" fill-opacity="null" id="svg_57" d="m81.656901,27.964457c0.124749,0.124749 0.249488,0.124749 0.374227,0.124749c0.249488,0 0.297749,-0.114474 0.623716,-0.249488c0.2305,-0.095476 0.374237,0 0.498976,0c0.124739,0 0.249488,-0.124739 0.374227,-0.124739c0.124749,0 0.249488,0 0.374227,0c0.249498,0 0.374227,0 0.498976,0c0.124749,0 0.383721,0.047733 0.498976,0c0.162988,-0.067512 0.249478,-0.124749 0.623706,-0.124749c0.124749,0 0.249488,0 0.498976,0c0.124749,0 0.249488,0 0.374227,0c0.249488,0 0.374237,0 0.498976,0c0.124739,0 0.374237,0 0.498967,0c0.124749,0 0.249498,0 0.498976,0c0.124749,0 0.252829,0.028657 0.374227,0c0.271475,-0.064084 0.374227,-0.124739 0.498976,-0.124739c0.374227,0 0.498976,0 0.623716,0l0.124739,0l0.374237,-0.124749l0.124739,-0.124739"/>
   <path stroke="#000" fill="none" stroke-width="8.5" stroke-opacity="null" fill-opacity="null" id="svg_58" d="m110.098325,26.467547c-0.124749,0.124739 0.102753,0.310144 0.374227,0.374227c0.121399,0.028657 0.249488,0 0.623716,0c0.124739,0 0.249478,0.124739 0.374227,0.124739c0.249478,0 0.374227,0 0.498976,0c0.124739,0 0.383721,0.077006 0.498967,0.124739c0.162988,0.067512 0.265546,0.016302 0.623716,0.124749c0.430468,0.130336 0.47699,0.310144 0.748465,0.374227c0.121399,0.028657 0.515561,-0.053701 0.997933,0.124739c0.261619,0.096775 0.374237,0.124749 0.623725,0.124749c0.124739,0 0.249478,0 0.374227,0c0.374227,0 0.623716,0 0.873194,0c0.124749,0 0.249498,0 0.374237,0.124739c0.124739,0.124749 0.258982,0.077006 0.374227,0.124739c0.162988,0.067512 0.249488,0.249488 0.498967,0.249488c0.124749,0 0.249488,0.124749 0.374237,0.124749l0.124739,0.124739l0.124739,0.249488l0.249488,0.124739"/>
   <path stroke="#000" fill="none" stroke-width="8.5" stroke-opacity="null" fill-opacity="null" id="svg_59" d="m136.91808,35.948012c0.124749,0.124749 0.400629,0.213828 0.748455,0.498976c0.136431,0.111846 0.249488,0.249488 0.498967,0.249488c0.124749,0 0.249488,0.124739 0.374237,0.249478c0.124749,0.124749 0.249488,0.124749 0.374237,0.249488c0.124729,0.124739 0.325693,0.115773 0.623706,0.374227c0.210731,0.182757 0.537646,0.416335 0.873204,0.623725c0.150066,0.092741 0.249488,0.249478 0.374218,0.374227c0.124749,0.124739 0.237806,0.262381 0.374237,0.374227c0.347826,0.285149 0.498967,0.374227 0.748455,0.623716c0.124749,0.124739 0.252829,0.220821 0.374237,0.249478c0.271475,0.064094 0.498967,0.374237 0.623706,0.498976c0.124749,0.124739 0.249498,0.124739 0.374237,0.249488c0.124749,0.124739 0.249478,0.249488 0.374227,0.374227l0.124739,0l0.124749,0.124749"/>
   <path stroke="#000" fill="none" stroke-width="8.5" stroke-opacity="null" fill-opacity="null" id="svg_60" d="m159.247095,55.283188c-0.124749,0.124739 -0.153406,0.252829 -0.124749,0.374227c0.064084,0.271475 0.249488,0.498976 0.374218,0.623716c0.124749,0.124749 0.249488,0.249488 0.249488,0.374227c0,0.124749 0.106377,0.271084 0.249498,0.374237c0.226281,0.163096 0.374218,0.249488 0.498967,0.374227c0.249488,0.249488 0.249488,0.374227 0.374227,0.498976c0.124749,0.124739 0.249498,0.249488 0.374227,0.374227c0.124739,0.124749 0.249488,0.249478 0.374227,0.374227c0.124749,0.124739 0.249498,0.249478 0.374237,0.374227c0.124729,0.124739 0.306706,0.335988 0.374227,0.498976c0.047733,0.115245 -0.072494,0.301734 0.124739,0.498967c0.197243,0.197243 0.249488,0.249488 0.249488,0.374237c0,0.124739 0.060665,0.227492 0.124749,0.498967c0.028657,0.121409 0,0.249488 0.124729,0.374227c0.124749,0.124749 0.249488,0.249488 0.374237,0.498976c0.124739,0.249478 0.185404,0.352241 0.249488,0.623716c0.028657,0.121399 0.249478,0.374227 0.249478,0.498967c0,0.124749 0,0.249488 0.124739,0.374237l0,0.124739"/>
   <path stroke="#000" fill="none" stroke-width="8.5" stroke-opacity="null" fill-opacity="null" id="svg_61" d="m171.471911,81.853455c0,0 0.124739,0.124749 0.249488,0.249488c0.124739,0.124749 0.310134,0.227502 0.374218,0.498976c0.028657,0.121399 0,0.249478 0.124749,0.498976c0.124739,0.249478 0.010099,0.38757 0.124739,0.873194c0.064094,0.271475 0.249488,0.374237 0.249488,0.623716c0,0.124749 0.124749,0.249488 0.124749,0.374227c0,0.124749 0.057227,0.211259 0.124729,0.374237c0.047743,0.115245 0.061554,0.234329 0.124749,0.623706c0.019984,0.123137 -0.143209,0.27798 0,0.623725c0.135024,0.325967 0.154012,0.642703 0.249488,0.873194c0.067512,0.162988 0.124749,0.249488 0.124749,0.374227c0,0.124749 0,0.249488 0,0.498976c0,0.124749 0,0.249488 0,0.374227c0,0.249488 0,0.374227 0,0.498976c0,0.124749 0,0.374227 0,0.498976c0,0.124729 0,0.249478 0,0.748455l0,0.124739l0,0.249488"/>
   <path stroke="#000" fill="none" stroke-width="8.5" stroke-opacity="null" fill-opacity="null" id="svg_62" d="m173.218309,110.04539c0,0 0,0.124749 0,0.249488c0,0.124739 0.039968,0.50219 0,0.748465c-0.063195,0.389377 -0.124749,0.498967 -0.124749,0.748455c0,0.374227 0,0.498967 0,0.748455c0,0.124739 -0.124739,0.249488 -0.124739,0.374227c0,0.124739 -0.057237,0.335988 -0.124749,0.498976c-0.047733,0.115245 -0.023725,0.359449 -0.249469,0.748455c-0.140015,0.241254 -0.124749,0.498976 -0.124749,0.623716c0,0.249488 0.047733,0.383721 0,0.498976c-0.067512,0.162988 -0.181976,0.335978 -0.249488,0.498967c-0.190952,0.460991 -0.229504,0.750067 -0.249488,0.873204c-0.063185,0.389377 -0.124739,0.498976 -0.124739,0.623716c0,0.249488 -0.181976,0.460737 -0.249488,0.623716c-0.095476,0.230491 0.038366,0.522174 -0.124739,0.748465c-0.103153,0.143112 -0.249498,0.249478 -0.249498,0.374227l-0.124739,0.124739"/>
   <path stroke="#000" fill="none" stroke-width="8.5" stroke-opacity="null" fill-opacity="null" id="svg_63" d="m163.488346,137.364122c0,0.124749 -0.181966,0.211239 -0.249488,0.374227c-0.047733,0.115245 -0.181976,0.335988 -0.249488,0.498976c-0.047733,0.115255 0.028657,0.252819 0,0.374218c-0.064074,0.271475 -0.167911,0.337502 -0.374218,0.623725c-0.163096,0.226271 -0.086402,0.397435 -0.249488,0.623716c-0.103153,0.143121 -0.249498,0.498967 -0.374227,0.623706c-0.124739,0.124749 -0.124739,0.374237 -0.249488,0.498986c-0.124749,0.124729 -0.374237,0.374218 -0.498976,0.498967c-0.124729,0.124739 -0.249469,0.249498 -0.498967,0.498976c-0.124749,0.124729 -0.249488,0.374218 -0.374237,0.498967c-0.249478,0.249488 -0.434883,0.47698 -0.498967,0.748455c-0.028657,0.121409 -0.124749,0.249488 -0.249488,0.374237c-0.124749,0.124749 -0.249478,0.249478 -0.249478,0.374218c0,0.124749 -0.124739,0.249488 -0.249488,0.374237l-0.124749,0.124749l-0.124739,0l-0.124749,0.124739"/>
   <path stroke="#000" fill="none" stroke-width="8.5" stroke-opacity="null" fill-opacity="null" id="svg_64" d="m144.527397,159.3189c-0.124739,-0.124749 -0.249469,0 -0.374218,0.124749c-0.124739,0.124739 -0.383731,0.326484 -0.498976,0.374218c-0.162988,0.067512 -0.249478,0.124739 -0.748455,0.249488c-0.498967,0.124749 -1.100716,0.434893 -1.372171,0.498986c-0.242817,0.057315 -0.335988,0.181957 -0.498976,0.249469c-0.115255,0.047743 -0.249498,0.124749 -0.374227,0.249488c-0.124739,0.124749 -0.249488,0.249498 -0.374227,0.374237c-0.124749,0.124729 -0.048261,0.363942 -0.374237,0.498967c-0.115236,0.047743 -0.249459,0.124759 -0.498967,0.374237c-0.124749,0.124729 -0.227512,0.310134 -0.498967,0.374218c-0.121409,0.028667 -0.374237,0.249488 -0.748474,0.374237c-0.374218,0.124749 -0.623706,0.249478 -0.748455,0.249478c-0.124739,0 -0.249469,0.124739 -0.374218,0.249488l-0.124749,0"/>
   <path stroke="#000" fill="none" stroke-width="8.5" stroke-opacity="null" fill-opacity="null" id="svg_65" d="m118.830335,171.294237c-0.374227,0 -0.498967,0 -0.623716,0c-0.249488,0 -0.625591,-0.030474 -0.873194,0c-0.510473,0.062843 -0.710225,0.306706 -0.873204,0.374227c-0.115255,0.047733 -0.377568,0.096082 -0.498976,0.124739c-0.271475,0.064094 -0.567475,0.243901 -0.997943,0.374237c-0.238773,0.072298 -0.498976,0 -0.748455,0c-0.124749,0 -0.249498,0.124729 -0.748465,0.124729c-0.124739,0 -0.249488,0.124749 -0.498967,0.124749c-0.124749,0 -0.374237,0.124739 -0.748465,0.124739c-0.498976,0 -1.122682,0 -1.247431,0.124749c-0.124739,0.124749 -0.268476,0.029273 -0.498967,0.124749c-0.162988,0.067512 -0.249488,0.124739 -0.374237,0.124739l-0.249478,0l-0.124749,0"/>
   <path stroke="#000" fill="none" stroke-width="8.5" stroke-opacity="null" fill-opacity="null" id="svg_66" d="m89.765205,172.915896c-0.124749,0.124749 -0.124749,0.124749 -0.374227,0.124749c-0.124749,0 -0.249488,0 -0.374227,0c-0.249498,0 -0.374237,0 -0.498976,0c-0.124749,0 -0.374227,0 -0.498976,0c-0.124739,0 -0.234339,-0.061554 -0.623716,-0.124749c-0.246265,-0.039958 -0.498976,0 -0.873204,0c-0.249478,0 -0.374227,-0.124739 -0.498967,-0.249488c-0.124739,-0.124749 -0.231106,-0.271084 -0.374237,-0.374237c-0.226271,-0.163086 -0.393215,-0.154002 -0.623706,-0.249469c-0.488965,-0.202536 -0.623716,-0.374237 -0.748465,-0.374237c-0.124739,0 -0.268476,0.095476 -0.498976,0c-0.162979,-0.067512 -0.25949,-0.038767 -0.623706,-0.124749c-0.271475,-0.064084 -0.625845,-0.073314 -1.247431,-0.124739c-0.7562,-0.062589 -1.122692,-0.374227 -1.247431,-0.374227l-0.124739,0l-0.124749,0.124749"/>
   <path stroke="#000" fill="none" stroke-width="8.5" stroke-opacity="null" fill-opacity="null" id="svg_67" d="m62.072246,163.310672c-0.124749,-0.124729 -0.272686,-0.211132 -0.498976,-0.374218c-0.143121,-0.103153 -0.212743,-0.16794 -0.498976,-0.374237c-0.226281,-0.163096 -0.397425,-0.211132 -0.623706,-0.374227c-0.143121,-0.103144 -0.374227,-0.374227 -0.623716,-0.623725c-0.249488,-0.249469 -0.748465,-0.374218 -0.873204,-0.498957c-0.124749,-0.124749 -0.249478,-0.249498 -0.374227,-0.374237c-0.124739,-0.124729 -0.271084,-0.231106 -0.374237,-0.374227c-0.163096,-0.226281 -0.374227,-0.498976 -0.498967,-0.623706c-0.124749,-0.124749 -0.335988,-0.431464 -0.498976,-0.498976c-0.115245,-0.047743 -0.211239,-0.057237 -0.374227,-0.124749c-0.115245,-0.047733 -0.249488,-0.124749 -0.374227,-0.249478c-0.124749,-0.124739 -0.249488,-0.249488 -0.374227,-0.249488l-0.124749,-0.124749"/>
   <path stroke="#000" fill="none" stroke-width="8.5" stroke-opacity="null" fill-opacity="null" id="svg_68" d="m41.24015,144.349733c-0.124739,0 -0.374227,0 -0.623716,-0.249488c-0.124739,-0.124749 -0.273223,-0.23471 -0.498976,-0.623716c-0.420017,-0.723753 -0.470299,-1.126023 -0.498967,-1.247431c-0.064084,-0.271455 -0.301734,-0.406235 -0.498976,-0.997943c-0.039441,-0.118342 -0.096082,-0.252819 -0.124739,-0.374227c-0.064084,-0.271465 -0.189526,-0.31912 -0.498967,-0.748455c-0.163106,-0.226281 -0.201755,-0.383721 -0.249488,-0.498976c-0.135024,-0.325977 -0.374227,-0.374218 -0.498976,-0.748455c-0.124739,-0.374237 -0.431464,-0.460727 -0.498976,-0.623716c-0.095476,-0.2305 -0.076996,-0.50847 -0.124739,-0.623725c-0.067512,-0.162969 -0.124739,-0.249469 -0.374227,-0.498967c-0.124749,-0.124739 -0.124749,-0.374227 -0.249488,-0.623706l-0.124739,-0.124749"/>
   <path stroke="#000" fill="none" stroke-width="8.5" stroke-opacity="null" fill-opacity="null" id="svg_69" d="m28.391619,118.7774c0,-0.124729 0,-0.374227 0,-0.623706c0,-0.124749 0.047733,-0.258982 0,-0.374227c-0.067512,-0.162988 -0.0886,-0.254841 -0.124749,-0.374237c-0.130336,-0.430468 -0.249478,-0.498967 -0.249478,-0.623706c0,-0.124749 -0.038767,-0.2595 -0.124749,-0.623725c-0.064084,-0.271465 -0.201745,-0.508461 -0.249478,-0.623706c-0.135024,-0.325977 -0.249488,-0.498976 -0.249488,-0.623725c0,-0.124739 0,-0.249478 0,-0.498967c0,-0.124749 0,-0.249488 0,-0.623716c0,-0.249488 0,-0.374237 0,-0.748465c0,-0.124739 0,-0.249478 0,-0.498967c0,-0.124739 0,-0.249488 0,-0.374227c0,-0.249488 0.057227,-0.460737 0.124739,-0.623716c0.095476,-0.230491 0.019984,-0.500578 0,-0.623716c-0.063185,-0.389377 -0.124739,-0.873204 -0.124739,-0.997953l-0.124739,-0.124729l0,-0.124749l-0.124749,-0.124749"/>
  </g>
 </g>
</svg>