<svg id='inner-gear' viewBox="0 0 200 200" width="40" xmlns="http://www.w3.org/2000/svg">
 <g>
  <title>Layer 1</title>
  <g id="svg_49">
   <g id="svg_35">
    <g id="svg_25">
     <path stroke="#000" d="m89.096547,25.545056c0,0 0.564835,0.265535 0.928787,-0.29435c0.162766,-0.250388 0.238472,-0.596571 0.309601,-0.883046c0.159058,-0.640579 0.771973,-0.8473 0.928795,-1.766095c0.049591,-0.290548 0.152771,-0.552951 0.309593,-1.471744c0.049591,-0.290549 0.152779,-0.552951 0.309601,-1.471746c0.049591,-0.290548 0,-0.588697 0,-1.177396c0,-0.294349 -0.095192,-0.643449 0.309593,-1.177396c0.256012,-0.3377 0.309601,-0.588697 0.309601,-0.883046c0,-0.294349 0,-0.883047 0,-1.177396c0,-0.294349 0,-0.588698 0,-1.177396c0,-0.294349 0.309601,-0.588698 0.309601,-0.883047c0,-0.588698 0.309593,-0.883047 0.309593,-1.177396c0,-0.294349 0,-0.883047 0,-1.177396c0,-0.294349 0,-0.588698 0,-1.177396c0,-0.294349 0.309601,-0.588698 0.309601,-0.883047c0,-0.588698 0,-0.883049 0.309593,-1.177396c0.309601,-0.294351 0.309601,-0.883047 0.309601,-1.177396c0,-0.294349 -0.236954,-0.633509 0,-1.177396c0.167549,-0.384584 0.309593,-0.588698 0.309593,-0.883047c0,-0.588698 0.309601,-1.177396 0.309601,-1.471745c0,-0.588698 0.928795,-0.588698 1.238388,-0.588698c0.309601,0 0.928795,0 1.238396,0c0.309593,0 0.619194,0 1.238388,0c0.309593,0 0.619194,0 0.928787,0c0.619202,0 0.928795,-0.294349 1.238396,-0.294349c0.309593,0 0.928787,-0.294349 1.547989,-0.294349c0.309593,0 0.619194,0.294349 0.619194,0.588698c0,0.294349 0,0.883047 0,1.177396c0,0.294349 0.451637,0.792809 0.619194,1.177396c0.118477,0.271943 0.309593,0.588698 0.309593,1.766094c0,0.294349 0.309601,0.588698 0.309601,1.177396c0,0.294349 0.309601,0.588698 0.309601,0.883047c0,0.588698 0.619194,1.471745 0.619194,2.060443c0,0.294349 0,0.588698 0,0.883047c0,0.588698 0.309593,1.177396 0.309593,1.471745c0,0.883046 0.309601,1.177396 0.309601,1.471744c0,0.588698 0.214409,1.232147 0.619194,1.766094c0.256012,0.337699 0.451645,0.498465 0.619194,0.883047c0.118477,0.271942 0.309601,0.883047 0.309601,1.177396c0,0.294349 -0.236954,0.63351 0,1.177396c0.167549,0.384584 0.214409,0.643447 0.619194,1.177396c0.256004,0.337694 0.191116,0.611105 0.309593,0.883047c0.167557,0.384587 0.451645,0.792812 0.619194,1.177396c0.118477,0.271942 0,0.588699 0,1.177396c0,0.294349 0.191124,0.611105 0.309601,0.883047c0.167557,0.384587 0.619194,0.294349 0.928795,0.294349l0.309593,0l0.619194,0" id="svg_23" fill-opacity="null" stroke-opacity="null" stroke-width="8.5" fill="none"/>
     <path transform="rotate(-180 99.62286376953125,187.03001403808594) " stroke="#000" d="m89.096547,199.229276c0,0 0.56483,0.26553 0.92878,-0.29435c0.16277,-0.25039 0.23848,-0.59657 0.3096,-0.88305c0.15906,-0.64058 0.77198,-0.8473 0.9288,-1.76609c0.04959,-0.29055 0.15277,-0.55295 0.30959,-1.47175c0.04959,-0.29055 0.15278,-0.55295 0.3096,-1.47174c0.04959,-0.29055 0,-0.5887 0,-1.1774c0,-0.29435 -0.09519,-0.64345 0.3096,-1.17739c0.25601,-0.3377 0.3096,-0.5887 0.3096,-0.88305c0,-0.29435 0,-0.88305 0,-1.1774c0,-0.29435 0,-0.58869 0,-1.17739c0,-0.29435 0.3096,-0.5887 0.3096,-0.88305c0,-0.5887 0.30959,-0.88305 0.30959,-1.1774c0,-0.29435 0,-0.88304 0,-1.17739c0,-0.29435 0,-0.5887 0,-1.1774c0,-0.29435 0.3096,-0.5887 0.3096,-0.88304c0,-0.5887 0,-0.88305 0.3096,-1.1774c0.3096,-0.29435 0.3096,-0.88305 0.3096,-1.1774c0,-0.29435 -0.23696,-0.63351 0,-1.17739c0.16755,-0.38459 0.30959,-0.5887 0.30959,-0.88305c0,-0.5887 0.3096,-1.1774 0.3096,-1.47174c0,-0.5887 0.92879,-0.5887 1.23839,-0.5887c0.3096,0 0.92879,0 1.23839,0c0.3096,0 0.6192,0 1.23839,0c0.3096,0 0.6192,0 0.92879,0c0.6192,0 0.92879,-0.29435 1.23839,-0.29435c0.3096,0 0.92879,-0.29435 1.54799,-0.29435c0.3096,0 0.6192,0.29435 0.6192,0.5887c0,0.29435 0,0.88304 0,1.17739c0,0.29435 0.45164,0.79281 0.61919,1.1774c0.11848,0.27194 0.30959,0.5887 0.30959,1.76609c0,0.29435 0.30961,0.5887 0.30961,1.1774c0,0.29435 0.3096,0.5887 0.3096,0.88305c0,0.58869 0.61919,1.47174 0.61919,2.06044c0,0.29435 0,0.5887 0,0.88305c0,0.58869 0.30959,1.17739 0.30959,1.47174c0,0.88305 0.3096,1.1774 0.3096,1.47175c0,0.58869 0.21441,1.23214 0.6192,1.76609c0.25601,0.3377 0.45164,0.49846 0.61919,0.88305c0.11848,0.27194 0.3096,0.88304 0.3096,1.17739c0,0.29435 -0.23695,0.63351 0,1.1774c0.16755,0.38458 0.21441,0.64345 0.6192,1.17739c0.256,0.3377 0.19111,0.61111 0.30959,0.88305c0.16756,0.38459 0.45165,0.79281 0.61919,1.1774c0.11848,0.27194 0,0.5887 0,1.17739c0,0.29435 0.19113,0.61111 0.30961,0.88305c0.16755,0.38459 0.61919,0.29435 0.92879,0.29435l0.30959,0l0.6192,0" id="svg_24" fill-opacity="null" stroke-opacity="null" stroke-width="8.5" fill="none"/>
    </g>
    <g transform="rotate(45 99.62286376953125,100.18790435791016) " id="svg_28">
     <path stroke="#000" d="m89.09655,25.54506c0,0 0.56483,0.26553 0.92878,-0.29435c0.16277,-0.25039 0.23848,-0.59658 0.3096,-0.88305c0.15906,-0.64058 0.77198,-0.8473 0.9288,-1.76609c0.04959,-0.29055 0.15277,-0.55296 0.30959,-1.47175c0.04959,-0.29055 0.15278,-0.55295 0.3096,-1.47175c0.04959,-0.29054 0,-0.58869 0,-1.17739c0,-0.29435 -0.09519,-0.64345 0.3096,-1.1774c0.25601,-0.3377 0.3096,-0.58869 0.3096,-0.88304c0,-0.29435 0,-0.88305 0,-1.1774c0,-0.29435 0,-0.5887 0,-1.1774c0,-0.29434 0.3096,-0.58869 0.3096,-0.88304c0,-0.5887 0.30959,-0.88305 0.30959,-1.1774c0,-0.29435 0,-0.88305 0,-1.17739c0,-0.29435 0,-0.5887 0,-1.1774c0,-0.29435 0.3096,-0.5887 0.3096,-0.88305c0,-0.5887 0,-0.88305 0.3096,-1.17739c0.3096,-0.29435 0.3096,-0.88305 0.3096,-1.1774c0,-0.29435 -0.23696,-0.63351 0,-1.1774c0.16755,-0.38458 0.30959,-0.58869 0.30959,-0.88304c0,-0.5887 0.3096,-1.1774 0.3096,-1.47175c0,-0.5887 0.9288,-0.5887 1.23839,-0.5887c0.3096,0 0.92879,0 1.23839,0c0.3096,0 0.6192,0 1.23839,0c0.3096,0 0.6192,0 0.92879,0c0.6192,0 0.92879,-0.29434 1.2384,-0.29434c0.30959,0 0.92878,-0.29435 1.54798,-0.29435c0.3096,0 0.6192,0.29435 0.6192,0.58869c0,0.29435 0,0.88305 0,1.1774c0,0.29435 0.45164,0.79281 0.61919,1.1774c0.11848,0.27194 0.3096,0.58869 0.3096,1.76609c0,0.29435 0.3096,0.5887 0.3096,1.1774c0,0.29435 0.3096,0.58869 0.3096,0.88304c0,0.5887 0.61919,1.47175 0.61919,2.06045c0,0.29435 0,0.58869 0,0.88304c0,0.5887 0.30959,1.1774 0.30959,1.47175c0,0.88305 0.30961,1.17739 0.30961,1.47174c0,0.5887 0.2144,1.23215 0.61919,1.7661c0.25601,0.3377 0.45164,0.49846 0.61919,0.88304c0.11848,0.27195 0.3096,0.88305 0.3096,1.1774c0,0.29435 -0.23695,0.63351 0,1.1774c0.16755,0.38458 0.21441,0.64344 0.6192,1.17739c0.256,0.3377 0.19111,0.61111 0.30959,0.88305c0.16756,0.38459 0.45165,0.79281 0.6192,1.1774c0.11847,0.27194 0,0.58869 0,1.17739c0,0.29435 0.19112,0.61111 0.3096,0.88305c0.16755,0.38459 0.61919,0.29435 0.92879,0.29435l0.30959,0l0.6192,0" id="svg_26" fill-opacity="null" stroke-opacity="null" stroke-width="8.5" fill="none"/>
     <path transform="rotate(-180 99.62286376953125,187.03001403808594) " stroke="#000" d="m89.09655,199.22928c0,0 0.56483,0.26553 0.92878,-0.29435c0.16277,-0.25039 0.23848,-0.59657 0.3096,-0.88305c0.15906,-0.64058 0.77198,-0.8473 0.9288,-1.76609c0.04959,-0.29055 0.15277,-0.55295 0.30959,-1.47175c0.04959,-0.29055 0.15278,-0.55295 0.3096,-1.47174c0.04959,-0.29055 0,-0.5887 0,-1.1774c0,-0.29435 -0.09519,-0.64345 0.3096,-1.17739c0.25601,-0.3377 0.3096,-0.5887 0.3096,-0.88305c0,-0.29435 0,-0.88305 0,-1.1774c0,-0.29435 0,-0.58869 0,-1.17739c0,-0.29435 0.3096,-0.5887 0.3096,-0.88305c0,-0.5887 0.30959,-0.88305 0.30959,-1.1774c0,-0.29435 0,-0.88304 0,-1.17739c0,-0.29435 0,-0.5887 0,-1.1774c0,-0.29435 0.3096,-0.5887 0.3096,-0.88304c0,-0.5887 0,-0.88305 0.3096,-1.1774c0.3096,-0.29435 0.3096,-0.88305 0.3096,-1.1774c0,-0.29435 -0.23696,-0.63351 0,-1.17739c0.16755,-0.38459 0.30959,-0.5887 0.30959,-0.88305c0,-0.5887 0.3096,-1.1774 0.3096,-1.47174c0,-0.5887 0.92879,-0.5887 1.23839,-0.5887c0.3096,0 0.92879,0 1.23839,0c0.3096,0 0.6192,0 1.23839,0c0.3096,0 0.6192,0 0.92879,0c0.6192,0 0.92879,-0.29435 1.23839,-0.29435c0.3096,0 0.92879,-0.29435 1.54799,-0.29435c0.3096,0 0.6192,0.29435 0.6192,0.5887c0,0.29435 0,0.88304 0,1.17739c0,0.29435 0.45164,0.79281 0.61919,1.1774c0.11848,0.27194 0.30959,0.5887 0.30959,1.76609c0,0.29435 0.30961,0.5887 0.30961,1.1774c0,0.29435 0.3096,0.5887 0.3096,0.88305c0,0.58869 0.61919,1.47174 0.61919,2.06044c0,0.29435 0,0.5887 0,0.88305c0,0.58869 0.30959,1.17739 0.30959,1.47174c0,0.88305 0.3096,1.1774 0.3096,1.47175c0,0.58869 0.21441,1.23214 0.6192,1.76609c0.25601,0.3377 0.45164,0.49846 0.61919,0.88305c0.11848,0.27194 0.3096,0.88304 0.3096,1.17739c0,0.29435 -0.23695,0.63351 0,1.1774c0.16755,0.38458 0.21441,0.64345 0.6192,1.17739c0.256,0.3377 0.19111,0.61111 0.30959,0.88305c0.16756,0.38459 0.45165,0.79281 0.61919,1.1774c0.11848,0.27194 0,0.5887 0,1.17739c0,0.29435 0.19113,0.61111 0.30961,0.88305c0.16755,0.38459 0.61919,0.29435 0.92879,0.29435l0.30959,0l0.6192,0" id="svg_27" fill-opacity="null" stroke-opacity="null" stroke-width="8.5" fill="none"/>
    </g>
    <g transform="rotate(90 99.62286376953125,100.18790435791017) " id="svg_31">
     <path stroke="#000" d="m89.09655,25.54506c0,0 0.56483,0.26553 0.92878,-0.29435c0.16277,-0.25039 0.23848,-0.59658 0.3096,-0.88305c0.15906,-0.64058 0.77198,-0.8473 0.9288,-1.76609c0.04959,-0.29055 0.15277,-0.55296 0.30959,-1.47175c0.04959,-0.29055 0.15278,-0.55295 0.3096,-1.47175c0.04959,-0.29054 0,-0.58869 0,-1.17739c0,-0.29435 -0.09519,-0.64345 0.3096,-1.1774c0.25601,-0.3377 0.3096,-0.58869 0.3096,-0.88304c0,-0.29435 0,-0.88305 0,-1.1774c0,-0.29435 0,-0.5887 0,-1.1774c0,-0.29434 0.3096,-0.58869 0.3096,-0.88304c0,-0.5887 0.30959,-0.88305 0.30959,-1.1774c0,-0.29435 0,-0.88305 0,-1.17739c0,-0.29435 0,-0.5887 0,-1.1774c0,-0.29435 0.3096,-0.5887 0.3096,-0.88305c0,-0.5887 0,-0.88305 0.3096,-1.17739c0.3096,-0.29435 0.3096,-0.88305 0.3096,-1.1774c0,-0.29435 -0.23696,-0.63351 0,-1.1774c0.16755,-0.38458 0.30959,-0.58869 0.30959,-0.88304c0,-0.5887 0.3096,-1.1774 0.3096,-1.47175c0,-0.5887 0.9288,-0.5887 1.23839,-0.5887c0.3096,0 0.92879,0 1.23839,0c0.3096,0 0.6192,0 1.23839,0c0.3096,0 0.6192,0 0.92879,0c0.6192,0 0.92879,-0.29434 1.2384,-0.29434c0.30959,0 0.92878,-0.29435 1.54798,-0.29435c0.3096,0 0.6192,0.29435 0.6192,0.58869c0,0.29435 0,0.88305 0,1.1774c0,0.29435 0.45164,0.79281 0.61919,1.1774c0.11848,0.27194 0.3096,0.58869 0.3096,1.76609c0,0.29435 0.3096,0.5887 0.3096,1.1774c0,0.29435 0.3096,0.58869 0.3096,0.88304c0,0.5887 0.61919,1.47175 0.61919,2.06045c0,0.29435 0,0.58869 0,0.88304c0,0.5887 0.30959,1.1774 0.30959,1.47175c0,0.88305 0.30961,1.17739 0.30961,1.47174c0,0.5887 0.2144,1.23215 0.61919,1.7661c0.25601,0.3377 0.45164,0.49846 0.61919,0.88304c0.11848,0.27195 0.3096,0.88305 0.3096,1.1774c0,0.29435 -0.23695,0.63351 0,1.1774c0.16755,0.38458 0.21441,0.64344 0.6192,1.17739c0.256,0.3377 0.19111,0.61111 0.30959,0.88305c0.16756,0.38459 0.45165,0.79281 0.6192,1.1774c0.11847,0.27194 0,0.58869 0,1.17739c0,0.29435 0.19112,0.61111 0.3096,0.88305c0.16755,0.38459 0.61919,0.29435 0.92879,0.29435l0.30959,0l0.6192,0" id="svg_29" fill-opacity="null" stroke-opacity="null" stroke-width="8.5" fill="none"/>
     <path transform="rotate(-180 99.62286376953125,187.03001403808594) " stroke="#000" d="m89.09655,199.22928c0,0 0.56483,0.26553 0.92878,-0.29435c0.16277,-0.25039 0.23848,-0.59657 0.3096,-0.88305c0.15906,-0.64058 0.77198,-0.8473 0.9288,-1.76609c0.04959,-0.29055 0.15277,-0.55295 0.30959,-1.47175c0.04959,-0.29055 0.15278,-0.55295 0.3096,-1.47174c0.04959,-0.29055 0,-0.5887 0,-1.1774c0,-0.29435 -0.09519,-0.64345 0.3096,-1.17739c0.25601,-0.3377 0.3096,-0.5887 0.3096,-0.88305c0,-0.29435 0,-0.88305 0,-1.1774c0,-0.29435 0,-0.58869 0,-1.17739c0,-0.29435 0.3096,-0.5887 0.3096,-0.88305c0,-0.5887 0.30959,-0.88305 0.30959,-1.1774c0,-0.29435 0,-0.88304 0,-1.17739c0,-0.29435 0,-0.5887 0,-1.1774c0,-0.29435 0.3096,-0.5887 0.3096,-0.88304c0,-0.5887 0,-0.88305 0.3096,-1.1774c0.3096,-0.29435 0.3096,-0.88305 0.3096,-1.1774c0,-0.29435 -0.23696,-0.63351 0,-1.17739c0.16755,-0.38459 0.30959,-0.5887 0.30959,-0.88305c0,-0.5887 0.3096,-1.1774 0.3096,-1.47174c0,-0.5887 0.92879,-0.5887 1.23839,-0.5887c0.3096,0 0.92879,0 1.23839,0c0.3096,0 0.6192,0 1.23839,0c0.3096,0 0.6192,0 0.92879,0c0.6192,0 0.92879,-0.29435 1.23839,-0.29435c0.3096,0 0.92879,-0.29435 1.54799,-0.29435c0.3096,0 0.6192,0.29435 0.6192,0.5887c0,0.29435 0,0.88304 0,1.17739c0,0.29435 0.45164,0.79281 0.61919,1.1774c0.11848,0.27194 0.30959,0.5887 0.30959,1.76609c0,0.29435 0.30961,0.5887 0.30961,1.1774c0,0.29435 0.3096,0.5887 0.3096,0.88305c0,0.58869 0.61919,1.47174 0.61919,2.06044c0,0.29435 0,0.5887 0,0.88305c0,0.58869 0.30959,1.17739 0.30959,1.47174c0,0.88305 0.3096,1.1774 0.3096,1.47175c0,0.58869 0.21441,1.23214 0.6192,1.76609c0.25601,0.3377 0.45164,0.49846 0.61919,0.88305c0.11848,0.27194 0.3096,0.88304 0.3096,1.17739c0,0.29435 -0.23695,0.63351 0,1.1774c0.16755,0.38458 0.21441,0.64345 0.6192,1.17739c0.256,0.3377 0.19111,0.61111 0.30959,0.88305c0.16756,0.38459 0.45165,0.79281 0.61919,1.1774c0.11848,0.27194 0,0.5887 0,1.17739c0,0.29435 0.19113,0.61111 0.30961,0.88305c0.16755,0.38459 0.61919,0.29435 0.92879,0.29435l0.30959,0l0.6192,0" id="svg_30" fill-opacity="null" stroke-opacity="null" stroke-width="8.5" fill="none"/>
    </g>
    <g transform="rotate(135 99.62286376953125,100.18790435791016) " id="svg_34">
     <path stroke="#000" d="m89.09655,25.54506c0,0 0.56483,0.26553 0.92878,-0.29435c0.16277,-0.25039 0.23848,-0.59658 0.3096,-0.88305c0.15906,-0.64058 0.77198,-0.8473 0.9288,-1.76609c0.04959,-0.29055 0.15277,-0.55296 0.30959,-1.47175c0.04959,-0.29055 0.15278,-0.55295 0.3096,-1.47175c0.04959,-0.29054 0,-0.58869 0,-1.17739c0,-0.29435 -0.09519,-0.64345 0.3096,-1.1774c0.25601,-0.3377 0.3096,-0.58869 0.3096,-0.88304c0,-0.29435 0,-0.88305 0,-1.1774c0,-0.29435 0,-0.5887 0,-1.1774c0,-0.29434 0.3096,-0.58869 0.3096,-0.88304c0,-0.5887 0.30959,-0.88305 0.30959,-1.1774c0,-0.29435 0,-0.88305 0,-1.17739c0,-0.29435 0,-0.5887 0,-1.1774c0,-0.29435 0.3096,-0.5887 0.3096,-0.88305c0,-0.5887 0,-0.88305 0.3096,-1.17739c0.3096,-0.29435 0.3096,-0.88305 0.3096,-1.1774c0,-0.29435 -0.23696,-0.63351 0,-1.1774c0.16755,-0.38458 0.30959,-0.58869 0.30959,-0.88304c0,-0.5887 0.3096,-1.1774 0.3096,-1.47175c0,-0.5887 0.9288,-0.5887 1.23839,-0.5887c0.3096,0 0.92879,0 1.23839,0c0.3096,0 0.6192,0 1.23839,0c0.3096,0 0.6192,0 0.92879,0c0.6192,0 0.92879,-0.29434 1.2384,-0.29434c0.30959,0 0.92878,-0.29435 1.54798,-0.29435c0.3096,0 0.6192,0.29435 0.6192,0.58869c0,0.29435 0,0.88305 0,1.1774c0,0.29435 0.45164,0.79281 0.61919,1.1774c0.11848,0.27194 0.3096,0.58869 0.3096,1.76609c0,0.29435 0.3096,0.5887 0.3096,1.1774c0,0.29435 0.3096,0.58869 0.3096,0.88304c0,0.5887 0.61919,1.47175 0.61919,2.06045c0,0.29435 0,0.58869 0,0.88304c0,0.5887 0.30959,1.1774 0.30959,1.47175c0,0.88305 0.30961,1.17739 0.30961,1.47174c0,0.5887 0.2144,1.23215 0.61919,1.7661c0.25601,0.3377 0.45164,0.49846 0.61919,0.88304c0.11848,0.27195 0.3096,0.88305 0.3096,1.1774c0,0.29435 -0.23695,0.63351 0,1.1774c0.16755,0.38458 0.21441,0.64344 0.6192,1.17739c0.256,0.3377 0.19111,0.61111 0.30959,0.88305c0.16756,0.38459 0.45165,0.79281 0.6192,1.1774c0.11847,0.27194 0,0.58869 0,1.17739c0,0.29435 0.19112,0.61111 0.3096,0.88305c0.16755,0.38459 0.61919,0.29435 0.92879,0.29435l0.30959,0l0.6192,0" id="svg_32" fill-opacity="null" stroke-opacity="null" stroke-width="8.5" fill="none"/>
     <path transform="rotate(-180 99.62286376953125,187.03001403808594) " stroke="#000" d="m89.09655,199.22928c0,0 0.56483,0.26553 0.92878,-0.29435c0.16277,-0.25039 0.23848,-0.59657 0.3096,-0.88305c0.15906,-0.64058 0.77198,-0.8473 0.9288,-1.76609c0.04959,-0.29055 0.15277,-0.55295 0.30959,-1.47175c0.04959,-0.29055 0.15278,-0.55295 0.3096,-1.47174c0.04959,-0.29055 0,-0.5887 0,-1.1774c0,-0.29435 -0.09519,-0.64345 0.3096,-1.17739c0.25601,-0.3377 0.3096,-0.5887 0.3096,-0.88305c0,-0.29435 0,-0.88305 0,-1.1774c0,-0.29435 0,-0.58869 0,-1.17739c0,-0.29435 0.3096,-0.5887 0.3096,-0.88305c0,-0.5887 0.30959,-0.88305 0.30959,-1.1774c0,-0.29435 0,-0.88304 0,-1.17739c0,-0.29435 0,-0.5887 0,-1.1774c0,-0.29435 0.3096,-0.5887 0.3096,-0.88304c0,-0.5887 0,-0.88305 0.3096,-1.1774c0.3096,-0.29435 0.3096,-0.88305 0.3096,-1.1774c0,-0.29435 -0.23696,-0.63351 0,-1.17739c0.16755,-0.38459 0.30959,-0.5887 0.30959,-0.88305c0,-0.5887 0.3096,-1.1774 0.3096,-1.47174c0,-0.5887 0.92879,-0.5887 1.23839,-0.5887c0.3096,0 0.92879,0 1.23839,0c0.3096,0 0.6192,0 1.23839,0c0.3096,0 0.6192,0 0.92879,0c0.6192,0 0.92879,-0.29435 1.23839,-0.29435c0.3096,0 0.92879,-0.29435 1.54799,-0.29435c0.3096,0 0.6192,0.29435 0.6192,0.5887c0,0.29435 0,0.88304 0,1.17739c0,0.29435 0.45164,0.79281 0.61919,1.1774c0.11848,0.27194 0.30959,0.5887 0.30959,1.76609c0,0.29435 0.30961,0.5887 0.30961,1.1774c0,0.29435 0.3096,0.5887 0.3096,0.88305c0,0.58869 0.61919,1.47174 0.61919,2.06044c0,0.29435 0,0.5887 0,0.88305c0,0.58869 0.30959,1.17739 0.30959,1.47174c0,0.88305 0.3096,1.1774 0.3096,1.47175c0,0.58869 0.21441,1.23214 0.6192,1.76609c0.25601,0.3377 0.45164,0.49846 0.61919,0.88305c0.11848,0.27194 0.3096,0.88304 0.3096,1.17739c0,0.29435 -0.23695,0.63351 0,1.1774c0.16755,0.38458 0.21441,0.64345 0.6192,1.17739c0.256,0.3377 0.19111,0.61111 0.30959,0.88305c0.16756,0.38459 0.45165,0.79281 0.61919,1.1774c0.11848,0.27194 0,0.5887 0,1.17739c0,0.29435 0.19113,0.61111 0.30961,0.88305c0.16755,0.38459 0.61919,0.29435 0.92879,0.29435l0.30959,0l0.6192,0" id="svg_33" fill-opacity="null" stroke-opacity="null" stroke-width="8.5" fill="none"/>
    </g>
   </g>
   <g transform="rotate(22.813203811645508 99.62285614013663,100.18790435791016) " id="svg_48">
    <g id="svg_38">
     <path stroke="#000" d="m89.09655,25.54506c0,0 0.56483,0.26553 0.92878,-0.29435c0.16277,-0.25039 0.23848,-0.59658 0.3096,-0.88305c0.15906,-0.64058 0.77198,-0.8473 0.9288,-1.76609c0.04959,-0.29055 0.15277,-0.55296 0.30959,-1.47175c0.04959,-0.29055 0.15278,-0.55295 0.3096,-1.47175c0.04959,-0.29054 0,-0.58869 0,-1.17739c0,-0.29435 -0.09519,-0.64345 0.3096,-1.1774c0.25601,-0.3377 0.3096,-0.58869 0.3096,-0.88304c0,-0.29435 0,-0.88305 0,-1.1774c0,-0.29435 0,-0.5887 0,-1.1774c0,-0.29434 0.3096,-0.58869 0.3096,-0.88304c0,-0.5887 0.30959,-0.88305 0.30959,-1.1774c0,-0.29435 0,-0.88305 0,-1.17739c0,-0.29435 0,-0.5887 0,-1.1774c0,-0.29435 0.3096,-0.5887 0.3096,-0.88305c0,-0.5887 0,-0.88305 0.3096,-1.17739c0.3096,-0.29435 0.3096,-0.88305 0.3096,-1.1774c0,-0.29435 -0.23696,-0.63351 0,-1.1774c0.16755,-0.38458 0.30959,-0.58869 0.30959,-0.88304c0,-0.5887 0.3096,-1.1774 0.3096,-1.47175c0,-0.5887 0.9288,-0.5887 1.23839,-0.5887c0.3096,0 0.92879,0 1.23839,0c0.3096,0 0.6192,0 1.23839,0c0.3096,0 0.6192,0 0.92879,0c0.6192,0 0.92879,-0.29434 1.2384,-0.29434c0.30959,0 0.92878,-0.29435 1.54798,-0.29435c0.3096,0 0.6192,0.29435 0.6192,0.58869c0,0.29435 0,0.88305 0,1.1774c0,0.29435 0.45164,0.79281 0.61919,1.1774c0.11848,0.27194 0.3096,0.58869 0.3096,1.76609c0,0.29435 0.3096,0.5887 0.3096,1.1774c0,0.29435 0.3096,0.58869 0.3096,0.88304c0,0.5887 0.61919,1.47175 0.61919,2.06045c0,0.29435 0,0.58869 0,0.88304c0,0.5887 0.30959,1.1774 0.30959,1.47175c0,0.88305 0.30961,1.17739 0.30961,1.47174c0,0.5887 0.2144,1.23215 0.61919,1.7661c0.25601,0.3377 0.45164,0.49846 0.61919,0.88304c0.11848,0.27195 0.3096,0.88305 0.3096,1.1774c0,0.29435 -0.23695,0.63351 0,1.1774c0.16755,0.38458 0.21441,0.64344 0.6192,1.17739c0.256,0.3377 0.19111,0.61111 0.30959,0.88305c0.16756,0.38459 0.45165,0.79281 0.6192,1.1774c0.11847,0.27194 0,0.58869 0,1.17739c0,0.29435 0.19112,0.61111 0.3096,0.88305c0.16755,0.38459 0.61919,0.29435 0.92879,0.29435l0.30959,0l0.6192,0" id="svg_36" fill-opacity="null" stroke-opacity="null" stroke-width="8.5" fill="none"/>
     <path transform="rotate(-180 99.62286376953125,187.03001403808594) " stroke="#000" d="m89.09655,199.22928c0,0 0.56483,0.26553 0.92878,-0.29435c0.16277,-0.25039 0.23848,-0.59657 0.3096,-0.88305c0.15906,-0.64058 0.77198,-0.8473 0.9288,-1.76609c0.04959,-0.29055 0.15277,-0.55295 0.30959,-1.47175c0.04959,-0.29055 0.15278,-0.55295 0.3096,-1.47174c0.04959,-0.29055 0,-0.5887 0,-1.1774c0,-0.29435 -0.09519,-0.64345 0.3096,-1.17739c0.25601,-0.3377 0.3096,-0.5887 0.3096,-0.88305c0,-0.29435 0,-0.88305 0,-1.1774c0,-0.29435 0,-0.58869 0,-1.17739c0,-0.29435 0.3096,-0.5887 0.3096,-0.88305c0,-0.5887 0.30959,-0.88305 0.30959,-1.1774c0,-0.29435 0,-0.88304 0,-1.17739c0,-0.29435 0,-0.5887 0,-1.1774c0,-0.29435 0.3096,-0.5887 0.3096,-0.88304c0,-0.5887 0,-0.88305 0.3096,-1.1774c0.3096,-0.29435 0.3096,-0.88305 0.3096,-1.1774c0,-0.29435 -0.23696,-0.63351 0,-1.17739c0.16755,-0.38459 0.30959,-0.5887 0.30959,-0.88305c0,-0.5887 0.3096,-1.1774 0.3096,-1.47174c0,-0.5887 0.92879,-0.5887 1.23839,-0.5887c0.3096,0 0.92879,0 1.23839,0c0.3096,0 0.6192,0 1.23839,0c0.3096,0 0.6192,0 0.92879,0c0.6192,0 0.92879,-0.29435 1.23839,-0.29435c0.3096,0 0.92879,-0.29435 1.54799,-0.29435c0.3096,0 0.6192,0.29435 0.6192,0.5887c0,0.29435 0,0.88304 0,1.17739c0,0.29435 0.45164,0.79281 0.61919,1.1774c0.11848,0.27194 0.30959,0.5887 0.30959,1.76609c0,0.29435 0.30961,0.5887 0.30961,1.1774c0,0.29435 0.3096,0.5887 0.3096,0.88305c0,0.58869 0.61919,1.47174 0.61919,2.06044c0,0.29435 0,0.5887 0,0.88305c0,0.58869 0.30959,1.17739 0.30959,1.47174c0,0.88305 0.3096,1.1774 0.3096,1.47175c0,0.58869 0.21441,1.23214 0.6192,1.76609c0.25601,0.3377 0.45164,0.49846 0.61919,0.88305c0.11848,0.27194 0.3096,0.88304 0.3096,1.17739c0,0.29435 -0.23695,0.63351 0,1.1774c0.16755,0.38458 0.21441,0.64345 0.6192,1.17739c0.256,0.3377 0.19111,0.61111 0.30959,0.88305c0.16756,0.38459 0.45165,0.79281 0.61919,1.1774c0.11848,0.27194 0,0.5887 0,1.17739c0,0.29435 0.19113,0.61111 0.30961,0.88305c0.16755,0.38459 0.61919,0.29435 0.92879,0.29435l0.30959,0l0.6192,0" id="svg_37" fill-opacity="null" stroke-opacity="null" stroke-width="8.5" fill="none"/>
    </g>
    <g transform="rotate(45 99.62286376953125,100.18790435791016) " id="svg_41">
     <path stroke="#000" d="m89.09655,25.54506c0,0 0.56483,0.26553 0.92878,-0.29435c0.16277,-0.25039 0.23848,-0.59658 0.3096,-0.88305c0.15906,-0.64058 0.77198,-0.8473 0.9288,-1.76609c0.04959,-0.29055 0.15277,-0.55296 0.30959,-1.47175c0.04959,-0.29055 0.15278,-0.55295 0.3096,-1.47175c0.04959,-0.29054 0,-0.58869 0,-1.17739c0,-0.29435 -0.09519,-0.64345 0.3096,-1.1774c0.25601,-0.3377 0.3096,-0.58869 0.3096,-0.88304c0,-0.29435 0,-0.88305 0,-1.1774c0,-0.29435 0,-0.5887 0,-1.1774c0,-0.29434 0.3096,-0.58869 0.3096,-0.88304c0,-0.5887 0.30959,-0.88305 0.30959,-1.1774c0,-0.29435 0,-0.88305 0,-1.17739c0,-0.29435 0,-0.5887 0,-1.1774c0,-0.29435 0.3096,-0.5887 0.3096,-0.88305c0,-0.5887 0,-0.88305 0.3096,-1.17739c0.3096,-0.29435 0.3096,-0.88305 0.3096,-1.1774c0,-0.29435 -0.23696,-0.63351 0,-1.1774c0.16755,-0.38458 0.30959,-0.58869 0.30959,-0.88304c0,-0.5887 0.3096,-1.1774 0.3096,-1.47175c0,-0.5887 0.9288,-0.5887 1.23839,-0.5887c0.3096,0 0.92879,0 1.23839,0c0.3096,0 0.6192,0 1.23839,0c0.3096,0 0.6192,0 0.92879,0c0.6192,0 0.92879,-0.29434 1.2384,-0.29434c0.30959,0 0.92878,-0.29435 1.54798,-0.29435c0.3096,0 0.6192,0.29435 0.6192,0.58869c0,0.29435 0,0.88305 0,1.1774c0,0.29435 0.45164,0.79281 0.61919,1.1774c0.11848,0.27194 0.3096,0.58869 0.3096,1.76609c0,0.29435 0.3096,0.5887 0.3096,1.1774c0,0.29435 0.3096,0.58869 0.3096,0.88304c0,0.5887 0.61919,1.47175 0.61919,2.06045c0,0.29435 0,0.58869 0,0.88304c0,0.5887 0.30959,1.1774 0.30959,1.47175c0,0.88305 0.30961,1.17739 0.30961,1.47174c0,0.5887 0.2144,1.23215 0.61919,1.7661c0.25601,0.3377 0.45164,0.49846 0.61919,0.88304c0.11848,0.27195 0.3096,0.88305 0.3096,1.1774c0,0.29435 -0.23695,0.63351 0,1.1774c0.16755,0.38458 0.21441,0.64344 0.6192,1.17739c0.256,0.3377 0.19111,0.61111 0.30959,0.88305c0.16756,0.38459 0.45165,0.79281 0.6192,1.1774c0.11847,0.27194 0,0.58869 0,1.17739c0,0.29435 0.19112,0.61111 0.3096,0.88305c0.16755,0.38459 0.61919,0.29435 0.92879,0.29435l0.30959,0l0.6192,0" id="svg_39" fill-opacity="null" stroke-opacity="null" stroke-width="8.5" fill="none"/>
     <path transform="rotate(-180 99.62286376953125,187.03001403808594) " stroke="#000" d="m89.09655,199.22928c0,0 0.56483,0.26553 0.92878,-0.29435c0.16277,-0.25039 0.23848,-0.59657 0.3096,-0.88305c0.15906,-0.64058 0.77198,-0.8473 0.9288,-1.76609c0.04959,-0.29055 0.15277,-0.55295 0.30959,-1.47175c0.04959,-0.29055 0.15278,-0.55295 0.3096,-1.47174c0.04959,-0.29055 0,-0.5887 0,-1.1774c0,-0.29435 -0.09519,-0.64345 0.3096,-1.17739c0.25601,-0.3377 0.3096,-0.5887 0.3096,-0.88305c0,-0.29435 0,-0.88305 0,-1.1774c0,-0.29435 0,-0.58869 0,-1.17739c0,-0.29435 0.3096,-0.5887 0.3096,-0.88305c0,-0.5887 0.30959,-0.88305 0.30959,-1.1774c0,-0.29435 0,-0.88304 0,-1.17739c0,-0.29435 0,-0.5887 0,-1.1774c0,-0.29435 0.3096,-0.5887 0.3096,-0.88304c0,-0.5887 0,-0.88305 0.3096,-1.1774c0.3096,-0.29435 0.3096,-0.88305 0.3096,-1.1774c0,-0.29435 -0.23696,-0.63351 0,-1.17739c0.16755,-0.38459 0.30959,-0.5887 0.30959,-0.88305c0,-0.5887 0.3096,-1.1774 0.3096,-1.47174c0,-0.5887 0.92879,-0.5887 1.23839,-0.5887c0.3096,0 0.92879,0 1.23839,0c0.3096,0 0.6192,0 1.23839,0c0.3096,0 0.6192,0 0.92879,0c0.6192,0 0.92879,-0.29435 1.23839,-0.29435c0.3096,0 0.92879,-0.29435 1.54799,-0.29435c0.3096,0 0.6192,0.29435 0.6192,0.5887c0,0.29435 0,0.88304 0,1.17739c0,0.29435 0.45164,0.79281 0.61919,1.1774c0.11848,0.27194 0.30959,0.5887 0.30959,1.76609c0,0.29435 0.30961,0.5887 0.30961,1.1774c0,0.29435 0.3096,0.5887 0.3096,0.88305c0,0.58869 0.61919,1.47174 0.61919,2.06044c0,0.29435 0,0.5887 0,0.88305c0,0.58869 0.30959,1.17739 0.30959,1.47174c0,0.88305 0.3096,1.1774 0.3096,1.47175c0,0.58869 0.21441,1.23214 0.6192,1.76609c0.25601,0.3377 0.45164,0.49846 0.61919,0.88305c0.11848,0.27194 0.3096,0.88304 0.3096,1.17739c0,0.29435 -0.23695,0.63351 0,1.1774c0.16755,0.38458 0.21441,0.64345 0.6192,1.17739c0.256,0.3377 0.19111,0.61111 0.30959,0.88305c0.16756,0.38459 0.45165,0.79281 0.61919,1.1774c0.11848,0.27194 0,0.5887 0,1.17739c0,0.29435 0.19113,0.61111 0.30961,0.88305c0.16755,0.38459 0.61919,0.29435 0.92879,0.29435l0.30959,0l0.6192,0" id="svg_40" fill-opacity="null" stroke-opacity="null" stroke-width="8.5" fill="none"/>
    </g>
    <g transform="rotate(90 99.62286376953125,100.18790435791017) " id="svg_44">
     <path stroke="#000" d="m89.09655,25.54506c0,0 0.56483,0.26553 0.92878,-0.29435c0.16277,-0.25039 0.23848,-0.59658 0.3096,-0.88305c0.15906,-0.64058 0.77198,-0.8473 0.9288,-1.76609c0.04959,-0.29055 0.15277,-0.55296 0.30959,-1.47175c0.04959,-0.29055 0.15278,-0.55295 0.3096,-1.47175c0.04959,-0.29054 0,-0.58869 0,-1.17739c0,-0.29435 -0.09519,-0.64345 0.3096,-1.1774c0.25601,-0.3377 0.3096,-0.58869 0.3096,-0.88304c0,-0.29435 0,-0.88305 0,-1.1774c0,-0.29435 0,-0.5887 0,-1.1774c0,-0.29434 0.3096,-0.58869 0.3096,-0.88304c0,-0.5887 0.30959,-0.88305 0.30959,-1.1774c0,-0.29435 0,-0.88305 0,-1.17739c0,-0.29435 0,-0.5887 0,-1.1774c0,-0.29435 0.3096,-0.5887 0.3096,-0.88305c0,-0.5887 0,-0.88305 0.3096,-1.17739c0.3096,-0.29435 0.3096,-0.88305 0.3096,-1.1774c0,-0.29435 -0.23696,-0.63351 0,-1.1774c0.16755,-0.38458 0.30959,-0.58869 0.30959,-0.88304c0,-0.5887 0.3096,-1.1774 0.3096,-1.47175c0,-0.5887 0.9288,-0.5887 1.23839,-0.5887c0.3096,0 0.92879,0 1.23839,0c0.3096,0 0.6192,0 1.23839,0c0.3096,0 0.6192,0 0.92879,0c0.6192,0 0.92879,-0.29434 1.2384,-0.29434c0.30959,0 0.92878,-0.29435 1.54798,-0.29435c0.3096,0 0.6192,0.29435 0.6192,0.58869c0,0.29435 0,0.88305 0,1.1774c0,0.29435 0.45164,0.79281 0.61919,1.1774c0.11848,0.27194 0.3096,0.58869 0.3096,1.76609c0,0.29435 0.3096,0.5887 0.3096,1.1774c0,0.29435 0.3096,0.58869 0.3096,0.88304c0,0.5887 0.61919,1.47175 0.61919,2.06045c0,0.29435 0,0.58869 0,0.88304c0,0.5887 0.30959,1.1774 0.30959,1.47175c0,0.88305 0.30961,1.17739 0.30961,1.47174c0,0.5887 0.2144,1.23215 0.61919,1.7661c0.25601,0.3377 0.45164,0.49846 0.61919,0.88304c0.11848,0.27195 0.3096,0.88305 0.3096,1.1774c0,0.29435 -0.23695,0.63351 0,1.1774c0.16755,0.38458 0.21441,0.64344 0.6192,1.17739c0.256,0.3377 0.19111,0.61111 0.30959,0.88305c0.16756,0.38459 0.45165,0.79281 0.6192,1.1774c0.11847,0.27194 0,0.58869 0,1.17739c0,0.29435 0.19112,0.61111 0.3096,0.88305c0.16755,0.38459 0.61919,0.29435 0.92879,0.29435l0.30959,0l0.6192,0" id="svg_42" fill-opacity="null" stroke-opacity="null" stroke-width="8.5" fill="none"/>
     <path transform="rotate(-180 99.62286376953125,187.03001403808594) " stroke="#000" d="m89.09655,199.22928c0,0 0.56483,0.26553 0.92878,-0.29435c0.16277,-0.25039 0.23848,-0.59657 0.3096,-0.88305c0.15906,-0.64058 0.77198,-0.8473 0.9288,-1.76609c0.04959,-0.29055 0.15277,-0.55295 0.30959,-1.47175c0.04959,-0.29055 0.15278,-0.55295 0.3096,-1.47174c0.04959,-0.29055 0,-0.5887 0,-1.1774c0,-0.29435 -0.09519,-0.64345 0.3096,-1.17739c0.25601,-0.3377 0.3096,-0.5887 0.3096,-0.88305c0,-0.29435 0,-0.88305 0,-1.1774c0,-0.29435 0,-0.58869 0,-1.17739c0,-0.29435 0.3096,-0.5887 0.3096,-0.88305c0,-0.5887 0.30959,-0.88305 0.30959,-1.1774c0,-0.29435 0,-0.88304 0,-1.17739c0,-0.29435 0,-0.5887 0,-1.1774c0,-0.29435 0.3096,-0.5887 0.3096,-0.88304c0,-0.5887 0,-0.88305 0.3096,-1.1774c0.3096,-0.29435 0.3096,-0.88305 0.3096,-1.1774c0,-0.29435 -0.23696,-0.63351 0,-1.17739c0.16755,-0.38459 0.30959,-0.5887 0.30959,-0.88305c0,-0.5887 0.3096,-1.1774 0.3096,-1.47174c0,-0.5887 0.92879,-0.5887 1.23839,-0.5887c0.3096,0 0.92879,0 1.23839,0c0.3096,0 0.6192,0 1.23839,0c0.3096,0 0.6192,0 0.92879,0c0.6192,0 0.92879,-0.29435 1.23839,-0.29435c0.3096,0 0.92879,-0.29435 1.54799,-0.29435c0.3096,0 0.6192,0.29435 0.6192,0.5887c0,0.29435 0,0.88304 0,1.17739c0,0.29435 0.45164,0.79281 0.61919,1.1774c0.11848,0.27194 0.30959,0.5887 0.30959,1.76609c0,0.29435 0.30961,0.5887 0.30961,1.1774c0,0.29435 0.3096,0.5887 0.3096,0.88305c0,0.58869 0.61919,1.47174 0.61919,2.06044c0,0.29435 0,0.5887 0,0.88305c0,0.58869 0.30959,1.17739 0.30959,1.47174c0,0.88305 0.3096,1.1774 0.3096,1.47175c0,0.58869 0.21441,1.23214 0.6192,1.76609c0.25601,0.3377 0.45164,0.49846 0.61919,0.88305c0.11848,0.27194 0.3096,0.88304 0.3096,1.17739c0,0.29435 -0.23695,0.63351 0,1.1774c0.16755,0.38458 0.21441,0.64345 0.6192,1.17739c0.256,0.3377 0.19111,0.61111 0.30959,0.88305c0.16756,0.38459 0.45165,0.79281 0.61919,1.1774c0.11848,0.27194 0,0.5887 0,1.17739c0,0.29435 0.19113,0.61111 0.30961,0.88305c0.16755,0.38459 0.61919,0.29435 0.92879,0.29435l0.30959,0l0.6192,0" id="svg_43" fill-opacity="null" stroke-opacity="null" stroke-width="8.5" fill="none"/>
    </g>
    <g transform="rotate(135 99.62286376953125,100.18790435791016) " id="svg_47">
     <path stroke="#000" d="m89.09655,25.54506c0,0 0.56483,0.26553 0.92878,-0.29435c0.16277,-0.25039 0.23848,-0.59658 0.3096,-0.88305c0.15906,-0.64058 0.77198,-0.8473 0.9288,-1.76609c0.04959,-0.29055 0.15277,-0.55296 0.30959,-1.47175c0.04959,-0.29055 0.15278,-0.55295 0.3096,-1.47175c0.04959,-0.29054 0,-0.58869 0,-1.17739c0,-0.29435 -0.09519,-0.64345 0.3096,-1.1774c0.25601,-0.3377 0.3096,-0.58869 0.3096,-0.88304c0,-0.29435 0,-0.88305 0,-1.1774c0,-0.29435 0,-0.5887 0,-1.1774c0,-0.29434 0.3096,-0.58869 0.3096,-0.88304c0,-0.5887 0.30959,-0.88305 0.30959,-1.1774c0,-0.29435 0,-0.88305 0,-1.17739c0,-0.29435 0,-0.5887 0,-1.1774c0,-0.29435 0.3096,-0.5887 0.3096,-0.88305c0,-0.5887 0,-0.88305 0.3096,-1.17739c0.3096,-0.29435 0.3096,-0.88305 0.3096,-1.1774c0,-0.29435 -0.23696,-0.63351 0,-1.1774c0.16755,-0.38458 0.30959,-0.58869 0.30959,-0.88304c0,-0.5887 0.3096,-1.1774 0.3096,-1.47175c0,-0.5887 0.9288,-0.5887 1.23839,-0.5887c0.3096,0 0.92879,0 1.23839,0c0.3096,0 0.6192,0 1.23839,0c0.3096,0 0.6192,0 0.92879,0c0.6192,0 0.92879,-0.29434 1.2384,-0.29434c0.30959,0 0.92878,-0.29435 1.54798,-0.29435c0.3096,0 0.6192,0.29435 0.6192,0.58869c0,0.29435 0,0.88305 0,1.1774c0,0.29435 0.45164,0.79281 0.61919,1.1774c0.11848,0.27194 0.3096,0.58869 0.3096,1.76609c0,0.29435 0.3096,0.5887 0.3096,1.1774c0,0.29435 0.3096,0.58869 0.3096,0.88304c0,0.5887 0.61919,1.47175 0.61919,2.06045c0,0.29435 0,0.58869 0,0.88304c0,0.5887 0.30959,1.1774 0.30959,1.47175c0,0.88305 0.30961,1.17739 0.30961,1.47174c0,0.5887 0.2144,1.23215 0.61919,1.7661c0.25601,0.3377 0.45164,0.49846 0.61919,0.88304c0.11848,0.27195 0.3096,0.88305 0.3096,1.1774c0,0.29435 -0.23695,0.63351 0,1.1774c0.16755,0.38458 0.21441,0.64344 0.6192,1.17739c0.256,0.3377 0.19111,0.61111 0.30959,0.88305c0.16756,0.38459 0.45165,0.79281 0.6192,1.1774c0.11847,0.27194 0,0.58869 0,1.17739c0,0.29435 0.19112,0.61111 0.3096,0.88305c0.16755,0.38459 0.61919,0.29435 0.92879,0.29435l0.30959,0l0.6192,0" id="svg_45" fill-opacity="null" stroke-opacity="null" stroke-width="8.5" fill="none"/>
     <path transform="rotate(-180 99.62286376953125,187.03001403808594) " stroke="#000" d="m89.09655,199.22928c0,0 0.56483,0.26553 0.92878,-0.29435c0.16277,-0.25039 0.23848,-0.59657 0.3096,-0.88305c0.15906,-0.64058 0.77198,-0.8473 0.9288,-1.76609c0.04959,-0.29055 0.15277,-0.55295 0.30959,-1.47175c0.04959,-0.29055 0.15278,-0.55295 0.3096,-1.47174c0.04959,-0.29055 0,-0.5887 0,-1.1774c0,-0.29435 -0.09519,-0.64345 0.3096,-1.17739c0.25601,-0.3377 0.3096,-0.5887 0.3096,-0.88305c0,-0.29435 0,-0.88305 0,-1.1774c0,-0.29435 0,-0.58869 0,-1.17739c0,-0.29435 0.3096,-0.5887 0.3096,-0.88305c0,-0.5887 0.30959,-0.88305 0.30959,-1.1774c0,-0.29435 0,-0.88304 0,-1.17739c0,-0.29435 0,-0.5887 0,-1.1774c0,-0.29435 0.3096,-0.5887 0.3096,-0.88304c0,-0.5887 0,-0.88305 0.3096,-1.1774c0.3096,-0.29435 0.3096,-0.88305 0.3096,-1.1774c0,-0.29435 -0.23696,-0.63351 0,-1.17739c0.16755,-0.38459 0.30959,-0.5887 0.30959,-0.88305c0,-0.5887 0.3096,-1.1774 0.3096,-1.47174c0,-0.5887 0.92879,-0.5887 1.23839,-0.5887c0.3096,0 0.92879,0 1.23839,0c0.3096,0 0.6192,0 1.23839,0c0.3096,0 0.6192,0 0.92879,0c0.6192,0 0.92879,-0.29435 1.23839,-0.29435c0.3096,0 0.92879,-0.29435 1.54799,-0.29435c0.3096,0 0.6192,0.29435 0.6192,0.5887c0,0.29435 0,0.88304 0,1.17739c0,0.29435 0.45164,0.79281 0.61919,1.1774c0.11848,0.27194 0.30959,0.5887 0.30959,1.76609c0,0.29435 0.30961,0.5887 0.30961,1.1774c0,0.29435 0.3096,0.5887 0.3096,0.88305c0,0.58869 0.61919,1.47174 0.61919,2.06044c0,0.29435 0,0.5887 0,0.88305c0,0.58869 0.30959,1.17739 0.30959,1.47174c0,0.88305 0.3096,1.1774 0.3096,1.47175c0,0.58869 0.21441,1.23214 0.6192,1.76609c0.25601,0.3377 0.45164,0.49846 0.61919,0.88305c0.11848,0.27194 0.3096,0.88304 0.3096,1.17739c0,0.29435 -0.23695,0.63351 0,1.1774c0.16755,0.38458 0.21441,0.64345 0.6192,1.17739c0.256,0.3377 0.19111,0.61111 0.30959,0.88305c0.16756,0.38459 0.45165,0.79281 0.61919,1.1774c0.11848,0.27194 0,0.5887 0,1.17739c0,0.29435 0.19113,0.61111 0.30961,0.88305c0.16755,0.38459 0.61919,0.29435 0.92879,0.29435l0.30959,0l0.6192,0" id="svg_46" fill-opacity="null" stroke-opacity="null" stroke-width="8.5" fill="none"/>
    </g>
   </g>
  </g>
  <path d="m98.595146,78.9272c0.127716,0.127716 0.127716,0.127716 0.255432,0.127716c0.127708,0 0.255424,0 0.383141,0c0.255424,0 0.383141,0 0.510857,0c0.127708,0 0.383141,0 0.510849,0c0.127716,0 0.255432,0 0.510857,0c0.127716,0 0.255432,0 0.383141,0c0.255432,0 0.383148,0 0.510857,0c0.127716,0 0.383148,0 0.510857,0c0.127716,0 0.255432,0 0.510857,0c0.127716,0 0.255432,0 0.383141,0c0.255432,0 0.383141,0 0.510857,0c0.127716,0 0.216278,0.18631 0.383141,0.255432c0.117996,0.048874 0.25885,-0.029343 0.383141,0c0.277939,0.065613 0.383148,0.127708 0.510857,0.127708c0.127716,0 0.383141,0.127716 0.510857,0.127716c0.127716,0 0.255432,0.127716 0.510857,0.127716c0.127716,0 0.255432,0.127708 0.383141,0.255424c0.127716,0.127716 0.265152,0.078842 0.383141,0.127716c0.16687,0.069122 0.232925,0.189812 0.510857,0.255424c0.124298,0.029343 0.255424,0.127716 0.383141,0.255432c0.127716,0.127716 0.265152,0.078835 0.383148,0.127708c0.166862,0.069122 0.274864,0.029968 0.510849,0.127716c0.16687,0.069122 0.255432,0.255424 0.383148,0.383141c0.127716,0.127716 0.236618,0.149826 0.383141,0.255432c0.231667,0.166977 0.343987,0.314018 0.510857,0.383141c0.117989,0.048874 0.21627,0.058594 0.383141,0.127716c0.235985,0.097748 0.383141,-0.000008 0.510857,0.127708c0.127716,0.127716 0.206551,0.265152 0.255424,0.383141c0.069122,0.16687 0.357216,0.288193 0.510857,0.383148c0.343552,0.212318 0.484932,0.288185 0.638573,0.383141c0.343552,0.212326 0.520569,0.206551 0.638565,0.255424c0.16687,0.069122 0.255432,0.255432 0.383141,0.383141c0.127716,0.127716 0.177132,0.37262 0.510857,0.510857c0.117996,0.048874 0.406898,0.216164 0.638573,0.383141c0.293045,0.211212 0.383141,0.383148 0.510857,0.510857c0.255432,0.255424 0.299637,0.34552 0.510857,0.638573c0.166977,0.231667 0.255424,0.510857 0.383141,0.638573c0.127708,0.127708 0.206551,0.39286 0.255424,0.510849c0.069122,0.16687 0.427361,0.345528 0.638573,0.638573c0.166977,0.231667 0.127708,0.383141 0.255424,0.510857c0.127716,0.127716 0.255432,0.255424 0.255432,0.510857c0,0.127708 0,0.255424 0.127708,0.383141c0.127716,0.127716 0.249702,0.197845 0.383148,0.638565c0.07402,0.244469 0,0.383148 0.127708,0.510857c0.127716,0.127716 0.206558,0.265152 0.255432,0.383148c0.138237,0.333725 0.383141,0.383141 0.510857,0.510849c0.255432,0.255424 0.383141,0.383148 0.510849,0.510857c0.127716,0.127716 0.255432,0.255432 0.255432,0.383141c0,0.127716 -0.084602,0.295021 0.127716,0.638573c0.094955,0.153641 0.127708,0.255424 0.127708,0.510857c0,0.127716 0.078842,0.265144 0.127716,0.383141c0.069122,0.16687 0.127716,0.255424 0.127716,0.383141c0,0.127716 0.078835,0.648293 0.127708,0.766289c0.069122,0.166862 0.304306,0.265144 0.255432,0.383141c-0.069122,0.166862 -0.157059,0.258842 -0.127716,0.383141c0.065613,0.277939 0.127716,0.383141 0.127716,0.638565c0,0.255432 -0.048874,0.392868 0,0.510857c0.069122,0.16687 0.098373,0.386559 0.127716,0.510857c0.065613,0.277939 0.078835,0.520576 0.127708,0.638573c0.069122,0.166862 0.412483,0.386559 0.383141,0.510857c-0.065613,0.277931 -0.255424,0.383141 -0.255424,0.638565c0,0.127716 -0.127716,0.255432 -0.127716,0.383141c0,0.255432 0,0.383148 0,0.510857c0,0.127716 0,0.383141 0,0.510857c0,0.127716 0,0.255432 0,0.510857c0,0.127716 0,0.255424 0,0.383141c0,0.255432 0,0.383141 0,0.510857c0,0.127716 0,0.383141 0,0.510857c0,0.127716 0,0.255424 0,0.638573c0,0.127708 0,0.255424 0,0.510849c0,0.127716 0,0.255432 0,0.638573c0,0.127716 0,0.255424 0,0.383141c0,0.255432 0,0.383141 0,0.510857c0,0.127716 0,0.383141 0,0.510857c0,0.127716 0,0.255424 -0.127708,0.383141c-0.127716,0.127716 -0.255432,0.255424 -0.383148,0.383141c-0.127716,0.127716 -0.127708,0.383141 -0.255424,0.510857c-0.255424,0.255432 -0.383141,0.383141 -0.383141,0.510857c0,0.127716 0,0.255424 -0.127716,0.383141c-0.127716,0.127716 -0.206551,0.265152 -0.255424,0.383141c-0.069122,0.16687 -0.069031,0.262268 -0.127716,0.510857c-0.065613,0.277939 -0.127716,0.383141 -0.127716,0.638573c0,0.127708 0,0.255424 0,0.383141c0,0.255424 -0.098366,0.386559 -0.127708,0.510857c-0.065613,0.277939 -0.255432,0.255424 -0.383148,0.383141c-0.127708,0.127716 -0.372612,0.177124 -0.510849,0.510857c-0.048874,0.117996 -0.078842,0.265144 -0.127716,0.383141c-0.069122,0.16687 -0.255432,0.255424 -0.255432,0.383141c0,0.127716 -0.127708,0.383141 -0.255424,0.510857c-0.127716,0.127716 -0.127716,0.255424 -0.255432,0.383141c-0.127708,0.127716 -0.255424,0.510857 -0.383141,0.638573c-0.127708,0.127708 -0.39286,0.206551 -0.510857,0.255424c-0.166862,0.069122 -0.236618,0.277534 -0.383141,0.383141c-0.231674,0.166977 -0.488434,0.012505 -0.638565,0.255432c-0.067146,0.108643 -0.078842,0.265144 -0.127716,0.383141c-0.069122,0.16687 -0.314018,0.21627 -0.383141,0.383141c-0.048874,0.117996 0,0.255432 -0.127716,0.383141c-0.127716,0.127716 -0.314018,0.088562 -0.383141,0.255432c-0.048874,0.117989 -0.127716,0.255424 -0.255432,0.383141c-0.127708,0.127716 -0.088554,0.314018 -0.255424,0.383141c-0.117996,0.048874 -0.232918,0.189812 -0.510857,0.255424c-0.124298,0.029343 -0.236618,0.022102 -0.383141,0.127716c-0.231667,0.166977 -0.383141,0.255432 -0.510857,0.383141c-0.127716,0.127716 -0.255424,0.255432 -0.383141,0.383148c-0.127716,0.127708 -0.21627,0.314018 -0.383141,0.383141c-0.117996,0.048874 -0.343994,0.058594 -0.510857,0.127708c-0.117996,0.048874 -0.177116,0.117195 -0.510857,0.255432c-0.117996,0.048874 -0.383141,0.127716 -0.638573,0.127716c-0.127708,0 -0.258842,0.098366 -0.383141,0.127708c-0.277939,0.065613 -0.386559,0.098373 -0.510857,0.127716c-0.277939,0.065613 -0.667732,0.236519 -1.021706,0.383141c-0.16687,0.069122 -0.314026,0.08857 -0.383141,0.255432c-0.048874,0.117989 -0.127716,0.255424 -0.127716,0.383141c0,0.127708 -0.090096,0.299644 -0.383141,0.510857c-0.231674,0.166977 -0.360634,0.317528 -0.638573,0.383141c-0.124298,0.029343 -0.766281,0.255424 -1.021713,0.255424c-0.255424,0 -0.383141,0.127716 -0.638565,0.127716c-0.127716,0 -0.255432,0 -0.766289,0c-0.255424,0 -0.383141,0.127716 -0.510849,0.127716c-0.127716,0 -0.383148,0.127708 -0.638573,0.127708c-0.127716,0 -0.255424,0 -0.383141,0c-0.383141,0 -0.638573,0 -1.021713,0c-0.127716,0 -0.255424,0 -0.510857,0c-0.127716,0 -0.255424,0 -0.383141,0c-0.255424,0 -0.510857,0 -0.893997,0c-0.255424,0 -0.383141,0 -0.638573,0c-0.127708,0 -0.255424,0 -0.383141,0c-0.255424,0 -0.638565,0 -0.893997,0c-0.255424,0 -0.383141,0 -0.638565,0c-0.383148,0 -0.893997,0 -1.277145,0c-0.127708,0 -0.255424,0 -0.383141,0c-0.255424,0 -0.383141,0 -0.510857,0c-0.127708,0 -0.19516,-0.142822 -0.255424,-0.255424c-0.217278,-0.405998 -0.638573,-0.510857 -0.766281,-0.510857c-0.127716,0 -0.314026,0.039154 -0.383148,-0.127716c-0.048874,-0.117989 -0.127708,-0.255424 -0.255424,-0.255424c-0.127716,0 -0.269089,0.117371 -0.766281,0c-0.277939,-0.065613 -0.520576,-0.078842 -0.638573,-0.127716c-0.16687,-0.069122 -0.177124,-0.244904 -0.510857,-0.383141c-0.117989,-0.048874 -0.422729,-0.043106 -0.766281,-0.255424c-0.153641,-0.094955 -0.255432,-0.255432 -0.383141,-0.383148c-0.255424,-0.255432 -0.353798,-0.386559 -0.383141,-0.510849c-0.065613,-0.277939 -0.255432,-0.383148 -0.255432,-0.638573c0,-0.127716 -0.127716,-0.383141 -0.255424,-0.510857c-0.127716,-0.127716 -0.216278,-0.314018 -0.383141,-0.383141c-0.117996,-0.048874 -0.265152,-0.078842 -0.383148,-0.127716c-0.166862,-0.069122 -0.383141,-0.127716 -0.638565,-0.383141c-0.127716,-0.127716 -0.520576,-0.206551 -0.638573,-0.255424c-0.166862,-0.069122 -0.383141,-0.127716 -0.510857,-0.255432c-0.255424,-0.255424 -0.638573,-0.383133 -0.893997,-0.638565c-0.127708,-0.127716 -0.383141,-0.255432 -0.510857,-0.383148c-0.127708,-0.127708 -0.255424,-0.255424 -0.510849,-0.510849c-0.127716,-0.127716 -0.314026,-0.216278 -0.383148,-0.383148c-0.048874,-0.117989 0.048874,-0.265144 0,-0.383141c-0.069115,-0.166862 -0.255424,-0.255424 -0.383141,-0.510857c-0.127708,-0.255424 -0.043098,-0.422737 -0.255424,-0.766281c-0.189911,-0.307281 -0.383141,-0.383141 -0.383141,-0.510857c0,-0.127716 -0.078842,-0.265144 -0.127716,-0.383141c-0.069122,-0.16687 -0.088455,-0.279175 -0.255432,-0.510857c-0.105606,-0.146523 -0.277534,-0.236618 -0.383141,-0.383141c-0.166977,-0.231667 -0.098366,-0.386559 -0.127708,-0.510857c-0.065613,-0.277939 -0.314026,-0.343987 -0.383148,-0.510857c-0.048874,-0.117996 -0.186302,-0.21627 -0.255424,-0.383141c-0.097748,-0.235985 -0.160469,-0.484932 -0.255424,-0.638573c-0.212318,-0.343552 -0.160477,-0.484924 -0.255432,-0.638565c-0.212326,-0.343552 -0.078842,-0.520576 -0.127716,-0.638573c-0.138237,-0.333725 -0.405243,-0.364334 -0.510849,-0.510857c-0.166977,-0.231674 -0.255432,-0.510849 -0.383148,-0.638565c-0.127708,-0.127716 -0.255424,-0.255432 -0.255424,-0.383141c0,-0.127716 0.097748,-0.402588 0,-0.638573c-0.069122,-0.16687 -0.383141,-0.383141 -0.383141,-0.638573c0,-0.127708 0,-0.255424 0,-0.383141c0,-0.255424 0.048874,-0.39286 0,-0.510857c-0.069122,-0.166862 -0.127716,-0.510849 -0.127716,-0.638565c0,-0.127716 -0.062103,-0.360634 -0.127716,-0.638573c-0.029343,-0.12429 0.029343,-0.386559 0,-0.510857c-0.065613,-0.277931 -0.127708,-0.510857 -0.127708,-0.638565c0,-0.127716 0,-0.255432 0,-0.510857c0,-0.127716 0,-0.255432 0,-0.383141c0,-0.255432 0,-0.383141 -0.127716,-0.510857c-0.127716,-0.127716 -0.096504,-0.385056 -0.127716,-0.638573c-0.064339,-0.522636 -0.127716,-0.638565 -0.127716,-0.766281c0,-0.255432 0,-0.510857 0,-0.893997c0,-0.127716 0,-0.255432 0,-0.383141c0,-0.255432 0,-0.383141 0,-0.510857c0,-0.127716 0.149818,-0.49205 0.255432,-0.638573c0.166977,-0.231667 0.088448,-0.406898 0.255424,-0.638565c0.21122,-0.293053 0.446693,-0.501381 0.510857,-1.149429c0.012581,-0.127098 0.127716,-0.255424 0.127716,-0.510857c0,-0.127708 -0.048874,-0.265144 0,-0.383141c0.138237,-0.333725 0.317528,-0.360626 0.383141,-0.638565c0.058685,-0.248596 -0.029343,-0.514275 0,-0.638573c0.065613,-0.277939 0.18631,-0.343987 0.255432,-0.510857c0.146622,-0.353973 -0.039268,-0.534615 0.127708,-0.766281c0.105606,-0.146523 0.127716,-0.255424 0.255432,-0.383141c0.127716,-0.127716 0.37262,-0.177124 0.510857,-0.510857c0.048874,-0.117996 0.127708,-0.255432 0.255424,-0.383141c0.127716,-0.127716 0.255424,-0.383148 0.383141,-0.510857c0.127716,-0.127716 0.206558,-0.265152 0.255432,-0.383141c0.069115,-0.166862 0.255424,-0.255432 0.383141,-0.383148c0.127708,-0.127708 0.216164,-0.406891 0.383141,-0.638565c0.211212,-0.293045 0.383141,-0.383141 0.510857,-0.510857c0.127716,-0.127716 0.255424,-0.255424 0.383141,-0.383141c0.127716,-0.127716 0.282455,-0.346626 0.638573,-0.638573c0.27935,-0.229012 0.638565,-0.510857 0.766281,-0.638565c0.127716,-0.127716 0.255424,-0.255432 0.383141,-0.383148c0.127716,-0.127708 0.226082,-0.258842 0.255424,-0.383141c0.065613,-0.277939 0.265152,-0.334267 0.383148,-0.383141c0.166862,-0.069122 0.255424,-0.255424 0.383141,-0.383141c0.510857,-0.510857 0.623055,-0.701591 1.021713,-0.766281c0.12606,-0.020454 0.295013,-0.043106 0.638565,-0.255432c0.153641,-0.094955 0.295029,-0.170807 0.638573,-0.383141c0.153633,-0.094955 0.600952,-0.299637 0.893997,-0.510857c0.231667,-0.166977 0.364334,-0.149818 0.510857,-0.255424c0.231674,-0.166977 0.638565,-0.383141 0.766281,-0.383141c0.255424,0 0.471703,-0.058594 0.638573,-0.127716c0.235985,-0.097748 0.510849,-0.127716 0.638565,-0.127716c0.255432,0 0.47171,-0.18631 0.638573,-0.255424c0.353981,-0.146614 0.510857,-0.127716 0.638565,-0.127716c0.255432,0 0.383141,-0.127716 0.510857,-0.127716c0.127716,0 0.383141,-0.127708 0.510857,-0.127708c0.127716,0 0.360634,-0.189819 0.638573,-0.255432c0.12429,-0.029343 0.255424,0 0.510857,0c0.127708,0 0.383141,-0.127716 0.638565,-0.127716c0.127716,0 0.255432,-0.127708 0.383141,-0.127708c0.255432,0 0.383141,-0.127716 0.510857,-0.127716c0.127716,0 0.599419,-0.18631 0.766281,-0.255424c0.353981,-0.146622 0.510857,-0.127716 0.894005,-0.127716c0.127708,0 0.255424,0 0.510849,-0.127716l0.127716,0l0.127716,0" id="svg_53" fill-opacity="null" stroke-opacity="null" stroke-width="8.5" stroke="#000" fill="none"/>
  <path d="m24.393358,90.549171c0.127714,0.127716 0.127714,0 0.127714,-0.127716c0,-0.127716 -0.048874,-0.39286 0,-0.510857c0.069118,-0.16687 0.127714,-0.255424 0.127714,-0.510857c0,-0.127708 -0.097746,-0.40258 0,-0.638565c0.069118,-0.16687 0.100874,-0.26545 0.255428,-0.638573c0.109285,-0.263832 0.441736,-0.343987 0.510855,-0.510857c0.048872,-0.117989 0.127712,-0.383141 0.255428,-0.510857c0.127712,-0.127708 0.098372,-0.258842 0.127714,-0.383141c0.065613,-0.277931 0.18631,-0.471703 0.255428,-0.638565c0.048876,-0.117996 0.058596,-0.216278 0.127714,-0.383148c0.048872,-0.117989 0.117191,-0.177116 0.255426,-0.510849c0.09775,-0.235985 0.127714,-0.383148 0.127714,-0.510857c0,-0.127716 0.058596,-0.343987 0.127714,-0.510857c0.048874,-0.117996 0.127714,-0.255432 0.127714,-0.510857c0,-0.127716 -0.020458,-0.257072 0,-0.383141c0.064692,-0.398651 0.314024,-0.471703 0.383142,-0.638573c0.097746,-0.235985 0.127714,-0.383141 0.127714,-0.510857c0,-0.127708 0.127712,-0.255424 0.127712,-0.383141c0,-0.127716 0,-0.255424 0.127714,-0.383141c0.127714,-0.127716 0.127714,-0.255424 0.127714,-0.383141c0,-0.127716 0,-0.255432 0,-0.510857l0.127714,-0.127716l-0.127714,0" id="svg_54" fill-opacity="null" stroke-opacity="null" stroke-width="8.5" stroke="#000" fill="none"/>
  <path d="m33.971905,62.068966c-0.127716,-0.127716 0,-0.255428 0.127712,-0.383141c0.127712,-0.127716 0.206554,-0.265152 0.255428,-0.383144c0.069118,-0.166862 0.255424,-0.127712 0.383141,-0.255428c0.127716,-0.127716 0.21616,-0.279179 0.383141,-0.510853c0.10561,-0.146526 0.216164,-0.279182 0.383144,-0.510857c0.105606,-0.146523 0.127712,-0.383141 0.255428,-0.510857c0.127712,-0.127712 0.277534,-0.236618 0.383141,-0.383141c0.166981,-0.231674 0.255428,-0.510857 0.383141,-0.638569c0.127716,-0.127716 0.255428,-0.255428 0.383144,-0.383144c0.127712,-0.127712 0.277531,-0.236618 0.383141,-0.383141c0.166981,-0.23167 0.216274,-0.441738 0.383141,-0.510857c0.117992,-0.048874 0.255428,-0.127712 0.383144,-0.255428c0.127712,-0.127712 0.360714,-0.140217 0.510853,-0.383141c0.067142,-0.108639 0.149822,-0.236622 0.255428,-0.383141c0.166981,-0.231674 0.343876,-0.534611 0.510857,-0.766285c0.105606,-0.146519 0.127712,-0.255428 0.127712,-0.383141l0.127716,-0.127716l0.127712,-0.127712l0.127716,-0.127712" id="svg_55" fill-opacity="null" stroke-opacity="null" stroke-width="8.5" stroke="#000" fill="none"/>
  <path d="m53.895275,39.846745c0.127712,0 0.216274,-0.058598 0.383141,-0.127716c0.117992,-0.048874 0.619762,-0.277534 0.766285,-0.383141c0.231674,-0.166981 0.383141,-0.255428 0.638569,-0.510857c0.127712,-0.127712 0.308922,-0.181206 0.510857,-0.383141c0.201935,-0.201935 0.36063,-0.445244 0.638569,-0.510857c0.124294,-0.029343 0.520576,-0.078838 0.638569,-0.127712c0.16687,-0.069118 0.510857,-0.383144 0.638569,-0.383144c0.127716,0 0.265152,-0.078838 0.383144,-0.127712c0.166866,-0.069118 0.217812,-0.171928 0.510853,-0.383141c0.231674,-0.166981 0.441738,-0.216278 0.510857,-0.383144c0.048874,-0.117992 0.127716,-0.255428 0.383141,-0.383141c0.255428,-0.127712 0.410175,-0.218922 0.766285,-0.510857c0.139679,-0.114506 0.392864,-0.078838 0.510857,-0.127712c0.166866,-0.069118 0.255428,-0.127716 0.510857,-0.127716c0.127712,0 0.265148,-0.078838 0.383141,-0.127712c0.166866,-0.069118 0.255428,-0.255428 0.383141,-0.255428l0.127716,-0.127712" id="svg_56" fill-opacity="null" stroke-opacity="null" stroke-width="8.5" stroke="#000" fill="none"/>
  <path d="m80.842911,26.436781c0.127716,0.127714 0.255432,0.127714 0.383141,0.127714c0.255432,0 0.30484,-0.117191 0.638573,-0.255428c0.235985,-0.097746 0.383141,0 0.510857,0c0.127708,0 0.255424,-0.127712 0.383141,-0.127712c0.127716,0 0.255424,0 0.383141,0c0.255432,0 0.383141,0 0.510857,0c0.127716,0 0.39286,0.048874 0.510857,0c0.16687,-0.069118 0.255424,-0.127714 0.638565,-0.127714c0.127716,0 0.255432,0 0.510857,0c0.127716,0 0.255432,0 0.383141,0c0.255432,0 0.383148,0 0.510857,0c0.127716,0 0.383148,0 0.510857,0c0.127716,0 0.255432,0 0.510857,0c0.127716,0 0.25885,0.029341 0.383141,0c0.277939,-0.065613 0.383141,-0.127714 0.510857,-0.127714c0.383141,0 0.510857,0 0.638573,0l0.127708,0l0.383148,-0.127714l0.127708,-0.127714" id="svg_57" fill-opacity="null" stroke-opacity="null" stroke-width="8.5" stroke="#000" fill="none"/>
  <path d="m109.961685,24.904215c-0.127716,0.127714 0.105209,0.31753 0.383141,0.383141c0.124298,0.029343 0.255432,0 0.638573,0c0.127716,0 0.255424,0.127714 0.383141,0.127714c0.255424,0 0.383141,0 0.510857,0c0.127716,0 0.39286,0.078838 0.510857,0.127714c0.166862,0.069118 0.271866,0.016685 0.638565,0.127714c0.44072,0.13344 0.48835,0.31753 0.766289,0.383142c0.12429,0.029341 0.52784,-0.054976 1.021706,0.127714c0.267845,0.099079 0.383148,0.127712 0.638573,0.127712c0.127716,0 0.255424,0 0.383141,0c0.383141,0 0.638573,0 0.893997,0c0.127716,0 0.255432,0.000002 0.383141,0.127714c0.127716,0.127716 0.265152,0.078838 0.383148,0.127714c0.166862,0.069118 0.255424,0.255428 0.510849,0.255428c0.127716,0 0.255432,0.127714 0.383148,0.127714l0.127708,0.127714l0.127716,0.255428l0.255424,0.127712" id="svg_58" fill-opacity="null" stroke-opacity="null" stroke-width="8.5" stroke="#000" fill="none"/>
  <path d="m137.420181,34.610474c0.127716,0.127712 0.410172,0.218914 0.766281,0.510853c0.139679,0.11451 0.255432,0.255428 0.510849,0.255428c0.127716,0 0.255432,0.127716 0.383148,0.255428c0.127716,0.127716 0.255432,0.127712 0.383148,0.255428c0.127701,0.127712 0.33345,0.118526 0.638565,0.383141c0.215744,0.187111 0.550446,0.426247 0.893997,0.638573c0.153641,0.094955 0.255432,0.255428 0.383133,0.383141c0.127716,0.127716 0.243469,0.268635 0.383148,0.383141c0.35611,0.291939 0.510849,0.383141 0.766281,0.638569c0.127716,0.127716 0.25885,0.226086 0.383148,0.255428c0.277939,0.065613 0.510849,0.383144 0.638565,0.510857c0.127716,0.127712 0.255432,0.127712 0.383148,0.255428c0.127716,0.127712 0.255417,0.255428 0.383133,0.383141l0.127716,0l0.127716,0.127716" id="svg_59" fill-opacity="null" stroke-opacity="null" stroke-width="8.5" stroke="#000" fill="none"/>
  <path d="m160.280975,54.406132c-0.127716,0.127712 -0.157059,0.258846 -0.127716,0.383141c0.065613,0.277939 0.255432,0.51086 0.383133,0.638569c0.127716,0.12772 0.255432,0.255428 0.255432,0.383141c0,0.127716 0.108902,0.277534 0.255432,0.383144c0.231674,0.166981 0.383133,0.255428 0.510849,0.383141c0.255432,0.255428 0.255432,0.383141 0.383148,0.510857c0.127716,0.127712 0.255432,0.255432 0.383133,0.383141c0.127716,0.12772 0.255432,0.255428 0.383148,0.383141c0.127716,0.127716 0.255432,0.255424 0.383148,0.383144c0.127701,0.127708 0.314011,0.343987 0.383133,0.510857c0.048874,0.117992 -0.074219,0.308918 0.127716,0.510853c0.201935,0.201935 0.255432,0.255428 0.255432,0.383144c0,0.127712 0.062103,0.232914 0.127716,0.510853c0.029343,0.124298 0,0.255432 0.127701,0.383144c0.127716,0.127716 0.255432,0.255428 0.383148,0.510853c0.127716,0.255428 0.189819,0.360634 0.255432,0.638573c0.029343,0.124294 0.255417,0.383141 0.255417,0.510853c0,0.127716 0,0.255428 0.127716,0.383144l0,0.127712" id="svg_60" fill-opacity="null" stroke-opacity="null" stroke-width="8.5" stroke="#000" fill="none"/>
  <path d="m172.796936,81.609192c0,0 0.127716,0.127716 0.255432,0.255432c0.127716,0.127716 0.31752,0.232918 0.383133,0.510857c0.029343,0.12429 0,0.255424 0.127716,0.510857c0.127716,0.255424 0.010345,0.396805 0.127716,0.893997c0.065613,0.277939 0.255432,0.383141 0.255432,0.638565c0,0.127716 0.127716,0.255432 0.127716,0.383141c0,0.127716 0.058594,0.216286 0.127701,0.383148c0.048874,0.117989 0.063019,0.239914 0.127716,0.638565c0.020462,0.126068 -0.146622,0.284599 0,0.638573c0.138245,0.333733 0.157684,0.658012 0.255432,0.893997c0.069122,0.16687 0.127716,0.255424 0.127716,0.383141c0,0.127716 0,0.255424 0,0.510857c0,0.127716 0,0.255424 0,0.383141c0,0.255424 0,0.383141 0,0.510857c0,0.127716 0,0.383141 0,0.510857c0,0.127708 0,0.255424 0,0.766281l0,0.127716l0,0.255424" id="svg_61" fill-opacity="null" stroke-opacity="null" stroke-width="8.5" stroke="#000" fill="none"/>
  <path d="m174.58493,110.472542c0,0 0,0.127716 0,0.255424c0,0.127716 0.040924,0.514153 0,0.766289c-0.064697,0.398651 -0.127716,0.510857 -0.127716,0.766281c0,0.383141 0,0.510857 0,0.766281c0,0.127716 -0.127716,0.255432 -0.127716,0.383141c0,0.127716 -0.058594,0.343994 -0.127716,0.510857c-0.048874,0.117996 -0.024292,0.368019 -0.255417,0.766289c-0.143341,0.246994 -0.127716,0.510857 -0.127716,0.638565c0,0.255432 0.048874,0.39286 0,0.510857c-0.069122,0.16687 -0.18631,0.343987 -0.255432,0.510857c-0.195496,0.47197 -0.23497,0.767929 -0.255432,0.893997c-0.064682,0.398651 -0.127701,0.510857 -0.127701,0.638573c0,0.255424 -0.18631,0.471703 -0.255432,0.638565c-0.097748,0.235985 0.039276,0.534615 -0.127716,0.766289c-0.105606,0.146523 -0.255432,0.255424 -0.255432,0.383141l-0.127716,0.127708" id="svg_62" fill-opacity="null" stroke-opacity="null" stroke-width="8.5" stroke="#000" fill="none"/>
  <path d="m164.623245,138.441895c0,0.127716 -0.18631,0.216263 -0.255432,0.383133c-0.048874,0.117996 -0.18631,0.343994 -0.255432,0.510864c-0.048874,0.117996 0.029343,0.258835 0,0.383133c-0.065598,0.277939 -0.171906,0.345535 -0.383133,0.63858c-0.166977,0.231659 -0.088455,0.406891 -0.255432,0.638565c-0.105606,0.14653 -0.255432,0.510849 -0.383133,0.638565c-0.127716,0.127716 -0.127716,0.383148 -0.255432,0.510864c-0.127716,0.127701 -0.383148,0.383133 -0.510864,0.510849c-0.127701,0.127716 -0.255402,0.255447 -0.510849,0.510864c-0.127716,0.127701 -0.255432,0.383133 -0.383148,0.510849c-0.255417,0.255432 -0.445236,0.488342 -0.510849,0.766281c-0.029343,0.124298 -0.127716,0.255432 -0.255432,0.383148c-0.127716,0.127716 -0.255417,0.255417 -0.255417,0.383133c0,0.127716 -0.127716,0.255432 -0.255432,0.383148l-0.127716,0.127716l-0.127716,0l-0.127716,0.127716" id="svg_63" fill-opacity="null" stroke-opacity="null" stroke-width="8.5" stroke="#000" fill="none"/>
  <path d="m145.210724,160.91954c-0.127716,-0.127716 -0.255417,0 -0.383133,0.127716c-0.127716,0.127716 -0.392868,0.334259 -0.510864,0.383133c-0.16687,0.069122 -0.255417,0.127716 -0.766281,0.255432c-0.510849,0.127716 -1.126923,0.445251 -1.404846,0.510864c-0.248596,0.058685 -0.343994,0.186295 -0.510864,0.255417c-0.117996,0.048874 -0.255432,0.127716 -0.383133,0.255432c-0.127716,0.127716 -0.255432,0.255432 -0.383148,0.383148c-0.127716,0.127701 -0.049408,0.372604 -0.383148,0.510849c-0.117981,0.048874 -0.255402,0.127731 -0.510849,0.383148c-0.127716,0.127701 -0.232925,0.31752 -0.510849,0.383133c-0.124298,0.029343 -0.383148,0.255432 -0.766296,0.383148c-0.383133,0.127716 -0.638565,0.255417 -0.766281,0.255417c-0.127716,0 -0.255417,0.127716 -0.383133,0.255432l-0.127716,0" id="svg_64" fill-opacity="null" stroke-opacity="null" stroke-width="8.5" stroke="#000" fill="none"/>
  <path d="m118.901657,173.180084c-0.383141,0 -0.510849,0 -0.638565,0c-0.255432,0 -0.640488,-0.031204 -0.893997,0c-0.522629,0.064331 -0.727135,0.314011 -0.893997,0.383133c-0.117996,0.048874 -0.386559,0.098373 -0.510857,0.127716c-0.277939,0.065613 -0.580994,0.24971 -1.021713,0.383148c-0.244461,0.07402 -0.510857,0 -0.766281,0c-0.127716,0 -0.255432,0.127701 -0.766289,0.127701c-0.127708,0 -0.255424,0.127716 -0.510849,0.127716c-0.127716,0 -0.383148,0.127716 -0.766289,0.127716c-0.510857,0 -1.149422,0 -1.277138,0.127716c-0.127716,0.127716 -0.274872,0.029968 -0.510857,0.127716c-0.166862,0.069122 -0.255424,0.127716 -0.383141,0.127716l-0.255424,0l-0.127716,0" id="svg_65" fill-opacity="null" stroke-opacity="null" stroke-width="8.5" stroke="#000" fill="none"/>
  <path d="m89.144318,174.840363c-0.127716,0.127716 -0.127716,0.127716 -0.383141,0.127716c-0.127716,0 -0.255432,0 -0.383141,0c-0.255432,0 -0.383148,0 -0.510857,0c-0.127716,0 -0.383141,0 -0.510857,0c-0.127716,0 -0.239922,-0.063019 -0.638573,-0.127716c-0.252129,-0.040909 -0.510857,0 -0.893997,0c-0.255424,0 -0.383141,-0.127716 -0.510857,-0.255432c-0.127708,-0.127716 -0.23661,-0.277542 -0.383141,-0.383148c-0.231667,-0.166977 -0.40258,-0.157669 -0.638565,-0.255417c-0.50061,-0.207352 -0.638573,-0.383148 -0.766289,-0.383148c-0.127708,0 -0.274872,0.097748 -0.510857,0c-0.166862,-0.069122 -0.265671,-0.039688 -0.638565,-0.127716c-0.277939,-0.065613 -0.640747,-0.075058 -1.277138,-0.127716c-0.774208,-0.064072 -1.149429,-0.383133 -1.277145,-0.383133l-0.127708,0l-0.127716,0.127716" id="svg_66" fill-opacity="null" stroke-opacity="null" stroke-width="8.5" stroke="#000" fill="none"/>
  <path d="m60.791828,165.006378c-0.127716,-0.127701 -0.279182,-0.216156 -0.510857,-0.383133c-0.146526,-0.105606 -0.217812,-0.171936 -0.510857,-0.383148c-0.23167,-0.166977 -0.406895,-0.216156 -0.638569,-0.383133c-0.146526,-0.105606 -0.383137,-0.383148 -0.638569,-0.63858c-0.255424,-0.255417 -0.766285,-0.383133 -0.893997,-0.510849c-0.127716,-0.127716 -0.255424,-0.255432 -0.383144,-0.383148c-0.127708,-0.127701 -0.277534,-0.236603 -0.383141,-0.383133c-0.166981,-0.231674 -0.383144,-0.510864 -0.510857,-0.638565c-0.127716,-0.127716 -0.343987,-0.441742 -0.510857,-0.510864c-0.117992,-0.048874 -0.21627,-0.058594 -0.383141,-0.127716c-0.117992,-0.048874 -0.255432,-0.127716 -0.383141,-0.255417c-0.12772,-0.127716 -0.255428,-0.255432 -0.383141,-0.255432l-0.127716,-0.127716" id="svg_67" fill-opacity="null" stroke-opacity="null" stroke-width="8.5" stroke="#000" fill="none"/>
  <path d="m39.4636,145.593872c-0.127712,0 -0.383141,0 -0.638569,-0.255432c-0.127712,-0.127716 -0.279732,-0.240295 -0.510857,-0.638565c-0.430019,-0.740997 -0.481506,-1.152847 -0.510853,-1.277145c-0.065613,-0.277924 -0.308926,-0.415909 -0.510857,-1.021713c-0.040386,-0.121155 -0.098373,-0.258835 -0.127716,-0.383133c-0.065613,-0.277939 -0.194035,-0.326721 -0.510853,-0.766281c-0.166985,-0.231674 -0.206554,-0.392868 -0.255428,-0.510864c-0.138237,-0.33374 -0.383141,-0.383133 -0.510857,-0.766281c-0.127712,-0.383148 -0.441738,-0.471695 -0.510857,-0.638565c-0.097748,-0.235992 -0.078835,-0.520584 -0.127712,-0.63858c-0.069118,-0.166855 -0.127712,-0.255417 -0.383141,-0.510849c-0.127716,-0.127716 -0.127716,-0.383148 -0.255428,-0.638565l-0.127716,-0.127716" id="svg_68" fill-opacity="null" stroke-opacity="null" stroke-width="8.5" stroke="#000" fill="none"/>
  <path d="m26.309067,119.412514c0,-0.127708 0,-0.383141 0,-0.638565c0,-0.127716 0.04887,-0.265152 0,-0.383141c-0.069117,-0.16687 -0.090702,-0.26091 -0.127712,-0.383148c-0.13344,-0.44072 -0.255428,-0.510849 -0.255428,-0.638565c0,-0.127716 -0.039686,-0.265678 -0.127714,-0.638573c-0.065613,-0.277931 -0.206556,-0.520576 -0.255428,-0.638565c-0.138237,-0.333733 -0.255428,-0.510857 -0.255428,-0.638573c0,-0.127716 0,-0.255424 0,-0.510857c0,-0.127716 0,-0.255424 0,-0.638565c0,-0.255432 0,-0.383148 0,-0.766289c0,-0.127716 0,-0.255424 0,-0.510857c0,-0.127708 0,-0.255424 0,-0.383141c0,-0.255424 0.058596,-0.471703 0.127714,-0.638565c0.097752,-0.235985 0.020458,-0.512505 0,-0.638573c-0.064692,-0.398651 -0.127714,-0.893997 -0.127714,-1.021713l-0.127712,-0.127708l0,-0.127716l-0.127714,-0.127716" id="svg_69" fill-opacity="null" stroke-opacity="null" stroke-width="8.5" stroke="#000" fill="none"/>
 </g>
</svg>