<svg width="500" height="10" xmlns="http://www.w3.org/2000/svg">
 <g>
  <title>Layer 1</title>
  <path stroke="#000" d="m2.69276,5.961539c0.922067,-0.384615 2.7662,-0.384615 6.454485,-0.384615c4.610352,0 9.234166,0.113697 11.986923,0c4.678777,-0.193248 8.317495,-0.57889 13.831056,-0.769229c5.589632,-0.192965 9.220722,-0.384615 13.831074,-0.384615c3.688285,0 8.298637,0 12.908989,0c5.532419,0 11.064837,0 14.753123,0c4.610352,0 8.298637,0 11.064856,0c3.688285,0 9.220704,0 16.597256,0c6.454504,0 13.831074,0 20.285578,0c4.610334,0 11.064837,0 16.597275,0c10.142771,0 14.753104,0 18.441408,0c3.688267,0 8.298637,0 11.064837,0c4.61037,0 11.064874,0 17.519341,0c4.61037,0 9.220704,0 11.986941,0c5.5324,0 9.220704,0 14.753104,0c2.766237,0 6.454504,0 11.064874,0c4.610334,0 9.220704,0 13.831038,0c7.376571,0 11.064874,0 16.597275,0c8.298637,0 12.909008,0 15.675208,0c6.454504,0 11.064837,0 12.909008,0c3.688267,0 9.220704,0 15.675208,0c5.5324,0 11.064837,0 15.675171,0c5.532437,0 11.064874,0 14.753141,0c4.61037,0 8.298637,0 11.986941,0c2.7662,0 6.454467,0 11.064837,0c3.688267,0 7.376571,0 11.986904,0c4.61037,0 9.220704,0 11.986941,0c4.610334,0 7.376571,0 8.298637,0c0.922067,0 2.7662,-0.769229 3.688267,-0.769229c0.922067,0 1.893482,0.176736 3.688304,0c2.006664,-0.197593 6.454467,-0.384615 11.986904,-0.384615c6.454467,0 8.298601,0 9.220741,0c1.844133,0 3.688267,0 8.298601,0c2.7662,0 5.5324,0 7.376534,0c2.766273,0 5.63117,-0.353465 9.220741,0c2.006627,0.197593 5.550325,0.233016 9.220741,0.384615c4.678741,0.193248 9.177648,0.961164 16.597275,1.153844c3.68117,0.095595 6.454467,0 7.376534,0c1.844133,0 3.688267,0 9.220741,0.769229l5.5324,0l5.5324,0.384615l3.688267,0.384615" id="svg_4" fill-opacity="null" stroke-opacity="null" stroke-width="4" fill="none"/>
 </g>
</svg>