<svg width="580" height="400" xmlns="http://www.w3.org/2000/svg">
 <g>
  <title>Layer 1</title>
  <path fill="#000000" stroke="#000" stroke-width="5" d="m123.7191,104.55957c0,0 2.74063,-12.05876 0,-16.14362c-2.74387,-4.08486 -3.83818,-6.80582 -9.87145,-8.75377s-3.83495,-1.55974 -8.2219,-1.36048c-4.38696,0.19583 -8.04436,2.72096 -8.04436,4.08143c0,0 -2.74064,0.19583 -3.83495,1.36391c-1.09755,1.16809 -2.92464,6.60999 -2.92464,7.9739s0.91355,10.5059 1.82709,12.45041l-1.08786,0.38822c-0.91354,11.27889 3.65418,12.64281 3.65418,12.64281c1.64309,10.50589 3.28941,6.03281 3.28941,8.75376s-1.64632,1.75213 -1.64632,1.75213s-1.45909,4.27725 -5.11327,5.83355c-3.65418,1.55287 -23.93939,9.91499 -25.58893,11.66711c-1.64955,1.75557 -1.46232,9.92186 -1.46232,9.92186l86.98688,0c0,0 0.19046,-8.16629 -1.45908,-9.92186c-1.65278,-1.75556 -21.93799,-10.11424 -25.59217,-11.66711c-3.65418,-1.5563 -5.11327,-5.83355 -5.11327,-5.83355s-1.64631,0.96882 -1.64631,-1.75213s1.64631,1.75213 3.29263,-8.75377c0,0 4.5645,-1.36391 3.65418,-12.6428l-1.09754,0z" id="svg_1" fill-opacity="0"/>
  <path stroke="#000" transform="rotate(-90 106.6591033935547,242.87799072265625) " id="svg_3" d="m118.359124,242.860601l0.027866,-0.018122l-1.795797,-2.754537c5.121116,-6.723245 5.808473,-16.065113 0.92886,-23.558541c-6.325539,-9.704307 -19.515355,-12.567575 -29.463448,-6.39705c-9.944998,6.167505 -12.889485,19.034093 -6.563946,28.74444c4.730995,7.254822 13.313664,10.682892 21.50002,9.36905l1.312789,2.020598l0.637817,0.135915l2.411941,-1.350086l-0.944341,4.158989l7.687867,1.66722l-0.916475,4.001932l5.89207,1.280618l-2.105417,9.242197l4.353259,0.945362l-1.312789,5.756741l12.802791,2.772659l2.34692,-10.244945l-16.799986,-25.772439zm-22.880925,-21.338601c-2.120898,1.316862 -4.932248,0.703736 -6.282192,-1.365187c-1.346847,-2.068923 -0.724511,-4.814399 1.396387,-6.128241s4.935344,-0.703736 6.279096,1.365187c1.35304,2.068923 0.724511,4.814399 -1.39329,6.128241z" stroke-width="5" fill="none"/>
  <rect id="svg_4" height="383" width="566" y="9.5" x="7" stroke-opacity="null" stroke-width="5" stroke="#000" fill="none"/>
 </g>
</svg>