<svg width="580" height="400" xmlns="http://www.w3.org/2000/svg">
 <!-- Created with Method Draw - http://github.com/duopixel/Method-Draw/ -->
 <defs>
  <filter id="svg_15_blur" x="-50%" y="-50%" width="200%" height="200%">
   <feGaussianBlur stdDeviation="0"/>
  </filter>
 </defs>
 <g>
  <title>Layer 1</title>
  <path fill="none" stroke="#000" stroke-width="7" id="svg_4" d="m32.5,375.4375c0,-1 -0.2995,-7.00497 0,-16c0.50028,-15.02496 2.49923,-27.95847 3,-37c0.7189,-12.9801 1,-30.97369 1,-50c0,-19.02629 1.67319,-32.03809 3,-42c0.80306,-6.02953 2,-19 2,-27c0,-12 1.95864,-24.99632 1,-36c-1.0451,-11.99615 -2.49829,-19.93796 -3,-26c-0.74233,-8.96933 -0.48873,-15.90516 -2,-25c-1.48436,-8.9329 -1.51127,-15.02997 -2,-19c-0.50377,-4.09222 0.44892,-9.21454 -1,-14c-1.04483,-3.45084 -2.49346,-7.87856 -3,-11c-0.48055,-2.96127 0.32735,-6.01791 0,-9c-1.00601,-9.16449 -2.49755,-13.9258 -3,-19c-0.59123,-5.9708 -1.41421,-7.58579 0,-9c0.70711,-0.70711 3,0 5,0c7,0 19.03017,0.44406 37,-1c19.04358,-1.53034 43.9837,-2.49988 67,-3c19.99528,-0.43447 41,0 63,0c15,0 25,0 36,0c8,0 19.90665,0.99806 36,2c13.97296,0.86992 28,2 40,2c15,0 30,0 45,0c11,0 19,0 25,0c5,0 13.01028,0.45314 23,0c11.03403,-0.50052 23,-1 34,-1c10,0 18.96262,-0.49938 29,-1c8.98883,-0.44832 16.02387,0.57736 23,0c6.06204,-0.50171 9.90778,-1.49622 14,-2c4.96252,-0.61092 10.87857,-0.49346 14,-1c1.97418,-0.32036 4,0 6,0c3,0 5,0 9,0c1,0 0.54047,1.0535 1,3c1.54126,6.52875 3.9469,15.01092 5,20c1.90418,9.02076 2.3208,16.92656 4,25c2.47723,11.91064 3,23 3,32c0,9 -1.49939,18.9626 -2,29c-0.49811,9.98758 0,22 0,37c0,11 -1.49939,21.9626 -2,32c-0.34869,6.9913 0.49622,14.90779 1,19c0.73309,5.95505 0.50513,12.02045 1,18c0.50171,6.06204 1.49829,11.93796 2,18c0.57739,6.97613 1.49872,12.94672 2,20c0.42535,5.98489 1,13 1,19c0,6 0.49756,9.92578 1,15c0.49268,4.97568 0,10 0,14c0,4 0,8 0,11c0,5 0,7 0,8c0,1 1,1 1,4c0,3 0,6 0,8c0,1 -1,1 -3,1c-5,0 -12.0188,0.77991 -25,2c-18.03131,1.69476 -37.00531,2.88919 -59,4c-18.00482,0.9093 -32.87592,2.99658 -45,4c-17.93866,1.48465 -37.97504,1.49973 -53,2c-13.99225,0.46588 -31.0174,-0.30261 -45,-1c-20.0748,-1.00125 -39.97659,-3.49976 -56,-4c-14.99269,-0.46808 -29.97121,-0.49963 -43,-1c-14.98895,-0.57565 -27.89345,-1.99747 -42,-3c-8.97736,-0.638 -19.00508,-0.71484 -27,-1c-14.02675,-0.50031 -27.03145,-2.62906 -41,-4c-8.02371,-0.78748 -15,-1 -20,-2c-5,-1 -12,-1 -17,-1c-6,0 -8,0 -9,0c-1,0 -2.01022,0.24744 -5,0c-6.06204,-0.50171 -14.9626,-1.49939 -25,-2c-4.99379,-0.24905 -9,-1 -11,-1c-2,0 -3,0 -4,0c-3,0 -5,0 -6,0l-1,0"/>
  <path fill="none" stroke="#000" stroke-width="7" id="svg_6" d="m157.5,143.4375c0,0 1,0 2,0c2,0 3,0 5,0c6,0 11,0 18,0c7,0 18,0 26,0c4,0 11,0 16,0c4,0 7,0 8,0c3,0 7,0 11,0c6,0 13,0 20,0c4,0 8,0 14,0c4,0 9,0 14,0c5,0 10,0 14,0c6,0 12,0 18,0c6,0 10,-1 19,-1c6,0 10,-1 16,-1c7,0 17,0 22,0c7,0 12,0 19,0c7,0 12,0 18,0c6,0 14,0 20,0c5,0 10,1 14,1c4,0 9.02997,-0.48874 13,0c4.09222,0.50377 6,1 7,1c3,0 8,0 12,0l4,0l2,0l1,0"/>
  <path fill="none" stroke="#000" stroke-width="7" id="svg_8" d="m165.5,253.4375c0,0 1,0 4,0c4,0 8,0 14,0c11,0 23,0 38,0c12,0 22,1 31,1c9,0 15,0 21,0c5,0 9,0 17,0c9,0 13,0 18,0c12,0 19.02045,-0.50511 25,-1c6.06204,-0.50171 12.81558,-1.99245 21,-3c8.93256,-1.09966 16,0 25,0c6,0 11,0 16,0c5,0 9,0 14,0c5,0 10,0 16,0c6,0 13,0 19,0c2,0 4.82376,0.48625 7,1c2.91974,0.68926 6,0 8,0c3,0 4,0 10,0c2,0 8,0 9,0c1,0 3,0 4,0c1,0 2,0 5,0l2,0"/>
  <path fill="none" stroke="#000" stroke-width="6" stroke-opacity="null" fill-opacity="null" d="m118.58422,250.07957l0.0264,-0.01661l-1.70128,-2.52499c4.85159,-6.16298 5.50276,-14.72636 0.87997,-21.59533c-5.99261,-8.89562 -18.48823,-11.52028 -27.91274,-5.86397c-9.42157,5.65355 -12.21109,17.44792 -6.21847,26.34908c4.48199,6.65025 12.61294,9.79265 20.36844,8.58829l1.24369,1.85222l0.60425,0.12459l2.285,-1.23758l-0.89464,3.81241l7.28324,1.52828l-0.86824,3.66844l5.58196,1.1739l-1.9946,8.47201l4.12414,0.86659l-1.2437,5.27701l12.12896,2.5416l2.2234,-9.3912l-15.91578,-23.62474zm-21.67666,-19.56038c-2.00928,1.20712 -4.67266,0.64509 -5.95155,-1.25142c-1.27596,-1.89652 -0.68638,-4.4132 1.32289,-5.61756s4.67559,-0.64509 5.94862,1.25142c1.28182,1.89652 0.68637,4.4132 -1.31996,5.61756z" id="svg_15" filter="url(#svg_15_blur)"/>
  <path id="svg_2" d="m118.280245,130.502539c0,0 2.23661,-9.396436 0,-12.579445c-2.239244,-3.183009 -3.132307,-5.303231 -8.05601,-6.821116s-3.129673,-1.215379 -6.709829,-1.060111c-3.580156,0.152592 -6.564937,2.120221 -6.564937,3.180332c0,0 -2.23661,0.152592 -3.129673,1.062788c-0.895698,0.910196 -2.386771,5.150639 -2.386771,6.213427s0.745537,8.186411 1.491073,9.701619l-0.887794,0.302506c-0.745537,8.788746 2.982146,9.851534 2.982146,9.851534c1.340912,8.186411 2.684459,4.700895 2.684459,6.821116s-1.343546,1.365294 -1.343546,1.365294s-1.190751,3.332924 -4.172897,4.545626c-2.982146,1.210025 -19.536746,7.725958 -20.882927,9.091253c-1.346181,1.367971 -1.193385,7.731313 -1.193385,7.731313l70.989308,0c0,0 0.15543,-6.363341 -1.190751,-7.731313c-1.348815,-1.367971 -17.903415,-7.881227 -20.885562,-9.091253c-2.982146,-1.212702 -4.172897,-4.545626 -4.172897,-4.545626s-1.343546,0.754927 -1.343546,-1.365294s1.343546,1.365294 2.687093,-6.821116c0,0 3.725048,-1.062788 2.982146,-9.851534l-0.895698,0z" stroke-width="6" stroke="#000" fill="#fff"/>
 </g>
</svg>