<svg width="580" height="530" xmlns="http://www.w3.org/2000/svg">
 <g>
  <title>Layer 1</title>
  <path stroke="#000" d="m32.5,508.382692c0,-1.385189 -0.2995,-9.70321 0,-22.163031c0.50028,-20.812416 2.49923,-38.727777 3,-51.252008c0.7189,-17.979897 1,-42.904428 1,-69.259471c0,-26.355015 1.67319,-44.378823 3,-58.177955c0.80306,-8.352041 2,-26.318599 2,-37.400114c0,-16.622273 1.95864,-34.624638 1,-49.866819c-1.0451,-16.61694 -2.49829,-27.617851 -3,-36.014925c-0.74233,-12.424221 -0.48873,-22.031659 -2,-34.629735c-1.48436,-12.373759 -1.51127,-20.819355 -2,-26.318599c-0.50377,-5.6685 0.44892,-12.763883 -1,-19.392652c-1.04483,-4.780067 -2.49346,-10.913298 -3,-15.237084c-0.48055,-4.10192 0.32735,-8.335945 0,-12.466705c-1.00601,-12.694555 -2.49755,-19.289871 -3,-26.318599c-0.59123,-8.270689 -1.41421,-10.507756 0,-12.466705c0.70711,-0.979481 3,0 5,0c7,0 19.03017,0.615107 37,-1.385189c19.04358,-2.119811 43.9837,-3.462807 67,-4.155568c19.99528,-0.601823 41,0 63,0c15,0 25,0 36,0c8,0 19.90665,1.382502 36,2.770379c13.97296,1.205004 28,2.770379 40,2.770379c15,0 30,0 45,0c11,0 19,0 25,0c5,0 13.01028,0.627685 23,0c11.03403,-0.693315 23,-1.385189 34,-1.385189c10,0 18.96262,-0.691736 29,-1.385189c8.98883,-0.621008 16.02387,0.799753 23,0c6.06204,-0.694963 9.90778,-2.072548 14,-2.770379c4.96252,-0.84624 10.87857,-0.683536 14,-1.385189c1.97418,-0.443759 4,0 6,0c3,0 5,0 9,0c1,0 0.54047,1.459297 1,4.155568c1.54126,9.043555 3.9469,20.792967 5,27.703788c1.90418,12.495461 2.3208,23.446492 4,34.629735c2.47723,16.498492 3,31.859357 3,44.326061c0,12.466705 -1.49939,26.266793 -2,40.170493c-0.49811,13.83469 0,30.474167 0,51.252008c0,15.237084 -1.49939,30.422361 -2,44.326061c-0.34869,9.684275 0.49622,20.650113 1,26.318599c0.73309,8.248872 0.50513,16.6506 1,24.933409c0.50171,8.397074 1.49829,16.536336 2,24.933409c0.57739,9.663261 1.49872,17.933659 2,27.703788c0.42535,8.290206 1,18.007462 1,26.318599c0,8.311136 0.49756,13.749085 1,20.777841c0.49268,6.892259 0,13.851894 0,19.392652c0,5.540758 0,11.081515 0,15.237084c0,6.925947 0,9.696326 0,11.081515c0,1.385189 1,1.385189 1,5.540758c0,4.155568 0,8.311136 0,11.081515c0,1.385189 -1,1.385189 -3,1.385189c-5,0 -12.0188,1.080323 -25,2.770379c-18.03131,2.347564 -37.00531,4.002075 -59,5.540758c-18.00482,1.259553 -32.87592,4.150831 -45,5.540758c-17.93866,2.056521 -37.97504,2.07741 -53,2.770379c-13.99225,0.645332 -31.0174,-0.419172 -45,-1.385189c-20.0748,-1.386921 -39.97659,-4.847831 -56,-5.540758c-14.99269,-0.648379 -29.97121,-0.692082 -43,-1.385189c-14.98895,-0.797384 -27.89345,-2.766874 -42,-4.155568c-8.97736,-0.883751 -19.00508,-0.990189 -27,-1.385189c-14.02675,-0.693024 -27.03145,-3.641746 -41,-5.540758c-8.02371,-1.090809 -15,-1.385189 -20,-2.770379c-5,-1.385189 -12,-1.385189 -17,-1.385189c-6,0 -8,0 -9,0c-1,0 -2.01022,0.342751 -5,0c-6.06204,-0.694963 -14.9626,-2.076939 -25,-2.770379c-4.99379,-0.344981 -9,-1.385189 -11,-1.385189c-2,0 -3,0 -4,0c-3,0 -5,0 -6,0l-1,0" id="svg_4" stroke-width="7" fill="none"/>
  <path id="svg_15" d="m117.08422,250.07957l0.0264,-0.01661l-1.70128,-2.52499c4.85159,-6.16298 5.50276,-14.72636 0.87997,-21.59533c-5.99261,-8.89562 -18.48823,-11.52028 -27.91274,-5.86397c-9.42157,5.65355 -12.21109,17.44792 -6.21847,26.34908c4.48199,6.65025 12.61294,9.79265 20.36844,8.58829l1.24369,1.85222l0.60425,0.12459l2.285,-1.23758l-0.89464,3.81241l7.28324,1.52828l-0.86824,3.66844l5.58196,1.1739l-1.9946,8.47201l4.12414,0.86659l-1.2437,5.27701l12.12896,2.5416l2.2234,-9.3912l-15.91578,-23.62474zm-21.67666,-19.56038c-2.00928,1.20712 -4.67266,0.64509 -5.95155,-1.25142c-1.27596,-1.89652 -0.68638,-4.4132 1.32289,-5.61756s4.67559,-0.64509 5.94862,1.25142c1.28182,1.89652 0.68637,4.4132 -1.31996,5.61756z" fill-opacity="null" stroke-opacity="null" stroke-width="6" stroke="#000" fill="none"/>
  <path fill="none" stroke="#000" stroke-width="6" d="m118.675317,130.50254c0,0 2.23661,-9.39644 0,-12.57945c-2.23924,-3.183 -3.1323,-5.30323 -8.05601,-6.82111s-3.12967,-1.21538 -6.70982,-1.06011c-3.58016,0.15259 -6.56494,2.12022 -6.56494,3.18033c0,0 -2.23661,0.15259 -3.12967,1.06279c-0.8957,0.91019 -2.38677,5.15064 -2.38677,6.21342s0.74553,8.18642 1.49107,9.70162l-0.8878,0.30251c-0.74553,8.78875 2.98215,9.85153 2.98215,9.85153c1.34091,8.18641 2.68446,4.7009 2.68446,6.82112s-1.34355,1.36529 -1.34355,1.36529s-1.19075,3.33293 -4.17289,4.54563c-2.98215,1.21002 -19.53675,7.72596 -20.88293,9.09125c-1.34618,1.36797 -1.19339,7.73132 -1.19339,7.73132l70.98931,0c0,0 0.15543,-6.36335 -1.19075,-7.73132c-1.34881,-1.36797 -17.90341,-7.88122 -20.88556,-9.09125c-2.98215,-1.2127 -4.1729,-4.54563 -4.1729,-4.54563s-1.34354,0.75493 -1.34354,-1.36529s1.34354,1.36529 2.68709,-6.82112c0,0 3.72505,-1.06278 2.98214,-9.85153l-0.89569,0l-0.00001,0z" id="svg_2"/>
  <path id="svg_1" d="m137.52178,330.81841l-63.0486,0l31.5243,14.88712l31.5243,-14.88712zm-29.65807,21.22901c-0.57926,0.27437 -1.22149,0.4126 -1.86371,0.4126s-1.28444,-0.13823 -1.86622,-0.4126l-32.13378,-15.16986l0,30.94083l68.00001,0l0,-30.94083l-32.1363,15.16986z" fill-opacity="null" stroke-opacity="null" stroke-width="6" stroke="#000" fill="none"/>
 </g>
</svg>