<svg width="210" height="210" xmlns="http://www.w3.org/2000/svg">
    <g>
        <title>Layer 1</title>
        <polyline stroke="#000" stroke-linecap="round" id="svg_21"
                  points="0.9986167550086975,4.756781101226807 1.3293619358040267,4.756781101226807 1.9908505143700772,4.756781101226807 2.3215948036531024,4.756781101226807 2.652339211804435,4.756781101226807 2.983083382219153,4.756781101226807 3.6445738626781186,4.756781101226807 4.636806611658887,4.756781101226807 5.959784719737446,4.756781101226807 7.61350580954765,4.756781101226807 8.605739034001648,4.756781101226807 8.936482966679751,4.756781101226807 9.267229752197228,4.756781101226807 9.597971782982416,4.756781101226807 10.5902064338561,4.756781101226807 11.251695250158765,4.756781101226807 12.905418717335113,4.756781101226807 13.56690658269132,4.756781101226807 13.897651466315882,4.756781101226807 14.228395398993985,4.756781101226807 14.559139331672089,4.756781101226807 15.220628147974754,4.756781101226807 15.551372080652857,4.756781101226807 16.874350664204645,4.756781101226807 17.866583413185413,4.756781101226807 19.189562947683658,4.756781101226807 20.843287365806464,4.756781101226807 22.49700798014344,4.756781101226807 23.81998561274877,4.756781101226807 24.15073049637333,4.756781101226807 24.481475379997892,4.756781101226807 25.1429632453541,4.756781101226807 25.804453012603222,4.756781101226807 26.79668956536982,4.756781101226807 27.78892231435059,4.756781101226807 30.104132695936688,4.756781101226807 31.757853310273664,4.756781101226807 32.75008605925443,4.756781101226807 33.41157582650355,4.756781101226807 34.07306559375267,4.756781101226807 35.726784306196734,4.756781101226807 38.04199658967575,4.756781101226807 41.01869483661805,5.521689090775908 42.672421156633774,5.904142587181923 43.99540069113202,5.904142587181923 44.98763344011279,6.2865965819564735 45.318376421844434,6.2865965819564735 45.64911940357608,6.2865965819564735 47.3028457235918,6.2865965819564735 49.28731122155334,6.2865965819564735 50.61028695226575,6.2865965819564735 52.59475245022729,6.2865965819564735 53.917735788511365,6.2865965819564735 55.24070771543795,6.2865965819564735 55.9022012864729,6.2865965819564735 56.89443403545367,6.2865965819564735 57.55591999891696,6.2865965819564735 58.54816035546939,6.2865965819564735 58.87889953341521,6.2865965819564735 59.87113608618181,6.2865965819564735 60.863365031376745,6.2865965819564735 62.517091351392466,6.2865965819564735 64.1708062600507,6.2865965819564735 65.49378579454894,6.2865965819564735 66.81675772147553,6.2865965819564735 67.80899807802795,6.2865965819564735 68.80123843458038,6.2865965819564735 70.45495714702444,6.2865965819564735 73.1009238235926,6.2865965819564735 75.08538932155413,6.2865965819564735 77.40058638988982,6.2865965819564735 78.72358113953139,6.2865965819564735 79.71579867336884,6.2865965819564735 80.04654545888631,6.2865965819564735 80.37729224440379,6.2865965819564735 80.70803902992127,6.2865965819564735 82.03101856441951,6.2865965819564735 84.01548406238105,6.2865965819564735 86.99218991689501,6.2865965819564735 88.64590102176741,6.2865965819564735 90.63036651972895,6.2865965819564735 92.94557880320797,6.2865965819564735 93.60707998181458,6.2865965819564735 95.26079108668698,6.2865965819564735 96.58377062118522,6.2865965819564735 96.91452501427436,6.2865965819564735 97.57600337016599,5.521689090775908 97.90674254811181,5.521689090775908 98.23748933362928,5.521689090775908 98.56824372671842,5.139235096001357 98.8989905122359,5.139235096001357 100.55270922467996,4.756781101226807 102.86791390058731,4.756781101226807 105.51386536201214,4.756781101226807 106.83684489651039,4.756781101226807 107.82908525306281,4.756781101226807 108.49057882409777,4.756781101226807 109.48279635793521,4.756781101226807 109.81356596616767,4.756781101226807 110.4750443220593,4.756781101226807 111.46726946346841,4.756781101226807 111.79803146412921,4.756781101226807 113.12098817591247,4.756781101226807 114.44397531798238,4.756781101226807 116.42844081594392,4.756781101226807 119.73589345597536,4.756781101226807 121.05886538290194,4.756781101226807 122.05109813188271,4.756781101226807 122.712584095346,4.756781101226807 123.04333848843514,4.756781101226807 123.37408527395262,4.756781101226807 124.36630280779006,4.756781101226807 126.02003673537745,4.756781101226807 127.01226948435821,4.756781101226807 128.3352414112848,4.756781101226807 129.98896012372887,4.756781101226807 131.64267883617293,4.756781101226807 134.95013147620438,4.756781101226807 136.93461218930923,4.756781101226807 139.58054082801908,4.756781101226807 141.23427475560646,4.756781101226807 143.218740253568,4.756781101226807 144.5417273956379,4.756781101226807 146.52619289359944,4.756781101226807 148.51065839156098,4.756781101226807 151.15660224541415,4.756781101226807 153.1410677433757,4.756781101226807 154.79478645581975,4.756781101226807 155.7870420275155,4.756781101226807 158.1022390958512,4.756781101226807 160.08671980895605,4.756781101226807 162.7326484476659,4.756781101226807 164.05565080487912,4.756781101226807 166.04010108769734,4.756781101226807 168.0245818008022,4.756781101226807 169.67830051324626,4.756781101226807 170.67052565465536,4.756781101226807 171.6627660112078,4.756781101226807 172.32424436709942,4.756781101226807 172.9857531532777,4.756781101226807 173.31648472365185,4.756781101226807 174.97021865123924,4.756781101226807 176.62392214853998,4.756781101226807 178.27765607612736,4.756781101226807 180.26210635894557,4.756781101226807 181.5851087161588,4.756781101226807 183.56955899897702,4.756781101226807 184.56179935552944,4.756781101226807 186.21553328311683,4.756781101226807 187.86923678041757,4.756781101226807 189.19222392248747,4.756781101226807 189.8537022783791,4.756781101226807 190.51521106455738,4.756781101226807 191.176689420449,4.756781101226807 191.50742099082316,4.756781101226807 192.16891456185812,4.756781101226807 193.16115491841055,4.756781101226807 194.15339527496297,4.756781101226807 194.48414206048045,4.756781101226807 195.47635198674624,4.756781101226807 195.80711398740704,4.756781101226807 197.13008591433362,4.756781101226807 197.4608326998511,4.756781101226807 198.12232627088605,4.756781101226807 198.78380462677768,4.756781101226807 199.11455141229516,4.756781101226807 199.4452829826693,4.756781101226807 199.7760449833301,4.756781101226807 200.43753855436506,4.756781101226807 200.76828533988254,4.756781101226807 201.0990169102567,4.756781101226807 201.4297789109175,4.756781101226807 202.09125726680912,4.756781101226807 202.4220040523266,4.756781101226807 202.75273562270075,4.756781101226807 203.08348240821823,4.756781101226807 203.7449911943965,4.756781101226807 204.07573797991398,4.756781101226807 204.40646955028814,4.756781101226807 204.7372163358056,4.756781101226807 204.7372163358056,5.139235096001357 204.7372163358056,5.521689090775908 204.7372163358056,7.051504571505575 204.7372163358056,8.198866555829227 204.7372163358056,9.346228540152879 204.7372163358056,10.11113652970198 204.7372163358056,10.876044519251082 204.7372163358056,11.25849751728856 204.7372163358056,11.640952508800183 204.7372163358056,12.788314493123835 204.7372163358056,13.170768487898386 204.7372163358056,13.935676477447487 204.7372163358056,14.70058546373366 204.7372163358056,15.083037465034067 204.7372163358056,15.84794645132024 204.7372163358056,17.377762430418443 204.7372163358056,18.52512242126795 204.7372163358056,18.907576416042502 204.7372163358056,19.290030410817053 204.7372163358056,19.672484405591604 204.7372163358056,21.5847563729385 204.7372163358056,22.73211636378801 204.7372163358056,23.49702435333711 204.7372163358056,24.26193234288621 204.7372163358056,25.026840332435313 204.7372163358056,26.556656311533516 204.7372163358056,27.321564301082617 204.7372163358056,28.46892628540627 204.7372163358056,28.851378286706677 204.7372163358056,29.99874226450447 204.7372163358056,31.146104248828124 204.7372163358056,32.293466233151776 204.7372163358056,33.05837422270088 204.7372163358056,34.20573820049867 204.7372163358056,34.97064619004777 204.7372163358056,35.73555019264859 204.7372163358056,36.50045818219769 204.7372163358056,37.6478181730472 204.7372163358056,38.4127261625963 204.7372163358056,39.560090140394095 204.7372163358056,39.94254612864279 204.7372163358056,40.70745411819189 204.7372163358056,41.472358120792705 204.7372163358056,41.8548141090414 204.7372163358056,42.6197220985905 204.7372163358056,43.76708208944001 204.7372163358056,44.53199007898911 204.7372163358056,45.2969020554865 204.7372163358056,45.679354056786906 204.7372163358056,46.06180605808731 204.7372163358056,46.44425805938772 204.7372163358056,48.356534013682904 204.7372163358056,50.268801994081514 204.7372163358056,51.41616198493102 204.7372163358056,52.18107396142841 204.7372163358056,53.71088595357833 204.7372163358056,54.09334194182702 204.7372163358056,55.24070193267653 204.7372163358056,56.77051791177473 204.7372163358056,57.53542191437555 204.7372163358056,57.91788188957253 204.7372163358056,58.68278589217334 204.7372163358056,59.065241880422036 204.7372163358056,59.447693881722444 204.7372163358056,61.35996584906934 204.7372163358056,62.50732583991885 204.7372163358056,63.27223781641624 204.7372163358056,64.80205379551444 204.7372163358056,65.56695779811525 204.7372163358056,67.09677776416174 204.7372163358056,68.62660171715652 204.7372163358056,70.15640972235815 204.7372163358056,70.92132169885554 204.7372163358056,72.45113767795374 204.7372163358056,74.36340565835235 204.7372163358056,75.89322961134712 204.7372163358056,77.80549759174573 204.7372163358056,78.95285359564696 204.7372163358056,79.71776557214434 205.06794790617977,80.86512954994214 205.06794790617977,82.39493755514377 205.06794790617977,83.92475353424197 205.72944147721472,85.07212548593634 205.72944147721472,85.45457748723675 205.72944147721472,86.60193349113797 205.72944147721472,89.27912142193054 205.72944147721472,90.42647742583176 205.72944147721472,91.9562854310334 205.72944147721472,93.10364940883119 205.72944147721472,94.25101338662898 205.72944147721472,95.78083733962376 206.0601882627322,98.07555732132278 206.0601882627322,99.22292129912057 206.0601882627322,99.60537330042098 206.0601882627322,101.13518130562261 206.0601882627322,102.66500525861738 206.0601882627322,103.04745725991779 206.0601882627322,104.577273239016 206.0601882627322,105.34217724161681 206.0601882627322,106.4895412194146 206.0601882627322,106.87200119461158 206.0601882627322,107.6369051972124 206.0601882627322,109.54917317761101 206.0601882627322,111.46144913190619 206.0601882627322,112.60880513580742 206.0601882627322,114.5210810901026 206.0601882627322,116.05088909530423 206.0601882627322,117.96315707570284 205.72944147721472,120.25788503129843 205.39870990684057,122.93505701429785 205.06794790617977,124.84733296859304 205.06794790617977,126.37714097379467 205.06794790617977,128.28941692808985 204.7372163358056,129.43678090588764 204.7372163358056,131.73150088758666 204.07573797991398,135.17356889929033 203.7449911943965,135.93847290189115 203.7449911943965,137.08583687968894 203.7449911943965,137.46829685488592 203.7449911943965,137.8507568300829 203.7449911943965,138.99810486008755 203.7449911943965,139.38056483528453 203.7449911943965,140.9103887882793 203.7449911943965,143.20510079608175 203.7449911943965,143.97000479868257 203.7449911943965,145.49982875167734 203.7449911943965,147.79455670727293 203.7449911943965,150.08928466286852 203.7449911943965,152.38399667067097 203.7449911943965,154.29628059886272 203.7449911943965,155.0611686536704 203.7449911943965,156.20854857926133 203.7449911943965,158.12081655965994 203.7449911943965,159.2681645896646 203.7449911943965,160.41554451525553 203.7449911943965,162.32781249565414 203.7449911943965,163.85760455306263 203.7449911943965,166.15234845645136 203.4142291937357,166.91726840684532 203.4142291937357,167.682156461653 203.4142291937357,168.06460048905683 203.4142291937357,168.4470604642538 203.4142291937357,170.35934439244556 203.4142291937357,171.8891523976472 203.4142291937357,173.80143632583895 203.4142291937357,175.33122838324743 203.4142291937357,176.47859236104523 203.4142291937357,179.15576434404466 203.4142291937357,179.53822431924164 203.4142291937357,180.3031442696356 203.4142291937357,181.0680482722364 204.07573797991398,183.74522025523584 204.40646955028814,186.03994821083143 204.40646955028814,187.56975621603306 204.40646955028814,189.09958016902783 204.40646955028814,189.86448417162865 204.40646955028814,191.01184814942644 204.40646955028814,191.39430812462342 204.40646955028814,192.92411612982505 204.40646955028814,194.45394008281983 204.7372163358056,195.21884408542064 204.7372163358056,196.36620806321844 204.7372163358056,197.13111206581925 204.7372163358056,197.51357204101623 204.7372163358056,198.27847604361705 205.06794790617977,199.4258240736217 205.06794790617977,200.19074402401566 205.06794790617977,200.95564802661647 205.06794790617977,202.1030279522074 205.06794790617977,202.48547197961125 205.06794790617977,203.25037598221206 205.06794790617977,204.01529593260602 205.06794790617977,204.78019993520684 205.06794790617977,207.07491194300928 204.7372163358056,208.22227592080708 204.7372163358056,208.98719587120104 "
                  fill-opacity="null" stroke-opacity="null" stroke-width="4" fill="none"/>
        <polyline stroke="#000" transform="rotate(-180 106.32351684570312,102.46023559570312) " stroke-linecap="round"
                  id="svg_22"
                  points="4.528023101345525,0.9332615258453671 4.856396099155802,0.9332615258453671 5.513141112727737,0.9332615258453671 5.841513619513705,0.9332615258453671 6.169886617323982,0.9332615258453671 6.498258633085641,0.9332615258453671 7.155004628706195,0.9332615258453671 8.140121658039789,0.9332615258453671 9.45361168518366,0.9332615258453671 11.095474219113498,0.9332615258453671 12.080591739471402,0.9332615258453671 12.40896424625737,0.9332615258453671 12.737337735091955,0.9332615258453671 13.065709259829305,0.9332615258453671 14.050826780187208,0.9332615258453671 14.707572775807762,0.9332615258453671 16.349437273834837,0.9332615258453671 17.006180323309536,0.9332615258453671 17.334553812144122,0.9332615258453671 17.66292533688147,0.9332615258453671 17.991298825716058,0.9332615258453671 18.648043839287993,0.9332615258453671 18.97641732812258,0.9332615258453671 20.28990735526645,0.9332615258453671 21.275023893575735,0.9332615258453671 22.588515884816843,0.9332615258453671 24.2303794007953,0.9332615258453671 25.87224095267652,0.9332615258453671 27.18573097982039,0.9332615258453671 27.514104468654978,0.9332615258453671 27.842477957489564,0.9332615258453671 28.499221006964262,0.9332615258453671 29.155966020536198,0.9332615258453671 30.141086487039956,0.9332615258453671 31.12620302534924,0.9332615258453671 33.42481351899687,0.9332615258453671 35.066673106780854,0.9332615258453671 36.05178964509014,0.9332615258453671 36.70853269456484,0.9332615258453671 37.365283600428484,0.9332615258453671 39.00713926001799,0.9332615258453671 41.30574975366562,0.9332615258453671 44.26110329678795,1.693763204781277 45.90296681276641,2.074013389546451 47.21645683991028,2.074013389546451 48.201573378219564,2.4542647646803175 48.52994686705415,2.4542647646803175 48.858320355888736,2.4542647646803175 50.50018387186719,2.4542647646803175 52.47041694848576,2.4542647646803175 53.783906975629634,2.4542647646803175 55.75414398044268,2.4542647646803175 57.06763400758655,2.4542647646803175 58.381120106535946,2.4542647646803175 59.03787101239959,2.4542647646803175 60.022987550708876,2.4542647646803175 60.679730600183575,2.4542647646803175 61.66484713849286,2.4542647646803175 61.993220627327446,2.4542647646803175 62.97833716563673,2.4542647646803175 63.96345763214049,2.4542647646803175 65.60532114811895,2.4542647646803175 67.24719252048635,2.4542647646803175 68.5606864758247,2.4542647646803175 69.87416471838515,2.4542647646803175 70.8592851848889,2.4542647646803175 71.84439779500372,2.4542647646803175 73.48626523917665,2.4542647646803175 76.11325314985334,2.4542647646803175 78.0834862264719,2.4542647646803175 80.38209279192506,2.4542647646803175 81.6955867472634,2.4542647646803175 82.68069935737822,2.4542647646803175 83.00908070260175,2.4542647646803175 83.33745419143634,2.4542647646803175 83.66581982388198,2.4542647646803175 84.97931377922032,2.4542647646803175 86.94954685583889,2.4542647646803175 89.90490039896122,2.4542647646803175 91.5467599867452,2.4542647646803175 93.51699306336377,2.4542647646803175 95.81559962881693,2.4542647646803175 96.47235446287505,2.4542647646803175 98.11421405065903,2.4542647646803175 99.42770014960843,2.4542647646803175 99.75608149483196,2.4542647646803175 100.41282061611219,1.693763204781277 100.74119410494677,1.693763204781277 101.06955973739241,1.693763204781277 101.39794108261594,1.3135119486842797 101.72631457145053,1.3135119486842797 103.36818201562346,0.9332615258453671 105.66678072468767,0.9332615258453671 108.29376077897541,0.9332615258453671 109.60724687792481,0.9332615258453671 110.59237520081751,0.9332615258453671 111.24911432209774,0.9332615258453671 112.23422693221255,0.9332615258453671 112.56261613382503,0.9332615258453671 113.21934739871631,0.9332615258453671 114.20446000883112,0.9332615258453671 114.5328492104436,0.9332615258453671 115.84632745300405,0.9332615258453671 117.1598214083424,0.9332615258453671 119.13006234134991,0.9332615258453671 122.41378151691788,0.9332615258453671 123.72727547225622,0.9332615258453671 124.71239593875998,0.9332615258453671 125.36913506004021,0.9332615258453671 125.69751640526374,0.9332615258453671 126.02588203770938,0.9332615258453671 127.01099464782419,0.9332615258453671 128.65286209199712,0.9332615258453671 129.63798255850088,0.9332615258453671 130.95146865745028,0.9332615258453671 132.5933203888453,0.9332615258453671 134.2351956894072,0.9332615258453671 137.51891486497516,0.9332615258453671 139.48917151076057,0.9332615258453671 142.11612799588147,0.9332615258453671 143.75800329644335,0.9332615258453671 145.72822851667297,0.9332615258453671 147.0417381847892,0.9332615258453671 149.01196340501883,0.9332615258453671 150.98220433802635,0.9332615258453671 153.60916082314725,0.9332615258453671 155.57940175615477,0.9332615258453671 157.22126134393875,0.9332615258453671 158.20640537960935,0.9332615258453671 160.5049962322846,0.9332615258453671 162.47523716529213,0.9332615258453671 165.10219365041303,0.9332615258453671 166.41570331852927,0.9332615258453671 168.3859285387589,0.9332615258453671 170.3561694717664,0.9332615258453671 171.9980290595504,0.9332615258453671 172.9831573824431,0.9332615258453671 173.9682699925579,0.9332615258453671 174.62501697022708,0.9332615258453671 175.28176394789625,0.9332615258453671 175.6101295803419,0.9332615258453671 177.25200488090377,0.9332615258453671 178.89384875590986,0.9332615258453671 180.53572405647174,0.9332615258453671 182.50594927670136,0.9332615258453671 183.8194589448176,0.9332615258453671 185.78968416504722,0.9332615258453671 186.77479677516203,0.9332615258453671 188.4166720757239,0.9332615258453671 190.05851595073,0.9332615258453671 191.37202561884624,0.9332615258453671 192.02875688373751,0.9332615258453671 192.6855038614067,0.9332615258453671 193.34225083907586,0.9332615258453671 193.6706164715215,0.9332615258453671 194.32736344919067,0.9332615258453671 195.31249177208338,0.9332615258453671 196.2976043821982,0.9332615258453671 196.62598572742172,0.9332615258453671 197.61108262475864,0.9332615258453671 197.93946396998217,0.9332615258453671 199.25295792532052,0.9332615258453671 199.58132355776615,0.9332615258453671 200.23808624821322,0.9332615258453671 200.8948175131045,0.9332615258453671 201.22318314555014,0.9332615258453671 201.55154877799578,0.9332615258453671 201.8799301232193,0.9332615258453671 202.53669281366638,0.9332615258453671 202.86505844611202,0.9332615258453671 203.19342407855765,0.9332615258453671 203.5218054237812,0.9332615258453671 204.17855240145036,0.9332615258453671 204.506918033896,0.9332615258453671 204.83528366634164,0.9332615258453671 205.16364929878728,0.9332615258453671 205.82042770201224,0.9332615258453671 206.14879333445788,0.9332615258453671 206.47715896690352,0.9332615258453671 206.80552459934916,0.9332615258453671 206.80552459934916,1.3135119486842797 206.80552459934916,1.693763204781277 206.80552459934916,3.214766324579358 206.80552459934916,4.355518783464788 206.80552459934916,5.496270528129003 206.80552459934916,6.256773278396736 206.80552459934916,7.017275076369515 206.80552459934916,7.397524546913473 206.80552459934916,7.77777592204734 206.80552459934916,8.918529095153986 206.80552459934916,9.298779517992898 206.80552459934916,10.059280363670723 206.80552459934916,10.819783113938456 206.80552459934916,11.200032584482415 206.80552459934916,11.960535334750148 206.80552459934916,13.481538930695706 206.80552459934916,14.622288294622535 206.80552459934916,15.00254157434631 206.80552459934916,15.382791044890268 206.80552459934916,15.763043372319089 206.80552459934916,17.664298343398514 206.80552459934916,18.805050564210205 206.80552459934916,19.56555140988803 206.80552459934916,20.326054160155763 206.80552459934916,21.08655500583359 206.80552459934916,22.607558601779147 206.80552459934916,23.36806135204688 206.80552459934916,24.50881357285857 206.80552459934916,24.88906304340253 206.80552459934916,26.02981716880413 206.80552459934916,27.17057129420573 206.80552459934916,28.311321610427512 206.80552459934916,29.071822456105338 206.80552459934916,30.21257277232712 206.80552459934916,30.973075522594854 206.80552459934916,31.733580177452495 206.80552459934916,32.49408292772023 206.80552459934916,33.634829434762196 206.80552459934916,34.39533218502993 206.80552459934916,35.53608631043153 206.80552459934916,35.916337685565395 206.80552459934916,36.67684043583313 206.80552459934916,37.437339376921045 206.80552459934916,37.81759075205491 206.80552459934916,38.578093502322645 206.80552459934916,39.71884381854443 206.80552459934916,40.47934656881216 206.80552459934916,41.239849319079894 206.80552459934916,41.62010069421376 206.80552459934916,42.00034826016781 206.80552459934916,42.38059963530168 206.80552459934916,44.28185651097101 206.80552459934916,46.18310957746053 206.80552459934916,47.32386370286213 206.80552459934916,48.08436645312986 206.80552459934916,49.60536814448551 206.80552459934916,49.98561951961938 206.80552459934916,51.12636983584116 206.80552459934916,52.647375336376626 206.80552459934916,53.40787427746454 206.80552459934916,53.788129461778226 206.80552459934916,54.54862840286614 206.80552459934916,54.92887596882019 206.80552459934916,55.309131153133876 206.80552459934916,57.21038041044358 206.80552459934916,58.35113834502499 206.80552459934916,59.111641095292725 206.80552459934916,60.63263897746856 206.80552459934916,61.39314172773629 206.80552459934916,62.91414722827176 206.80552459934916,64.43515272880722 206.80552459934916,65.95614299262343 206.80552459934916,66.71664574289116 206.80552459934916,68.23765124342663 206.80552459934916,70.13890430991614 206.80552459934916,71.65990981045161 206.80552459934916,73.56116287694113 206.80552459934916,74.70191319316291 206.80552459934916,75.46241594343064 207.1338902317948,76.60317387801206 207.1338902317948,78.12417176018789 207.1338902317948,79.64517726072336 207.79065292224186,80.78593519530477 207.79065292224186,81.16618276125882 207.79065292224186,82.30693307748061 207.79065292224186,84.96869651259749 207.79065292224186,86.10944682881927 207.79065292224186,87.6304447109951 207.79065292224186,88.77119502721689 207.79065292224186,89.9119529617983 207.79065292224186,91.43295846233377 208.1190185546875,93.71446671313697 208.1190185546875,94.85521702935876 208.1190185546875,95.2354645953128 208.1190185546875,96.75646247748864 208.1190185546875,98.27747559638374 208.1190185546875,98.65772316233779 208.1190185546875,100.17872866287325 208.1190185546875,100.93922379478136 208.1190185546875,102.07998172936277 208.1190185546875,102.46023691367645 208.1190185546875,103.22073204558455 208.1190185546875,105.12198511207407 208.1190185546875,107.02324579692322 208.1190185546875,108.163996113145 208.1190185546875,110.06525679799415 208.1190185546875,111.58624706181035 208.1190185546875,113.48750012829987 207.79065292224186,115.76900837910307 207.46228728979622,118.43075657750069 207.1338902317948,120.33201726234984 207.1338902317948,121.85301514452567 207.1338902317948,123.75427582937482 206.80552459934916,124.89501852723697 206.80552459934916,127.17651915968054 206.14879333445788,130.59879296342478 205.82042770201224,131.35930333205215 205.82042770201224,132.50003079319504 205.82042770201224,132.88030883258762 205.82042770201224,133.2605411618224 205.82042770201224,134.40131433312308 205.82042770201224,134.78156189907713 205.82042770201224,136.30255216289333 205.82042770201224,138.5840527953369 205.82042770201224,139.34456316396427 205.82042770201224,140.86556866449973 205.82042770201224,143.14708453366256 205.82042770201224,145.42858516610613 205.82042770201224,147.7100857985497 205.82042770201224,149.61133886503922 205.82042770201224,150.37184923366658 205.82042770201224,151.512607168248 205.82042770201224,153.4138602347375 205.82042770201224,154.55460293259966 205.82042770201224,155.69537610390034 205.82042770201224,157.59659869695133 205.82042770201224,159.1176041974868 205.82042770201224,161.39910482993037 205.4920306440108,162.15961519855773 205.4920306440108,162.92011033046583 205.4920306440108,163.30037313313915 205.4920306440108,163.6806206990932 205.4920306440108,165.58188900230198 205.4920306440108,167.10289450283744 205.4920306440108,169.00414756932696 205.4920306440108,170.5251225964239 205.4920306440108,171.66589576772458 205.4920306440108,174.3276439661222 205.4920306440108,174.7079067687955 205.4920306440108,175.46841713742288 205.4920306440108,176.22888179589245 206.14879333445788,178.8906604677286 206.47715896690352,181.1721458634529 206.47715896690352,182.69316660070763 206.47715896690352,184.21415686452383 206.47715896690352,184.97465199643193 206.47715896690352,186.1154251677326 206.47715896690352,186.49568797040592 206.47715896690352,188.01667823422213 206.47715896690352,189.5376837347576 206.80552459934916,190.29819410338496 206.80552459934916,191.4389368012471 206.80552459934916,192.19941669643595 206.80552459934916,192.57967949910926 206.80552459934916,193.34018986773663 207.1338902317948,194.4809173288795 207.1338902317948,195.24142769750688 207.1338902317948,196.00193806613424 207.1338902317948,197.14271123743492 207.1338902317948,197.52292832995045 207.1338902317948,198.28345393529708 207.1338902317948,199.04394906720518 207.1338902317948,199.80445943583254 207.1338902317948,202.0859600682761 206.80552459934916,203.22670276613826 206.80552459934916,203.98721313476562 "
                  fill-opacity="null" stroke-opacity="null" stroke-width="4" fill="none"/>
    </g>
</svg>