<svg width="200" height="10" xmlns="http://www.w3.org/2000/svg">
    <g>
        <title>Layer 1</title>
        <path d="m-0.00046,4.444417c0.317462,-0.317461 0.952385,-0.317461 1.269847,-0.317461c0.952385,0 1.904771,0 3.49208,0c0.952385,0 1.269847,0 1.90477,0c0.634924,0 1.269847,0 2.539695,0c0.952385,0 1.269847,0 1.587309,0c0.952385,0 1.269847,0 1.587309,0c0.952385,0 1.269847,0 2.539694,0c0.634924,0 1.587309,0 1.90477,0c0.317463,0 1.269848,0 1.587309,0c0.317463,0 1.287033,-0.180103 2.222233,0c1.678738,0.323295 2.827883,0.792456 4.127003,0.952385c0.630167,0.077578 1.269848,0 1.587309,0c0.317463,0 0.634924,0 1.269848,0c0.317461,0 0.952385,-0.317462 1.587309,-0.317462c0.317461,0 0.952385,0 1.90477,0c0.634924,0 1.587309,0 2.857157,0c0.952385,0 1.587311,0 1.90477,0c0.317463,0 0.634926,0 1.90477,0c1.269848,0 2.539696,0 2.857159,0c0.634922,0 1.269848,0 2.222233,0c0.952385,0 1.921753,-0.145875 2.539692,0c0.69088,0.163094 1.269848,0.634923 1.90477,0.634923c1.269848,0 1.904774,0 2.539696,0c0.634922,0 1.587311,0 1.90477,0c0.317463,0 1.269848,0 1.587311,0c0.634922,0 1.587307,0 2.222233,0c1.269844,0 2.222233,0 2.539692,0c0.317463,0 0.634926,0 1.269848,0c0.317463,0 0.634922,0 0.952385,0c0.634926,0 0.952385,0 1.269848,0c0.317463,0 1.269848,-0.634923 1.587307,-0.634923c0.317463,0 1.286243,0.203408 2.5397,0c0.990936,-0.160808 1.90477,-0.317462 2.222229,-0.317462c0.317459,0 0.952385,0 1.269844,0c0.317467,0 0.634926,0 1.269852,0c0.634918,0 1.587311,0 2.539696,0c1.269844,0 2.222229,0 2.539688,0c0.317467,0 0.634926,0 1.269852,0c0.634918,0 1.587311,0 2.222229,0c0.952385,0 1.269852,0 2.539696,0c1.587311,0 2.539696,0 3.492081,0c0.317459,0 0.634926,-0.317461 1.587311,-0.317461c0.634918,0 2.222229,0 2.857155,0c0.317459,0 0.634918,0 0.952385,0c0.634926,0 1.269844,0 1.587311,0c0.952385,0 1.587303,0 3.174614,0c0.952385,0 1.269844,0 1.90477,0c0.317467,0 0.976547,0.12149 1.269852,0c0.41478,-0.171809 0.647217,-0.164907 1.587303,-0.317462c0.990936,-0.160808 1.269852,-0.634923 1.587311,-0.634923c0.634926,0 0.952385,0 1.269852,0c0.952385,0 1.587303,0 2.539688,0c0.634926,0 0.952385,0 1.587311,0c0.317459,0 0.952385,0 2.222237,0c1.269844,0 1.5914,-0.050852 1.90477,0c0.990936,0.160807 2.516129,0.475416 4.126999,0.634923c0.631836,0.062564 1.269852,0.317462 1.587311,0.317462c0.317459,0 0.634926,0 1.269844,0c0.317467,0 0.634926,0 0.952385,0c0.634926,0 0.952385,0 1.269852,0c0.317459,0 0.952385,0 1.587311,0c1.587303,0 2.857155,0 3.492073,0c0.634926,0 0.952385,0 1.269852,0c0.317459,0 0.952385,0 1.269852,0c0.317459,0 0.634918,0 1.587296,0c0.634933,0 1.587311,0 2.222244,0c0.634918,0 1.157928,0.308736 2.539688,0.634923c0.30896,0.072937 0.634918,0 1.269852,0c0.317459,0 0.634918,0 0.952377,0c0.634933,0 0.976563,0.121487 1.269852,0c0.41478,-0.171809 0.952393,-0.317462 1.269852,-0.317462c0.634918,0 1.269836,0 1.90477,0c0.317459,0 0.952377,0 1.269836,0c1.269852,0 1.904785,0 2.857162,0c0.317459,0 0.952393,0 1.587311,0c0.317459,0 0.634918,-0.317461 0.952377,-0.317461c0.634933,0 1.269852,0 1.587311,0c1.587311,0 2.222244,0 2.857162,0c0.317459,0 0.952377,0 1.269852,0c0.317459,0 0.634918,0 1.587296,0c0.634933,0 1.269852,0 1.587311,0c0.317474,0 0.634933,0 1.269852,0c0.317459,0 1.90477,0 2.539688,0c1.269852,0 1.587311,0 2.222244,0c0.317459,0 1.90477,0 2.539688,0c0.952393,0 1.587311,0 2.222229,0c0.634933,0 1.587311,0 3.174622,0c0.952393,0 1.90477,0 2.222229,0c0.317459,0 0.952393,0 1.90477,0c1.587311,0 2.442383,0.463114 2.857162,0.634923c0.293289,0.121487 0.952377,0 1.587311,0c0.317459,0 1.269836,0 1.587311,0c0.317459,0 1.587311,0 2.539688,0c0.317459,0 0.634918,0 0.952393,0c0.634918,0 0.952377,0 1.269836,0c0.952393,0 2.539703,-0.317462 3.174622,-0.317462c0.317459,0 0.896439,-0.154367 1.587311,-0.317461c0.926895,-0.218813 1.213898,-0.154368 1.90477,-0.317462c0.926895,-0.218813 2.222229,0 2.857162,0c0.317459,0 0.952377,0 1.269836,0c0.317459,0 0.440292,-0.291305 1.269852,-0.634923c0.293289,-0.121487 0.634918,0 0.952377,0l0.634933,0l0.317459,0"
              id="svg_11" stroke-width="4" stroke="#000" fill="none"/>
    </g>
</svg>