<svg width="500" height="500" xmlns="http://www.w3.org/2000/svg">
    <g>
        <title>Layer 1</title>
        <path stroke="#000"
              d="m3.332439,3.635468c0.617412,0.606064 8.643771,0.606064 27.783554,0.606064c20.992015,0 59.271581,0 81.498422,0c20.374609,0 37.662152,0 49.392975,0c8.026374,0 14.817905,0 24.07909,0c12.348236,0 25.947309,-0.661537 40.13179,0c13.009656,0.606747 31.488019,1.212126 44.453683,1.212126c12.965665,0 25.93133,1.818188 37.662168,1.818188c12.348236,0 24.696472,0 39.514361,0c9.878614,0 19.757196,0 29.63581,0c4.321878,0 5.556705,0 9.261185,0c5.556705,0 11.730838,0 17.904941,0c5.556736,0 9.878614,0 15.435318,0c4.321878,0 7.40896,0 12.348236,0c4.939307,0 12.965665,0 16.052716,0c1.234827,0 4.321909,0 7.40896,0c3.087051,0 5.556705,0 8.643787,0c4.321878,0 9.261185,0 13.583063,0c4.939307,0 8.026358,0 8.643756,0c0.617429,0 2.469653,-0.606064 3.087082,-0.606064c0.617398,0 1.852225,0 2.469653,0c0.617398,0 1.234796,0 2.469622,0l1.234827,0l0.617429,0l1.234827,0"
              id="svg_7" fill-opacity="null" stroke-opacity="null" stroke-width="4" fill="none"/>
        <path stroke="#000"
              d="m484.546316,5.453636c1.212128,1.239535 0.973267,1.871367 1.212128,4.338374c0.304504,3.144825 1.175415,6.204128 1.818176,9.916283c1.720154,9.934559 3.333252,19.201186 3.636383,31.608156c0.363281,14.869782 0,29.129083 0,47.102347c0,11.775584 0.907684,29.671648 1.818176,46.482582c1.106018,20.421038 0,40.904663 0,64.455846c0,38.425603 0,66.934905 0,93.584917c0,25.410474 0.400421,47.773581 1.818207,68.174474c0.911377,13.114151 1.818176,20.452324 1.818176,27.889518c0,1.239538 -0.325012,5.520638 -1.212128,11.775592c-0.960815,6.774687 -1.514557,13.605984 -1.818176,18.593033c-0.30127,4.94857 -1.212128,11.155838 -1.212128,11.775592c0,0.619784 0,1.859322 0,6.817441c0,4.338397 0,7.437226 0,11.155838c0,3.718582 0,6.197657 0,8.676732c0,1.859322 0,3.09886 0,3.718613c0,0.619753 0.907593,3.052828 1.212128,6.197688c0.059723,0.616726 0,1.239538 0,2.479075c0,1.859291 0,3.718582 0,4.338366c0,0.619753 0,1.859291 0,2.479075c0,0.619753 0,3.098828 0,5.577904c0,0.619753 0,1.239538 0,1.859291c0,1.239538 0,1.859322 0,2.479075l0,0.619784l0,1.239506"
              id="svg_13" fill-opacity="null" stroke-opacity="null" stroke-width="4" fill="none"/>
        <path stroke="#000"
              d="m2.7264,6.059699c0.848489,1.239535 0.681287,1.871368 0.848489,4.338374c0.213153,3.144825 0.82279,6.204129 1.272723,9.916283c1.204107,9.93456 2.333276,19.201187 2.545467,31.608156c0.254297,14.869782 0,29.129083 0,47.102347c0,11.775584 0.635379,29.671648 1.272723,46.482582c0.774212,20.421038 0,40.904663 0,64.455846c0,38.425603 0,66.934906 0,93.584917c0,25.410474 0.280295,47.773581 1.272744,68.174474c0.637964,13.114152 1.272723,20.452324 1.272723,27.889518c0,1.239538 -0.227508,5.520638 -0.848489,11.775592c-0.672571,6.774687 -1.06019,13.605984 -1.272723,18.593033c-0.210889,4.948569 -0.848489,11.155838 -0.848489,11.775591c0,0.619785 0,1.859322 0,6.817441c0,4.338398 0,7.437226 0,11.155839c0,3.718581 0,6.197657 0,8.676732c0,1.859322 0,3.098859 0,3.718613c0,0.619753 0.635315,3.052828 0.848489,6.197688c0.041805,0.616726 0,1.239537 0,2.479075c0,1.859291 0,3.718581 0,4.338366c0,0.619753 0,1.859291 0,2.479075c0,0.619753 0,3.098828 0,5.577904c0,0.619753 0,1.239537 0,1.85929c0,1.239538 0,1.859322 0,2.479076l0,0.619784l0,1.239506"
              id="svg_14" fill-opacity="null" stroke-opacity="null" stroke-width="4" fill="none"/>
        <path stroke="#000"
              d="m2.726376,493.334198c0.617413,0.606063 8.643772,0.606063 27.783555,0.606063c20.992015,0 59.27158,0 81.498422,0c20.374609,0 37.662152,0 49.392975,0c8.026373,0 14.817904,0 24.079089,0c12.348236,0 25.94731,-0.661537 40.13179,0c13.009656,0.606747 31.488019,1.212126 44.453684,1.212126c12.965665,0 25.931329,1.818188 37.662167,1.818188c12.348236,0 24.696472,0 39.514362,0c9.878613,0 19.757196,0 29.635809,0c4.321878,0 5.556705,0 9.261185,0c5.556705,0 11.730838,0 17.904941,0c5.556735,0 9.878613,0 15.435318,0c4.321878,0 7.40896,0 12.348236,0c4.939306,0 12.965665,0 16.052716,0c1.234826,0 4.321909,0 7.40896,0c3.087051,0 5.556705,0 8.643787,0c4.321878,0 9.261185,0 13.583062,0c4.939307,0 8.026358,0 8.643756,0c0.617429,0 2.469654,-0.606064 3.087083,-0.606064c0.617397,0 1.852224,0 2.469653,0c0.617398,0 1.234796,0 2.469622,0l1.234827,0l0.617429,0l1.234827,0"
              id="svg_15" fill-opacity="null" stroke-opacity="null" stroke-width="4" fill="none"/>
    </g>
</svg>